<svg width="596" height="134" viewBox="0 0 596 134" fill="none" xmlns="http://www.w3.org/2000/svg">
<path d="M104.586 93.3697C104.451 81.5187 98.9458 70.339 89.6127 63.0203C94.9843 56.2723 97.9719 47.9129 98.0726 39.2849C97.7368 17.8323 80.4476 0.4755 58.995 0.0390625H0.680176V131.944H65.8434C87.061 131.642 104.217 114.554 104.619 93.3361L104.586 93.3697ZM35.3937 28.8104H52.1125C58.4241 28.8104 63.5607 33.9134 63.5607 40.2585C63.5607 46.6037 58.4576 51.7065 52.1125 51.7065H35.3937V28.844V28.8104ZM35.3937 103.576V80.7129H58.6253C64.9033 80.8136 69.9728 85.8831 70.0735 92.1611C70.0735 98.4727 64.9705 103.576 58.6589 103.576H35.3937Z" fill="#A3A3A3"/>
<path d="M204.328 97.2295H156.757V0.105469H122.077V132.01H204.328V97.2295Z" fill="#A3A3A3"/>
<path d="M548.208 0.144531H492.545V132.05H527.259V97.0337H548.912C575.669 96.2615 596.719 73.9362 595.981 47.2127C595.242 21.2615 574.159 0.480253 548.208 0.144531ZM548.778 67.1546H527.292V29.3523H548.778C559.219 29.3523 567.679 37.8125 567.679 48.2535C567.679 58.6944 559.219 67.1546 548.778 67.1546Z" fill="#A3A3A3"/>
<path d="M366.851 54.5258C366.851 47.6435 372.424 42.104 379.306 42.104C386.155 42.104 391.728 47.6771 391.728 54.5258V55.0628L411.065 82.8271C412.207 82.4578 413.415 82.2564 414.624 82.2564C416.303 82.2564 417.981 82.5921 419.525 83.2635L454.709 36.1954C454.038 34.6511 453.702 33.006 453.668 31.2938C453.668 27.0973 455.817 23.1694 459.376 20.8865C433.559 -4.79617 391.795 -4.69553 366.112 21.1214C351.139 36.1953 344.324 57.5473 347.815 78.5299L367.119 55.9357C367.019 55.4657 366.918 54.9958 366.884 54.5594L366.851 54.5258Z" fill="#A3A3A3"/>
<path d="M466.157 43.4846C465.351 43.4846 464.512 43.3838 463.706 43.216L426.676 92.4998C426.844 93.2049 426.911 93.9099 426.911 94.6485C427.046 101.531 421.573 107.204 414.725 107.372C407.876 107.54 402.169 102.034 402.001 95.1856C402.001 93.7755 402.169 92.3655 402.639 91.0227L384.98 65.5079C383.234 66.4479 381.287 66.9179 379.306 66.9515C377.392 66.9515 375.512 66.4814 373.8 65.6421L351.542 91.8956C364.836 125.803 403.109 142.522 437.017 129.261C470.925 115.967 487.643 77.6945 474.382 43.7866C474.047 42.9473 473.711 42.1081 473.342 41.3359C471.227 42.8131 468.709 43.5851 466.157 43.518V43.4846Z" fill="#A3A3A3"/>
<path d="M273.756 132.017C310.182 132.017 339.725 102.473 339.725 66.0474C339.725 29.6216 310.182 0.078125 273.756 0.078125C237.33 0.078125 207.787 29.6216 207.787 66.0474V66.2152C207.887 102.574 237.397 132.017 273.756 132.017ZM273.756 34.5903C291.146 34.5231 305.313 48.5564 305.381 65.9467C305.448 83.3371 291.415 97.5045 274.024 97.5716C256.634 97.6388 242.467 83.6055 242.4 66.2152C242.299 48.8584 256.298 34.691 273.655 34.5903C273.655 34.5903 273.722 34.5903 273.756 34.5903Z" fill="#A3A3A3"/>
</svg>
