<svg width="132" height="119" viewBox="0 0 132 119" fill="none" xmlns="http://www.w3.org/2000/svg">
<path fill-rule="evenodd" clip-rule="evenodd" d="M130.83 103.972C130.06 99.7723 128.01 99.3323 130.72 94.9523C129.02 94.7823 126.82 94.8923 125.07 94.8923C123.15 94.8923 121.08 94.5223 120.3 95.9123C118.51 99.1023 123.42 100.102 123.71 103.262C122.17 102.752 121.64 101.502 119.46 100.992C117.39 100.512 115.61 101.392 114.2 102.242C111.32 103.982 109.61 107.082 110.45 111.562C111.13 115.152 113.19 117.862 117.18 118.002C121.56 118.142 126.22 118.002 130.63 118.002C129.83 116.572 129.15 116.212 129.15 113.892C129.15 110.032 131.77 109.112 130.83 103.982M124.03 113.922C124.44 114.892 125.45 117.022 123.66 117.182C118.19 117.682 116.97 105.562 121.09 104.152C122.68 103.612 123.96 104.522 124.42 105.642C125.82 109.032 122.36 110.002 124.03 113.922Z" fill="#A3A3A3"/>
<path fill-rule="evenodd" clip-rule="evenodd" d="M85.2 110.82C85.69 107.97 87.38 106.18 85.69 103.43C84.2 101 82.45 100.8 78.8 100.81C75.67 100.81 72.4 100.71 69.29 100.84C69.86 102.94 70 102.91 69.1 104.8C70.62 104.88 72.15 104.83 73.67 104.84C75.41 104.85 76.54 104.97 76.65 103.25C76.11 102.03 75.32 102.44 75.3 101.35C77.32 101.1 79.85 101.46 80.09 103.3C80.44 106.03 78.53 106.03 76.37 106.34C72.24 106.93 68.23 107.36 67.13 110.88C65.64 115.62 69.05 117.49 73.22 117.91C77.22 118.31 82.84 117.97 87.11 118C85.65 115.91 84.55 114.5 85.19 110.82M76.4 112.11C76.39 113.53 77.08 114.66 76.83 116.03C76.55 117.57 75.18 117.31 74.39 116.51C70.71 112.76 76.2 106.99 79.52 106.41C78.25 107.59 76.41 109.48 76.39 112.1" fill="#A3A3A3"/>
<path fill-rule="evenodd" clip-rule="evenodd" d="M107.3 107.909C106.85 106.759 106.51 105.519 106.68 104.039C106.86 102.439 107.48 101.859 108.04 100.849L100.37 100.799C98.49 100.799 97.78 102.279 98.35 104.089C99.2 106.799 102.2 108.689 102.39 111.509C102.73 116.679 94.9 116.889 95.98 108.109C96.2 106.319 96.97 105.199 96.34 103.329C95.24 100.069 91.94 100.769 87.98 100.809C88.54 101.889 89.12 102.199 89.3 103.859C89.72 107.849 86.77 111.359 89.5 114.719C91.4 117.049 95.02 119.029 98.45 117.269C100.23 116.359 100.08 115.649 101.16 115.499C102.25 117.879 99.94 118.169 108.2 117.979C107.62 117.379 107.24 116.519 107.24 115.259C107.24 111.949 108.87 111.899 107.31 107.919" fill="#A3A3A3"/>
<path fill-rule="evenodd" clip-rule="evenodd" d="M61.2101 101.632C60.6301 102.282 60.53 103.142 61.2 103.682C62.07 104.382 65.78 104.012 67.14 104.012C66.14 101.882 66.53 101.302 67.59 99.7323C66.27 99.7323 59.52 99.8223 58.81 99.5923C57.6 99.2023 57.23 97.9723 57.55 96.4123C57.87 94.8423 58.46 94.3923 59.07 93.4323C57.1 93.4523 53.2201 92.9923 51.9001 93.9223C49.4501 95.6423 51.56 97.8523 51.58 99.6923C50.4 99.6923 49.25 99.5823 48.29 99.9523C49.53 100.562 50.2901 99.6723 51.5201 101.152C54.2901 104.482 50.71 109.542 50.84 111.892C50.97 114.442 52.78 116.482 54.51 117.262C56.58 118.192 60.36 117.982 63 117.802L62.2101 116.702C60.1001 117.432 58.44 117.402 57.84 115.112C56.74 110.922 60.52 111.472 58.8 102.922C58.21 99.9823 60.4501 99.7623 62.8701 100.242C62.3001 100.952 61.74 101.032 61.2 101.632" fill="#A3A3A3"/>
<path fill-rule="evenodd" clip-rule="evenodd" d="M25.82 111.13C25.87 107.49 27.61 106.121 28.05 102.961C28.83 97.3705 22.05 91.4805 15.55 91.4805C8.45002 91.4805 0 95.8805 0 103.841C0 109.581 3.12002 111.71 3.11002 114.87C3.11002 116.66 2.06 117.26 1.31 117.99H11.2C13 117.99 14.14 117.25 14.72 116.04C15.51 114.42 14.69 113.04 13.95 111.91C12.69 109.99 11.27 109.04 9.75 107.66C8.69 106.69 9.02003 106.14 9.12003 105.74C9.45003 104.49 12.39 105.081 13.71 105.651C18.1 107.551 18.55 114.12 16.17 117.98L29.16 118C27.37 116.24 25.76 114.9 25.82 111.13ZM17.7 107.5C17.02 106.95 16.99 106.65 16.25 106.07C14.7 104.86 12.54 103.72 11.18 102.48C8.84002 100.36 9.17 96.2005 11.59 94.5605C14.89 92.3205 17.2 94.6605 18.11 97.7205C18.73 99.8105 18.83 105.86 17.71 107.5" fill="#A3A3A3"/>
<path fill-rule="evenodd" clip-rule="evenodd" d="M45.27 101.1C43.79 100.69 42.25 100.96 41.13 101.45C39.92 101.99 39.07 103.23 38.2 103.43C37.79 102.9 37.78 101.29 36.01 100.89C35.16 100.7 32.28 100.77 31.32 100.86C31.89 102.68 32.52 102.6 31.88 105.21C30.48 110.97 32.7 109.97 32.71 113.88C32.71 115.7 31.95 116.89 31.24 117.99C33.15 117.99 39.39 118.39 40.48 117.54C42.77 115.75 39.47 111.97 38.59 110.91C33.2 104.35 42.62 99.6401 43.43 108.46C43.9 108.44 50.15 105.61 50.74 105.26C49.36 103.65 48.21 101.91 45.26 101.09" fill="#A3A3A3"/>
<path d="M35.3701 82.1192H37.54C37.44 82.9892 37.1501 83.7792 36.6501 84.5092C36.1601 85.2292 35.5201 85.7992 34.7401 86.2192C33.9601 86.6392 33.12 86.8492 32.23 86.8492C31.51 86.8492 30.82 86.7092 30.16 86.4292C29.51 86.1492 28.94 85.7692 28.47 85.2992C28 84.8292 27.62 84.2592 27.35 83.5992C27.07 82.9392 26.9301 82.2492 26.9301 81.5292C26.9301 80.8092 27.07 80.1092 27.35 79.4592C27.63 78.7992 28 78.2392 28.47 77.7592C28.94 77.2792 29.5001 76.8992 30.1501 76.6192C30.8001 76.3392 31.4901 76.1992 32.2101 76.1992C33.1601 76.1992 34.04 76.4192 34.85 76.8692C35.66 77.3192 36.3 77.9292 36.76 78.6892L35.09 79.8792C34.73 79.3392 34.29 78.9292 33.8 78.6492C33.3 78.3692 32.78 78.2292 32.23 78.2292C31.68 78.2292 31.14 78.3792 30.67 78.6692C30.19 78.9592 29.82 79.3592 29.55 79.8692C29.28 80.3692 29.14 80.9292 29.14 81.5192C29.14 82.1092 29.28 82.6592 29.55 83.1592C29.82 83.6592 30.2 84.0492 30.67 84.3392C31.14 84.6292 31.66 84.7792 32.23 84.7792C33 84.7792 33.6801 84.5292 34.2701 84.0292C34.8601 83.5292 35.2301 82.8892 35.3701 82.1192Z" fill="#A3A3A3"/>
<path d="M45.8901 86.4309C45.2301 86.7109 44.5401 86.8609 43.8201 86.8609C43.1001 86.8609 42.4001 86.7209 41.7401 86.4409C41.0801 86.1609 40.5101 85.7809 40.0401 85.3009C39.5601 84.8209 39.1901 84.2509 38.9101 83.6009C38.6301 82.9409 38.4901 82.2509 38.4901 81.5309C38.4901 80.5709 38.7301 79.6809 39.2001 78.8609C39.6701 78.0409 40.3201 77.4009 41.1401 76.9209C41.9601 76.4409 42.8501 76.2109 43.8101 76.2109C44.5301 76.2109 45.2301 76.3509 45.8901 76.6309C46.5501 76.9109 47.1201 77.2909 47.5901 77.7609C48.0701 78.2309 48.4501 78.8009 48.7301 79.4509C49.0101 80.1109 49.1501 80.8009 49.1501 81.5209C49.1501 82.2409 49.0101 82.9409 48.7301 83.5909C48.4501 84.2509 48.0701 84.8109 47.6001 85.2909C47.1201 85.7709 46.5601 86.1509 45.9001 86.4309M43.8001 78.2409C42.9301 78.2409 42.1901 78.5609 41.5801 79.2009C40.9801 79.8409 40.6801 80.6109 40.6801 81.5209C40.6801 82.4309 40.9801 83.2109 41.5801 83.8509C42.1801 84.4809 42.9301 84.8009 43.8101 84.8009C44.3801 84.8009 44.9101 84.6609 45.3901 84.3709C45.8701 84.0809 46.2501 83.6909 46.5201 83.1909C46.8001 82.6909 46.9401 82.1409 46.9401 81.5309C46.9401 80.6309 46.6301 79.8509 46.0201 79.2109C45.4101 78.5709 44.6701 78.2509 43.8001 78.2509" fill="#A3A3A3"/>
<path d="M58 82.3297V76.3697H60.14V86.8497L52.82 80.7497V86.6697H50.67V76.1797L58 82.3297Z" fill="#A3A3A3"/>
<path d="M70.11 82.1192H72.28C72.18 82.9892 71.88 83.7792 71.39 84.5092C70.9 85.2292 70.26 85.7992 69.48 86.2192C68.7 86.6392 67.86 86.8492 66.97 86.8492C66.25 86.8492 65.5601 86.7092 64.9001 86.4292C64.2501 86.1492 63.6801 85.7692 63.2101 85.2992C62.7401 84.8292 62.36 84.2592 62.09 83.5992C61.81 82.9392 61.67 82.2492 61.67 81.5292C61.67 80.8092 61.81 80.1092 62.09 79.4592C62.37 78.7992 62.7401 78.2392 63.2101 77.7592C63.6801 77.2792 64.24 76.8992 64.89 76.6192C65.54 76.3392 66.23 76.1992 66.95 76.1992C67.9 76.1992 68.78 76.4192 69.59 76.8692C70.4 77.3192 71.04 77.9292 71.5 78.6892L69.83 79.8792C69.47 79.3392 69.03 78.9292 68.54 78.6492C68.04 78.3692 67.52 78.2292 66.97 78.2292C66.42 78.2292 65.88 78.3792 65.41 78.6692C64.94 78.9592 64.56 79.3592 64.29 79.8692C64.02 80.3692 63.88 80.9292 63.88 81.5192C63.88 82.1092 64.02 82.6592 64.29 83.1592C64.56 83.6592 64.94 84.0492 65.41 84.3392C65.88 84.6292 66.41 84.7792 66.97 84.7792C67.74 84.7792 68.42 84.5292 69.01 84.0292C69.6 83.5292 69.97 82.8892 70.11 82.1192Z" fill="#A3A3A3"/>
<path d="M80.04 86.6711H73.65V76.3711H79.13V78.3111H75.8V80.2311H79.67V82.1611H75.8V84.7411H80.04V86.6711Z" fill="#A3A3A3"/>
<path d="M83.7201 86.6694H81.5701V76.3594H85.1601C85.9501 76.3594 86.6801 76.5394 87.3301 76.8994C87.9801 77.2594 88.5001 77.7494 88.8701 78.3694C89.2401 78.9894 89.4301 79.6694 89.4301 80.4094C89.4301 81.7394 89.0201 82.8094 88.2001 83.6394C87.3801 84.4694 86.3001 84.8794 84.9501 84.8794H83.7201V86.6594V86.6694ZM83.7201 82.9494H84.9001C85.6501 82.9494 86.2401 82.7394 86.6501 82.3194C87.0701 81.8994 87.2801 81.3194 87.2801 80.5894C87.2801 79.9294 87.0801 79.3794 86.6901 78.9494C86.3001 78.5194 85.7401 78.2994 85.0201 78.2994H83.7201V82.9494Z" fill="#A3A3A3"/>
<path d="M94.2501 86.6711H92.1101V78.3111H89.5701V76.3711H96.9701V78.3111H94.2501V86.6711Z" fill="#A3A3A3"/>
<path d="M104.61 86.4309C103.95 86.7109 103.26 86.8609 102.54 86.8609C101.82 86.8609 101.12 86.7209 100.46 86.4409C99.8001 86.1609 99.2301 85.7809 98.7601 85.3009C98.2801 84.8209 97.9101 84.2509 97.6301 83.6009C97.3501 82.9409 97.2101 82.2509 97.2101 81.5309C97.2101 80.5709 97.4501 79.6809 97.9201 78.8609C98.3901 78.0409 99.0401 77.4009 99.8601 76.9209C100.68 76.4409 101.57 76.2109 102.53 76.2109C103.25 76.2109 103.95 76.3509 104.61 76.6309C105.27 76.9109 105.84 77.2909 106.31 77.7609C106.79 78.2309 107.17 78.8009 107.45 79.4509C107.73 80.1109 107.87 80.8009 107.87 81.5209C107.87 82.2409 107.73 82.9409 107.45 83.5909C107.17 84.2509 106.79 84.8109 106.32 85.2909C105.84 85.7709 105.28 86.1509 104.62 86.4309M102.52 78.2409C101.65 78.2409 100.91 78.5609 100.3 79.2009C99.7001 79.8409 99.4001 80.6109 99.4001 81.5209C99.4001 82.4309 99.7001 83.2109 100.3 83.8509C100.9 84.4809 101.65 84.8009 102.53 84.8009C103.1 84.8009 103.63 84.6609 104.11 84.3709C104.59 84.0809 104.97 83.6909 105.24 83.1909C105.52 82.6909 105.66 82.1409 105.66 81.5309C105.66 80.6309 105.35 79.8509 104.74 79.2109C104.13 78.5709 103.39 78.2509 102.52 78.2509" fill="#A3A3A3"/>
<path fill-rule="evenodd" clip-rule="evenodd" d="M79.1599 18.7008C79.2999 19.0508 79.76 19.5808 80.12 19.7908C80.58 20.0508 81.6599 20.2309 81.7799 19.5909C82.0299 18.3509 79.6899 17.8508 79.1599 18.7008ZM73.9 16.4108C72.36 17.3708 71.4299 21.2408 71.8799 23.6608C68.5499 25.3408 67.1899 26.8509 62.9099 26.9609C56.4499 27.1309 50.9699 31.5708 48.7399 37.3608C47.7799 39.8608 47.3899 42.4908 47.7199 45.2208C47.8399 46.1808 48.1399 47.0408 48.2399 47.8608C47.5299 47.8708 46.6199 48.4008 46.3099 48.8608C45.5399 50.0108 45.9999 52.5008 47.1299 52.8908C47.0199 55.2808 50.97 56.0709 51.9 55.3409C53.28 54.2409 52.3899 51.7908 54.5199 53.8108C55.6299 54.8608 53.6099 56.8908 57.4299 57.9808H66.5699C67.4299 57.9708 68.01 57.9208 68.12 57.8308C68.49 57.4208 68.3099 55.7508 67.2499 55.3508C65.8899 54.8408 65.8199 55.2808 64.7399 55.2008C60.7999 54.9108 61.6199 52.1608 64.9199 48.6108C66.8199 46.2608 69.6199 45.8509 69.4299 49.5209C69.4199 51.7009 69.0499 53.9908 69.9499 56.0108C70.2799 56.7508 70.7399 57.7008 71.7699 57.9708L73.5699 57.9908L75.2799 57.9708C75.6999 57.9708 75.7899 56.9009 75.6299 56.4609C75.3999 55.8209 74.9899 55.4908 74.3499 55.2408C73.8499 55.0508 73.7299 54.9808 73.5899 54.3608C73.2199 52.7108 73.8999 49.2409 74.4199 48.1509C75.3999 46.1009 74.1599 46.6808 76.0899 45.3708C84.7099 39.5208 76.5399 26.6408 81.9599 25.8108C83.6799 25.5508 84.7799 26.6209 86.2099 25.9009C87.5699 25.2209 87.9399 23.6908 87.3599 22.0008C86.4999 19.4508 83.4999 16.5409 78.5899 15.5909C78.6199 12.6209 79.86 11.8509 79.65 6.78086C79.62 6.06086 79.3299 2.84082 79.0999 2.43082C78.7299 1.80082 78.3999 1.79082 77.6599 1.43082C77.2199 1.22082 74.4699 -2.36915 74.5599 4.89085C74.5799 6.48085 74.4799 5.69084 73.9299 6.82084C73.7799 7.12084 73.6699 7.38085 73.5599 7.71085C72.9499 9.48085 73.0599 10.0008 73.3099 11.9108C73.4999 13.3808 73.7799 14.9708 73.8899 16.4208" fill="#A3A3A3"/>
</svg>
