<svg width="459" height="279" viewBox="0 0 459 279" fill="none" xmlns="http://www.w3.org/2000/svg">
<path d="M348.987 71.2569C348.927 75.7636 348.42 80.1808 350.808 84.2995C356.478 94.0889 369.999 96.8348 378.982 89.6419C381.221 87.8512 382.534 87.8512 384.802 89.6419C397.158 99.4015 418.498 95.3126 426.198 81.6134C427.81 78.7184 430.048 77.9126 432.824 77.1067C443.061 74.1222 450.821 67.7352 456.85 59.1097C457.178 58.662 457.447 58.0054 458.372 58.2143C459.327 59.4977 458.85 61.0795 458.85 62.542C458.88 102.506 458.641 142.439 458.999 182.403C459.148 199.892 446.255 211.92 429.66 211.92C296.25 211.92 162.809 211.95 29.3981 211.92C11.789 211.92 0.0298458 199.922 0 182.403C0 131.665 0 80.8971 0 30.1592C0 14.9379 7.87938 5.41707 22.6531 1.71619C26.1749 0.820812 29.5474 0.611877 33.0393 0.582031C124.338 0.582031 215.666 0.582031 306.964 0.582031C312.665 0.582031 312.695 0.582071 310.158 5.56632C306.158 13.3561 307.949 21.1756 313.142 27.2343C314.664 29.0251 315.291 30.398 314.396 32.4573C308.158 46.7535 314.784 62.9598 327.886 69.5855C334.512 72.9283 341.615 72.988 349.047 71.3166L348.987 71.2569ZM89.7464 115.339C86.4037 114.474 82.9713 115.22 79.6286 114.862C75.689 114.444 72.8834 115.787 70.0779 118.801C61.8405 127.606 53.1555 135.992 44.6494 144.588C43.9033 145.334 43.4853 146.647 42.1423 146.051C40.8589 145.483 41.426 144.14 41.426 143.185C41.3663 136.41 41.426 129.606 41.3961 122.831C41.3961 114.862 41.3962 115.1 33.3975 114.832C29.4877 114.712 28.5924 115.906 28.6222 119.726C28.8013 143.155 28.652 166.585 28.7415 190.014C28.7714 198.967 26.9508 197.893 36.7402 198.161C40.262 198.251 41.6051 197.355 41.4858 193.565C41.1873 184.492 41.3961 175.389 41.3961 166.286C41.3961 164.585 41.247 162.675 43.3661 162.108C45.2463 161.6 46.0521 163.301 46.9773 164.465C55.2147 174.673 63.3626 184.94 71.6001 195.147C72.7044 196.52 73.8386 198.191 76.0174 198.102C80.6136 197.923 85.2396 198.639 89.8358 197.654C93.2681 198.788 96.7601 198.519 100.312 198.311C103.684 198.102 104.341 196.699 104.311 193.714C104.222 178.433 104.251 163.182 104.311 147.901C104.311 146.379 103.356 144.17 105.624 143.514C107.326 143.036 108.281 144.767 109.325 145.842C126.308 163.66 143.26 181.507 160.242 199.325C161.167 200.31 162.152 202.011 163.525 201.474C165.167 200.788 164.51 198.758 164.54 197.296C164.57 171.39 164.48 145.483 164.659 119.577C164.689 115.339 163.197 114.324 159.317 114.474C152.512 114.712 152.214 114.713 152.184 119.876C152.124 127.755 152.184 135.605 152.184 143.484C152.184 151.184 152.184 158.914 152.124 166.614C152.124 167.629 152.452 168.913 151.229 169.48C149.975 170.076 149.259 169.032 148.483 168.345C147.677 167.599 146.961 166.823 146.215 166.047C129.59 148.558 112.966 131.038 96.2826 113.608C95.0888 112.355 93.7456 110.504 91.7161 110.982C89.6269 111.519 90.612 113.936 89.8061 115.339H89.7464ZM289.176 170.196C286.699 165.182 284.043 161.332 282.819 157.034C279.536 145.424 274.313 134.59 270.194 123.338C267.09 114.832 267.031 115.041 258.256 114.832C254.107 114.742 253.66 115.876 255.122 119.518C263.897 141.036 272.403 162.675 281.177 184.223C283.625 190.193 285.147 196.639 289.146 202.519C290.37 199.683 290.967 197.146 291.952 194.878C298.398 180.075 303.413 164.704 309.65 149.841C310.188 148.558 309.621 146.23 311.799 146.259C313.59 146.289 313.709 148.528 314.157 149.692C320.544 165.988 326.752 182.343 332.99 198.699C333.408 199.803 333.258 201.564 334.78 201.564C336.541 201.564 336.392 199.534 336.84 198.43C342.511 184.552 348.092 170.643 353.643 156.705C359.105 143.006 364.507 129.277 369.939 115.518C368.238 114.623 366.537 114.951 364.925 114.951C356.747 114.892 356.777 114.951 353.733 122.651C348.122 137.007 342.481 151.363 336.84 165.689C336.422 166.734 336.362 168.375 334.84 168.345C333.318 168.316 333.318 166.734 332.9 165.599C330.542 159.302 328.095 153.034 325.648 146.767C321.439 135.963 317.231 125.188 312.993 114.414C312.754 113.787 312.903 112.713 311.829 112.772C311.023 112.832 310.546 113.459 310.247 114.265C308.337 119.398 306.427 124.502 304.487 129.635C299.473 142.857 294.459 156.079 289.116 170.226L289.176 170.196ZM127.203 13.5053C102.759 13.7142 82.7325 32.517 82.9415 57.8263C83.1504 81.5537 100.192 101.133 126.696 101.401C153.497 101.67 171.046 82.2999 171.464 57.7965C171.852 33.4125 152.035 13.5649 127.203 13.5351V13.5053ZM212.86 199.594C237.603 201.146 257.092 180.343 257.122 156.855C257.152 131.426 236.051 112.862 213.069 112.922C193.073 112.952 168.39 128.382 169.435 159.481C170.121 180.164 187.491 200.37 212.86 199.594ZM175.792 46.5148C175.792 54.215 175.941 61.9451 175.732 69.6453C175.613 73.9132 176.359 77.9424 177.881 81.8223C181.85 92.0893 189.193 98.715 200.086 100.446C211.189 102.207 221.605 100.237 229.485 91.2835C234.976 85.0457 237.274 77.4648 237.274 69.2274C237.304 53.9463 237.274 38.6951 237.274 23.4141C237.274 15.8034 237.274 16.0422 229.813 15.7438C225.694 15.5647 225.037 17.1763 225.097 20.7876C225.276 34.6659 225.276 48.5443 225.097 62.4226C225.037 68.541 224.948 74.8981 222.172 80.4196C218.412 87.9407 209.906 90.8358 200.713 88.7167C194.535 87.2841 189.431 81.0463 188.745 73.4953C187.253 57.1995 188.447 40.8142 188.088 24.4886C187.879 14.8484 189.909 15.9526 179.105 15.7735C176.508 15.7437 175.672 16.5197 175.732 19.1461C175.881 28.2491 175.792 37.3521 175.792 46.455V46.5148ZM46.9773 80.151C46.9773 83.7026 46.9773 87.2244 46.9773 90.7761C46.9773 99.8791 46.9774 99.7597 56.2296 99.4016C59.0649 99.2822 59.9005 98.2674 59.8707 95.5216C59.7513 85.6724 59.8408 75.7935 59.8109 65.9443C59.8109 63.9447 59.9902 62.0346 61.0646 60.1841C68.1082 48.0369 74.9727 35.8001 82.076 23.7125C83.4489 21.3846 86.2842 18.3701 85.4187 16.7883C84.2249 14.52 80.4046 16.2511 77.7483 15.8631C73.9579 15.296 71.7196 16.6092 69.8393 20.2504C65.4818 28.5774 60.4675 36.5462 55.6922 44.6643C53.3344 48.6636 52.7375 48.6636 50.3499 44.4852C45.5745 36.1284 40.7396 27.7716 36.0837 19.3252C34.7705 16.9375 33.2482 15.5945 30.383 15.8333C27.9357 16.0422 25.4585 15.8929 22.9813 15.8631C20.6235 15.8631 19.937 16.4601 21.31 18.8179C26.8911 28.279 31.9052 38.0684 37.9341 47.2311C44.4106 57.0802 48.8277 67.1681 46.9474 79.2258C46.8877 79.5242 46.9474 79.8525 46.9474 80.151H46.9773Z" fill="#A3A3A3"/>
<path d="M277.298 246.845C277.298 255.619 277.298 264.394 277.298 273.169C277.298 275.527 277.656 277.884 273.985 277.795C270.195 277.705 271.388 274.989 271.359 273.139C271.269 260.962 271.269 248.785 271.359 236.578C271.359 235.026 270.314 232.25 273.478 232.638C276.164 232.966 279.954 230.489 281.267 235.145C283.715 243.95 286.102 252.784 288.52 261.589C288.818 262.693 288.52 264.424 290.281 264.364C292.191 264.305 291.296 262.514 291.594 261.499C294.191 252.426 296.459 243.293 299.384 234.339C300.608 230.549 304.488 233.086 307.114 232.608C309.442 232.19 309.352 234.131 309.352 235.683C309.352 248.636 309.352 261.589 309.382 274.542C309.382 276.959 308.427 277.765 306.069 277.795C303.562 277.795 302.906 276.78 302.936 274.452C303.025 265.23 302.965 256.008 302.607 246.725C299.563 251.381 299.145 256.903 297.324 261.887C295.832 266.006 294.997 270.363 293.982 274.631C293.474 276.75 292.43 277.765 290.162 277.765C287.714 277.765 286.64 276.72 286.013 274.392C283.566 265.11 280.969 255.858 278.432 246.606L277.328 246.815L277.298 246.845Z" fill="#A3A3A3"/>
<path d="M81.4192 255.441C81.4192 259.291 81.2101 263.171 81.4787 266.991C81.807 271.498 83.8665 272.662 89.2387 272.542C93.2978 272.453 94.7304 270.543 94.2827 266.722C94.1335 265.499 94.1335 264.245 94.2827 263.022C94.6408 260.156 93.7453 258.575 90.5817 258.963C88.1641 259.231 86.8212 258.485 86.9406 255.68C87.0599 252.755 89.0297 253.143 90.8205 253.083C97.0483 252.864 100.152 255.889 100.132 262.156C100.132 265.559 100.073 268.931 100.132 272.333C100.162 273.766 100.013 274.9 98.7893 275.945C94.1333 279.944 81.6876 279.258 77.8972 274.572C75.6289 271.766 74.5845 268.364 74.5248 264.783C74.4352 258.157 74.3457 251.531 74.5248 244.905C74.674 239.951 76.4049 235.593 81.1206 233.206C85.9556 230.758 90.9697 231.117 95.6854 233.444C99.8339 235.504 100.222 239.772 100.58 243.711C100.759 245.651 98.9386 245.532 97.5657 245.621C95.5958 245.741 93.8946 245.621 93.626 243.025C93.2678 239.384 91.1786 237.563 87.4479 237.772C83.8664 237.951 81.6579 239.921 81.4192 243.413C81.1207 247.412 81.3594 251.412 81.3594 255.441C81.3594 255.441 81.3893 255.441 81.4192 255.441Z" fill="#A3A3A3"/>
<path d="M362.507 254.839C362.507 248.362 362.567 241.886 362.507 235.409C362.478 233.26 363.104 232.276 365.372 232.455C367.223 232.604 369.073 232.604 370.924 232.455C386.265 231.35 387.369 239.259 388.324 249.437C388.861 255.227 388.682 261.077 387.429 266.897C386.056 273.313 382.146 277.134 375.639 277.552C366.924 278.109 362.557 274.07 362.537 265.434C362.537 261.883 362.537 258.331 362.537 254.809L362.507 254.839ZM368.596 255.496C368.596 259.943 368.685 264.39 368.566 268.867C368.506 271.463 369.461 272.239 372.058 272.179C378.087 272.06 381.4 269.105 381.549 263.047C381.668 257.824 381.639 252.601 381.549 247.378C381.459 240.811 378.743 238.513 372.058 238.603C369.431 238.633 368.506 239.618 368.566 242.125C368.655 246.572 368.566 251.019 368.566 255.496H368.596Z" fill="#A3A3A3"/>
<path d="M8.38728 255.134C8.38728 248.658 8.44694 242.181 8.35741 235.734C8.32756 233.406 8.98413 232.332 11.4912 232.481C14.5653 232.66 17.6693 232.66 20.7136 232.481C28.1154 232.063 32.8011 237.077 33.6965 244.509C34.5023 251.403 34.3531 258.358 33.6965 265.252C32.9802 272.982 28.5929 277.22 20.8927 277.608C12.5558 278.046 8.38728 274.096 8.38728 265.759C8.38728 262.208 8.38728 258.686 8.38728 255.134ZM14.9833 255.313C14.9833 259.79 14.9236 264.237 15.0131 268.714C15.0131 269.968 14.5952 271.788 16.565 272.057C20.236 272.534 24.2653 272.057 25.8173 268.535C29.6077 259.76 29.7569 250.568 25.9366 241.733C24.3548 238.062 20.2659 238.271 16.953 238.809C13.9087 239.316 15.1325 242.271 15.0131 244.211C14.8341 247.912 14.9534 251.612 14.9534 255.313H14.9833Z" fill="#A3A3A3"/>
<path d="M186.984 232.574C189.61 232.097 190.864 232.962 191.61 235.678C195.132 248.303 198.952 260.808 202.504 273.433C202.862 274.657 204.951 276.925 202.086 277.492C200.027 277.91 197.251 278.925 196.147 275.164C193.759 266.956 193.61 267.255 185.283 266.927C181.134 266.777 178.896 268.001 178.418 272.18C178.329 273.075 177.762 273.94 177.642 274.836C177.165 278.268 174.538 277.999 172.36 277.522C169.614 276.925 171.255 274.746 171.643 273.403C174.598 262.629 177.702 251.914 180.776 241.17C181.313 239.26 182.119 237.409 182.507 235.499C183.044 232.813 184.626 232.037 187.014 232.544L186.984 232.574ZM186.447 241.976C185.163 246.96 183.999 251.049 183.074 255.197C181.701 261.375 182.567 262.121 189.193 261.345C191.252 261.107 191.938 260.301 191.461 258.391C190.118 253.108 189.133 247.736 186.447 241.946V241.976Z" fill="#A3A3A3"/>
<path d="M455.895 277.406C452.552 278.093 451.537 277.018 451.03 274.84C450.433 272.183 450.194 268.154 448.046 267.468C444.554 266.333 440.464 267.02 436.614 267.109C435.003 267.139 434.406 268.423 434.048 269.915C433.57 272.004 432.973 274.063 432.167 276.033C431.123 278.63 428.765 277.854 426.974 277.436C424.975 276.988 425.87 275.138 426.228 273.974C429.929 261.051 433.839 248.187 437.39 235.234C438.136 232.458 439.629 232.459 441.688 232.518C443.807 232.578 445.508 232.279 446.374 235.353C450.105 248.694 454.313 261.916 458.223 275.198C459.237 278.6 456.253 277.257 455.895 277.376V277.406ZM442.464 243.382C441.987 243.382 441.539 243.382 441.061 243.382C439.748 248.486 438.405 253.589 437.092 258.723C436.734 260.185 437.361 261.17 438.913 261.23C441.061 261.319 443.21 261.29 445.359 261.23C446.762 261.2 447.12 260.484 446.732 259.081C445.24 253.858 443.867 248.575 442.464 243.322V243.382Z" fill="#A3A3A3"/>
<path d="M325.827 255.2C325.827 248.873 325.947 242.545 325.767 236.218C325.708 233.532 326.335 232.308 329.319 232.457C334.393 232.696 339.497 232.637 344.57 232.457C346.988 232.398 347.824 233.233 347.794 235.621C347.794 238.098 346.689 238.874 344.391 238.815C341.616 238.725 338.84 238.874 336.064 238.755C333.348 238.665 332.244 239.8 332.035 242.515C331.408 251.141 331.319 251.111 340.511 251.141C343.436 251.141 347.137 250.037 346.182 255.409C345.854 257.259 345.376 258.244 343.347 258.095C341.974 257.976 340.571 258.065 339.198 258.065C334.443 258.065 332.065 260.493 332.065 265.348C332.065 269.824 334.343 272.073 338.9 272.093C341.048 272.093 343.227 272.152 345.376 272.093C347.346 272.033 348.182 272.809 348.062 274.809C347.943 276.629 347.406 277.734 345.346 277.734C339.795 277.704 334.244 277.674 328.692 277.734C326.096 277.763 325.708 276.361 325.738 274.182C325.827 267.855 325.738 261.527 325.767 255.2H325.827Z" fill="#A3A3A3"/>
<path d="M155.079 258.78C155.079 263.854 155.05 268.927 155.079 274.031C155.109 276.359 154.661 277.762 151.796 277.792C148.871 277.792 148.603 276.359 148.633 274.061C148.692 264.361 148.662 254.661 148.662 244.961C148.662 238.873 148.663 238.903 142.574 238.813C140.724 238.813 138.396 239.619 138.396 236.217C138.396 233.739 138.604 232.307 141.798 232.456C148.543 232.754 155.348 232.635 162.123 232.486C164.511 232.456 165.705 232.844 165.705 235.679C165.705 238.604 164.302 239.052 161.974 238.843C161.049 238.783 160.123 238.903 159.198 238.783C155.885 238.395 154.9 239.977 154.99 243.111C155.169 248.334 155.05 253.587 155.05 258.81L155.079 258.78Z" fill="#A3A3A3"/>
<path d="M222.918 252.299C222.918 257.552 223.068 262.775 222.859 268.027C222.739 271.072 223.396 272.594 226.828 272.176C229.246 271.878 231.753 272.176 234.23 272.116C236.021 272.086 237.573 271.937 237.483 274.623C237.394 276.951 236.767 277.877 234.26 277.787C229.634 277.578 225.008 277.608 220.411 277.787C218.053 277.877 217.128 277.22 217.158 274.743C217.248 261.64 217.218 248.538 217.158 235.466C217.158 233.406 217.576 232.451 219.934 232.481C222.411 232.481 223.068 233.347 223.008 235.705C222.859 241.256 222.948 246.807 222.948 252.358L222.918 252.299Z" fill="#A3A3A3"/>
<path d="M51.4844 254.803C51.4844 248.357 51.5441 241.88 51.4545 235.433C51.4247 233.314 52.0216 232.359 54.2899 232.479C56.2 232.598 57.9312 232.329 57.9013 235.195C57.8118 248.416 57.8416 261.638 57.9013 274.86C57.9013 277.546 56.3493 277.665 54.2899 277.725C51.9619 277.785 51.4247 276.65 51.4545 274.621C51.5142 267.995 51.4545 261.399 51.4545 254.773L51.4844 254.803Z" fill="#A3A3A3"/>
<path d="M411.753 255.02C411.753 261.497 411.694 267.974 411.783 274.42C411.783 276.659 411.305 277.793 408.709 277.763C406.261 277.733 405.456 276.778 405.456 274.48C405.515 261.557 405.515 248.604 405.456 235.68C405.456 233.293 406.232 232.487 408.649 232.457C411.096 232.457 411.813 233.233 411.783 235.621C411.664 242.097 411.723 248.544 411.753 255.02Z" fill="#A3A3A3"/>
<path d="M118.219 255.164C118.219 248.688 118.279 242.211 118.189 235.735C118.159 233.496 118.667 232.452 121.203 232.422C123.711 232.422 124.308 233.347 124.278 235.645C124.188 248.598 124.218 261.551 124.278 274.505C124.278 276.445 123.949 277.758 121.532 277.758C119.264 277.758 118.129 277.131 118.189 274.594C118.308 268.117 118.219 261.641 118.219 255.164Z" fill="#A3A3A3"/>
<path d="M89.7463 115.337C90.5521 113.934 89.5672 111.487 91.6564 110.979C93.6859 110.472 95.0289 112.352 96.2227 113.606C112.907 131.036 129.531 148.555 146.155 166.045C146.901 166.821 147.647 167.597 148.423 168.343C149.199 169.059 149.915 170.074 151.169 169.477C152.393 168.88 152.064 167.627 152.064 166.612C152.094 158.912 152.094 151.182 152.124 143.482C152.124 135.602 152.124 127.753 152.124 119.874C152.154 114.71 152.482 114.71 159.257 114.471C163.167 114.322 164.629 115.337 164.6 119.575C164.421 145.481 164.51 171.387 164.48 197.293C164.48 198.756 165.137 200.786 163.465 201.472C162.122 202.039 161.108 200.308 160.182 199.323C143.2 181.505 126.248 163.657 109.265 145.839C108.221 144.765 107.266 143.004 105.564 143.511C103.296 144.168 104.251 146.377 104.251 147.899C104.162 163.18 104.132 178.431 104.251 193.712C104.251 196.697 103.625 198.099 100.252 198.308C96.6705 198.517 93.2084 198.786 89.7761 197.652C89.6866 197.562 89.5074 197.443 89.5074 197.383C89.5671 197.144 89.7163 196.935 89.8357 196.697C89.9551 195.324 90.1641 193.921 90.1641 192.548C90.1641 168.313 90.1641 144.108 90.1641 119.874C90.1641 118.65 89.8357 117.456 89.6566 116.232C89.5372 116.143 89.3284 116.023 89.3284 115.994C89.4478 115.755 89.597 115.546 89.7164 115.307L89.7463 115.337Z" fill="#E2E2E2"/>
<path d="M127.203 13.5064C152.035 13.5064 171.853 33.3837 171.465 57.7677C171.077 82.2712 153.497 101.671 126.696 101.372C100.193 101.104 83.1507 81.525 82.9418 57.7976C82.7329 32.5182 102.73 13.7153 127.203 13.4766V13.5064ZM96.671 57.0216C95.3876 75.6454 111.445 88.688 126.039 89.0462C143.35 89.4939 158.064 75.3469 158.243 57.8573C158.422 40.3378 145.349 26.6684 127.919 26.3102C109.863 25.9521 95.3578 40.8153 96.671 57.0216Z" fill="#E2E2E2"/>
<path d="M89.8957 196.728C78.4647 183.118 67.004 169.508 55.6327 155.869C54.1106 154.048 53.0361 152.197 55.364 149.929C66.4965 139.006 77.5097 127.963 88.5824 116.979C88.8809 116.681 89.3286 116.502 89.7166 116.293C89.8957 117.517 90.2239 118.71 90.2239 119.934C90.2538 144.169 90.2538 168.374 90.2239 192.609C90.2239 193.982 90.0151 195.384 89.8957 196.757V196.728Z" fill="#A3A3A3"/>
<path d="M96.6708 57.0185C95.3874 40.8122 109.863 25.949 127.919 26.3071C145.319 26.6653 158.392 40.3347 158.243 57.8542C158.064 75.3438 143.35 89.4609 126.039 89.0431C111.444 88.6849 95.3576 75.6423 96.6708 57.0185Z" fill="#A3A3A3"/>
<path d="M244.527 156.675C244.765 173.628 230.618 188.461 213.218 188.222C195.341 187.984 181.91 174.374 181.91 156.556C181.91 137.455 195.55 124.651 213.577 124.83C231.514 125.009 244.586 138.44 244.556 156.675H244.527Z" fill="#A3A3A3"/>
</svg>
