<svg width="168" height="75" viewBox="0 0 168 75" fill="none" xmlns="http://www.w3.org/2000/svg">
<path d="M42.7899 11.8398H47.0499V20.0898H49.7199V21.4298H45.45V13.1699H42.7899V11.8398Z" fill="#A3A3A3"/>
<path d="M46.2499 9.51154C46.8464 9.51154 47.33 9.02799 47.33 8.43152C47.33 7.83505 46.8464 7.35156 46.2499 7.35156C45.6535 7.35156 45.1699 7.83505 45.1699 8.43152C45.1699 9.02799 45.6535 9.51154 46.2499 9.51154Z" fill="#A3A3A3"/>
<path d="M54.4999 0.648438H60.8099V3.52844H56.8599L56.9199 7.38843H54.4999V0.648438Z" fill="#A3A3A3"/>
<path d="M59.8199 7.38672H56.9199V8.71674H59.8199V7.38672Z" fill="#A3A3A3"/>
<path d="M56.9199 8.69922H54.4999V21.3692H56.9199V8.69922Z" fill="#A3A3A3"/>
<path d="M64.4099 0.648438V18.5084H64.4V21.3884H61.9899V0.648438H64.4099Z" fill="#A3A3A3"/>
<path d="M68.4699 19.0195H64.4099V21.3895H68.4699V19.0195Z" fill="#A3A3A3"/>
<path d="M77.3699 22.2C83.5003 22.2 88.4699 17.2304 88.4699 11.1C88.4699 4.96968 83.5003 0 77.3699 0C71.2396 0 66.27 4.96968 66.27 11.1C66.27 17.2304 71.2396 22.2 77.3699 22.2Z" fill="#A3A3A3"/>
<path d="M117.4 1.96173L100.29 19.0617L97.53 21.8217L95.84 20.1217L115.7 0.261719L117.4 1.96173Z" fill="#A3A3A3"/>
<path d="M96.1099 17.022L93.3799 19.762H93.3699L92.9299 20.202L91.2399 18.512L94.4199 15.332L96.1099 17.022Z" fill="#A3A3A3"/>
<path d="M95.03 15.9414L98.64 19.5514L99.2199 20.1314L97.53 21.8214L93.34 17.6314L95.03 15.9414Z" fill="#A3A3A3"/>
<path d="M88.8499 15.9219L92.46 19.5219L93.0399 20.1119L91.3499 21.8018L87.1599 17.6119L88.8499 15.9219Z" fill="#A3A3A3"/>
<path d="M118.65 34.0126V36.8826H123.69V40.6627H118.65V43.6226H123.96V47.4026H114.18V30.2227H123.96V34.0026H118.65V34.0126Z" fill="#A3A3A3"/>
<path d="M141 47.4105H135.44L131.22 40.8004H131.17V47.4105H126.7V30.2305H133.38C136.78 30.2305 139.35 31.8504 139.35 35.5204C139.35 37.8904 138.03 39.9404 135.59 40.3704L140.99 47.4105H141ZM131.18 37.9304H131.61C133.07 37.9304 134.71 37.6605 134.71 35.7905C134.71 33.9205 133.07 33.6505 131.61 33.6505H131.18V37.9304Z" fill="#A3A3A3"/>
<path d="M154.5 35.9912C153.59 34.7612 152.11 34.1013 150.58 34.1013C147.85 34.1013 146 36.2013 146 38.8613C146 41.5213 147.87 43.5312 150.65 43.5312C152.11 43.5312 153.57 42.8212 154.5 41.7112V47.0712C153.02 47.5312 151.95 47.8712 150.56 47.8712C148.17 47.8712 145.89 46.9612 144.11 45.3412C142.22 43.6312 141.35 41.4013 141.35 38.8513C141.35 36.5013 142.24 34.2512 143.88 32.5612C145.57 30.8312 148 29.7812 150.42 29.7812C151.86 29.7812 153.18 30.1012 154.5 30.6512V36.0112V35.9912Z" fill="#A3A3A3"/>
<path d="M161.72 34.0126V36.8826H166.76V40.6627H161.72V43.6226H167.03V47.4026H157.25V30.2227H167.03V34.0026H161.72V34.0126Z" fill="#A3A3A3"/>
<path d="M145.15 70.8012L112.32 38.3012H112.31L108.72 34.7112V34.7012L103.05 29.0312L92.6299 39.4512L89.1299 35.9512L87.9799 34.8112L87.9999 34.7913L82.33 29.1212L67.6799 43.7112L71.3699 47.4012L82.33 36.5012L92.65 46.8112L92.5499 46.7712L92.6299 46.8112L102.82 36.6412L141.23 74.7213L145.15 70.8012Z" fill="#A3A3A3"/>
<path d="M13.5999 42.252H4.86993C4.86993 43.942 5.75991 44.8521 7.46991 44.8521C8.35991 44.8521 8.99995 44.552 9.44995 43.782H13.4399C12.7799 46.542 10.1599 47.7921 7.48993 47.7921C3.61993 47.7921 0.71991 45.602 0.71991 41.572C0.71991 37.542 3.38994 35.332 7.18994 35.332C11.2499 35.332 13.59 37.842 13.59 41.822V42.252H13.5999ZM9.74994 39.8621C9.54994 38.7421 8.51996 38.012 7.39996 38.012C6.18996 38.012 5.18994 38.6521 4.93994 39.8621H9.74994Z" fill="#A3A3A3"/>
<path d="M27.8699 35.9912C26.9599 34.7612 25.48 34.1013 23.95 34.1013C21.22 34.1013 19.3699 36.2013 19.3699 38.8613C19.3699 41.5213 21.24 43.5312 24.02 43.5312C25.48 43.5312 26.9399 42.8212 27.8699 41.7112V47.0712C26.3899 47.5312 25.3199 47.8712 23.9299 47.8712C21.5399 47.8712 19.2599 46.9612 17.4799 45.3412C15.5899 43.6312 14.7199 41.4013 14.7199 38.8513C14.7199 36.5013 15.6099 34.2512 17.2499 32.5612C18.9399 30.8312 21.3699 29.7812 23.7899 29.7812C25.2299 29.7812 26.5499 30.1012 27.8699 30.6512V36.0112V35.9912Z" fill="#A3A3A3"/>
<path d="M48.77 38.5001C48.77 44.0601 44.78 47.9802 39.27 47.9802C33.76 47.9802 29.77 44.0601 29.77 38.5001C29.77 33.3001 34.33 29.6602 39.27 29.6602C44.21 29.6602 48.77 33.3101 48.77 38.5001ZM34.4099 38.5201C34.4099 41.4801 36.5999 43.6501 39.2599 43.6501C41.9199 43.6501 44.1099 41.4901 44.1099 38.5201C44.1099 36.1501 41.9199 33.9901 39.2599 33.9901C36.5999 33.9901 34.4099 36.1501 34.4099 38.5201Z" fill="#A3A3A3"/>
<path d="M52.7399 30.2188H57.14L60.6299 39.3987L64.3199 30.2188H68.7599L71.3599 47.3987H66.89L65.64 37.5087H65.59L61.4699 47.3987H59.6899L55.7499 37.5087H55.7L54.2599 47.3987H49.8199L52.7399 30.2188Z" fill="#A3A3A3"/>
</svg>
