<svg width="117" height="117" viewBox="0 0 117 117" fill="none" xmlns="http://www.w3.org/2000/svg">
<path d="M58.28 116.56C90.4672 116.56 116.56 90.4672 116.56 58.28C116.56 26.0928 90.4672 0 58.28 0C26.0928 0 0 26.0928 0 58.28C0 90.4672 26.0928 116.56 58.28 116.56Z" fill="#1474EC"/>
<path d="M74.91 62.5495L76.73 48.4095H62.72V39.3795C62.72 35.2795 63.87 32.4895 69.73 32.4895H77.22V19.8295C75.93 19.6595 71.49 19.2695 66.31 19.2695C55.51 19.2695 48.1201 25.8595 48.1201 37.9695V48.3995H35.9V62.5395H48.1201V98.8295H62.72V62.5395H74.9L74.91 62.5495Z" fill="white"/>
</svg>
