<svg width="111" height="111" viewBox="0 0 111 111" fill="none" xmlns="http://www.w3.org/2000/svg">
<g clip-path="url(#clip0_889_170)">
<path d="M111 55.8391C111 24.9949 86.1501 -0.0078125 55.5002 -0.0078125C24.8365 -0.000875 -0.0136719 24.9949 -0.0136719 55.846C-0.0136719 83.7139 20.2855 106.816 46.8145 111.006V71.9826H32.7313V55.846H46.8283V43.5319C46.8283 29.539 55.1186 21.8106 67.7935 21.8106C73.8707 21.8106 80.2185 22.8998 80.2185 22.8998V36.6361H73.2186C66.3296 36.6361 64.179 40.9442 64.179 45.3634V55.8391H79.5664L77.1105 71.9757H64.1721V110.999C90.7011 106.809 111 83.707 111 55.8391Z" fill="white"/>
</g>
<defs>
<clipPath id="clip0_889_170">
<rect width="111" height="111" fill="white"/>
</clipPath>
</defs>
</svg>
