<svg width="175" height="66" viewBox="0 0 175 66" fill="none" xmlns="http://www.w3.org/2000/svg">
<path d="M21.41 52.8659C19.57 54.7059 17.42 55.6259 14.98 55.6259C12.36 55.6259 10.12 54.6659 8.27002 52.7359C6.43002 50.8159 5.5 48.4759 5.5 45.7359C5.5 42.9959 6.42002 40.6859 8.27002 38.7459C10.11 36.8059 12.35 35.8359 14.98 35.8359C17.42 35.8359 19.65 36.8059 21.68 38.7559L20.3 40.0259C18.68 38.5359 16.9 37.7859 14.97 37.7859C12.87 37.7859 11.07 38.5659 9.58002 40.1159C8.09002 41.6659 7.34998 43.5359 7.34998 45.7359C7.34998 47.9359 8.10002 49.8159 9.58002 51.3759C11.07 52.9359 12.87 53.7059 14.97 53.7059C16.78 53.7059 18.31 53.1659 19.58 52.0959V46.226H21.4V52.856L21.41 52.8659Z" fill="#A3A3A3"/>
<path d="M32.7299 35.7969C35.3499 35.7969 37.59 36.7669 39.45 38.7069C41.3 40.6369 42.2299 42.9769 42.2299 45.7069C42.2299 48.4369 41.31 50.7969 39.45 52.7269C37.6 54.6569 35.3499 55.6269 32.7299 55.6269C30.1099 55.6269 27.88 54.6669 26.03 52.7269C24.17 50.7869 23.2499 48.4569 23.2499 45.7069C23.2499 42.9569 24.17 40.6369 26.03 38.7069C27.88 36.7669 30.1199 35.7969 32.7299 35.7969ZM32.7299 37.7369C30.6299 37.7369 28.84 38.5169 27.34 40.0769C25.85 41.6369 25.0999 43.5169 25.0999 45.7169C25.0999 47.9169 25.85 49.8069 27.34 51.3669C28.84 52.9269 30.6299 53.7169 32.7299 53.7169C34.8299 53.7169 36.64 52.9369 38.14 51.3669C39.63 49.8069 40.3799 47.9169 40.3799 45.7169C40.3799 43.5169 39.63 41.6369 38.14 40.0769C36.65 38.5169 34.8499 37.7369 32.7299 37.7369Z" fill="#A3A3A3"/>
<path d="M44.4999 55.4064V36.0664H46.33V53.4864H53.0699V55.4064H44.4999Z" fill="#A3A3A3"/>
<path d="M58.9 36.0686C61.92 36.0886 64.28 36.9786 65.96 38.7386C67.8 40.6786 68.7199 43.0186 68.7199 45.7286C68.7199 48.4386 67.8 50.8086 65.96 52.7386C64.28 54.4986 61.92 55.3886 58.9 55.3986H55.2V36.0586H58.9V36.0686ZM57.0399 38.0186V53.4686H58.89C61.31 53.4686 63.2199 52.7686 64.6099 51.3686C66.0899 49.8186 66.84 47.9386 66.84 45.7286C66.84 43.5186 66.0999 41.6586 64.6099 40.0986C63.2199 38.7086 61.31 38.0186 58.89 38.0186H57.0399Z" fill="#A3A3A3"/>
<path d="M80.6699 36.0664V37.9764H72.83V44.7764H80.6699V46.6964H72.83V53.4864H80.6699V55.4064H70.9899V36.0664H80.6699Z" fill="#A3A3A3"/>
<path d="M85.4399 36.0664L96.5599 52.3464V36.0664H98.4V55.4064H96.2399L85.39 39.5264V55.4064H83.5499V36.0664H85.4399Z" fill="#A3A3A3"/>
<path d="M113.08 49.0164V55.4064H111.24V36.0664H116.32C117.79 36.2664 119.03 36.8964 120.04 37.9564C121.24 39.2264 121.84 40.7464 121.84 42.5164C121.84 44.2864 121.24 45.8364 120.04 47.1064C118.83 48.3764 117.37 49.0064 115.66 49.0064H113.08V49.0164ZM113.08 37.9864V47.0764H115.66C116.86 47.0764 117.88 46.6264 118.74 45.7464C119.59 44.8564 120.02 43.7864 120.02 42.5264C120.02 41.2664 119.59 40.2064 118.74 39.3164C117.89 38.4264 116.86 37.9864 115.66 37.9864H113.08Z" fill="#A3A3A3"/>
<path d="M130.68 45.3864L128.58 39.3364L126.48 45.3864H130.68ZM129.39 36.0664L136.11 55.4064H134.17L131.34 47.2864H125.81L122.93 55.4064H120.97L127.77 36.0664H129.38H129.39Z" fill="#A3A3A3"/>
<path d="M151.9 51.4459L153.28 52.7459C151.25 54.6659 149.02 55.6259 146.58 55.6259C143.96 55.6259 141.72 54.6659 139.87 52.7359C138.03 50.8159 137.1 48.4759 137.1 45.7359C137.1 42.9959 138.02 40.6859 139.87 38.7459C141.71 36.8059 143.95 35.8359 146.58 35.8359C149.02 35.8359 151.25 36.8059 153.28 38.7559L151.9 40.0259C150.27 38.5359 148.5 37.7859 146.57 37.7859C144.47 37.7859 142.67 38.5659 141.18 40.1159C139.69 41.6659 138.95 43.5359 138.95 45.7359C138.95 47.9359 139.69 49.8159 141.18 51.3759C142.67 52.9359 144.47 53.7059 146.57 53.7059C148.5 53.7059 150.27 52.9559 151.9 51.4459Z" fill="#A3A3A3"/>
<path d="M164.9 36.0664L160.03 43.4364L168.04 55.4064H165.81L158.88 45.0664L157.4 47.2864V55.4064H155.56V36.0664H157.4V43.9564L162.67 36.0664H164.9Z" fill="#A3A3A3"/>
<path d="M107.2 60.918H3.66992V62.7579H107.2V60.918Z" fill="#A3A3A3"/>
<path d="M84.96 13.9372C84.65 13.7472 84.3199 13.5772 83.9799 13.4472C83.1799 13.1172 82.3699 12.9472 81.5499 12.9272C79.4699 12.8872 77.74 13.9172 77.15 15.5572C76.29 17.9172 77.96 20.8072 80.87 22.0072C81.2 22.1472 81.55 22.2573 81.9 22.3473C82.71 22.5373 85.32 22.6172 85.32 22.6172L94.81 22.8172L87.6599 16.1872C87.6599 16.1872 85.68 14.3772 84.95 13.9372H84.96ZM115.91 14.8373C114.92 12.5273 111.78 11.7173 108.92 13.0173C108.59 13.1673 108.27 13.3472 107.96 13.5472C107.26 13.9972 105.36 15.8772 105.36 15.8772L98.51 22.7472L108.05 22.1573C108.05 22.1573 110.67 21.9772 111.48 21.7472C111.83 21.6472 112.18 21.5172 112.51 21.3772C113.29 21.0172 113.99 20.5372 114.58 19.9472C116.08 18.4372 116.6 16.4273 115.92 14.8373H115.91ZM94.88 8.15727C94.79 7.78727 94.67 7.42726 94.53 7.08726C94.19 6.26726 93.7299 5.53722 93.1599 4.92722C91.7099 3.35722 89.79 2.81726 88.27 3.52726C86.06 4.55726 85.28 7.83726 86.53 10.8373C86.68 11.1773 86.8399 11.5173 87.0399 11.8373C87.4799 12.5673 89.27 14.5572 89.27 14.5572L95.84 21.7173L95.28 11.7472C95.28 11.7472 95.1 9.00727 94.89 8.15727H94.88ZM105.94 11.3973C106.12 11.0573 106.28 10.7172 106.41 10.3772C106.72 9.54724 106.89 8.69726 106.9 7.83726C106.94 5.66726 105.95 3.85722 104.39 3.23722C102.13 2.33722 99.3599 4.07723 98.2199 7.11723C98.0899 7.46723 97.98 7.82724 97.9 8.19724C97.72 9.03724 97.64 11.7773 97.64 11.7773L97.44 21.6872L103.79 14.2173C103.79 14.2173 105.52 12.1473 105.94 11.3973Z" fill="#A3A3A3"/>
<path d="M169.87 28.5977H66.34V30.5176H169.87V28.5977Z" fill="#A3A3A3"/>
</svg>
