<svg width="120" height="117" viewBox="0 0 120 117" fill="none" xmlns="http://www.w3.org/2000/svg">
<path d="M82.3476 112.043C111.82 99.7991 125.786 65.9815 113.542 36.5092C101.298 7.03697 67.4805 -6.92928 38.0083 5.3147C8.53601 17.5587 -5.43027 51.3763 6.81371 80.8486C19.0577 110.321 52.8754 124.287 82.3476 112.043Z" fill="#E2E2E2"/>
<path d="M38.9636 58.7352C38.9636 56.3158 39.3602 53.9957 40.084 51.8243L27.5412 42.2461C25.0922 47.2136 23.7239 52.8058 23.7239 58.7352C23.7239 64.6645 25.1021 70.2468 27.5412 75.2143L40.0741 65.6164C39.3602 63.4548 38.9636 61.1446 38.9636 58.7352Z" fill="#F2BA45"/>
<path d="M60.9855 36.7433C66.2406 36.7433 70.9801 38.6074 74.7082 41.6514L85.5555 30.824C78.9519 25.0731 70.4744 21.5234 60.9954 21.5234C46.2712 21.5234 33.6095 29.9514 27.5513 42.2562L40.094 51.8344C42.9794 43.0594 51.219 36.7533 60.9954 36.7533" fill="#DB493C"/>
<path d="M60.9851 80.7256C51.2087 80.7256 42.9692 74.4195 40.0838 65.6445L27.541 75.2226C33.5992 87.5275 46.261 95.9555 60.9851 95.9555C70.0774 95.9555 78.7533 92.7231 85.2677 86.6747L73.3594 77.4734C69.9982 79.5854 65.7742 80.7256 60.9851 80.7256Z" fill="#37A759"/>
<path d="M96.5613 58.7349C96.5613 56.5337 96.2242 54.1639 95.7185 51.9727H60.9854V66.3498H80.9745C79.9731 71.2479 77.2563 75.0257 73.3596 77.4747L85.2679 86.676C92.1094 80.3204 96.5613 70.8612 96.5613 58.7349Z" fill="#567BB8"/>
</svg>
