<svg width="153" height="154" viewBox="0 0 153 154" fill="none" xmlns="http://www.w3.org/2000/svg">
<path d="M98.5386 130.871C128.263 118.523 142.348 84.416 130 54.6918C117.651 24.9677 83.5445 10.8821 53.8203 23.2307C24.0962 35.5793 10.0105 69.686 22.3592 99.4101C34.7078 129.134 68.8145 143.22 98.5386 130.871Z" fill="#E2E2E2"/>
<path d="M54.7838 77.1066C54.7838 74.6666 55.1838 72.3266 55.9138 70.1366L43.2638 60.4766C40.7938 65.4866 39.4138 71.1266 39.4138 77.1066C39.4138 83.0866 40.8038 88.7166 43.2638 93.7266L55.9038 84.0466C55.1838 81.8666 54.7838 79.5366 54.7838 77.1066Z" fill="#F2BA45"/>
<path d="M76.9938 54.9281C82.2938 54.9281 87.0738 56.8081 90.8338 59.8781L101.774 48.9581C95.1138 43.1581 86.5638 39.5781 77.0038 39.5781C62.1538 39.5781 49.3838 48.0781 43.2738 60.4881L55.9238 70.1481C58.8338 61.2981 67.1438 54.9381 77.0038 54.9381" fill="#DB493C"/>
<path d="M76.9938 99.2881C67.1338 99.2881 58.8238 92.9281 55.9138 84.0781L43.2638 93.7381C49.3738 106.148 62.1438 114.648 76.9938 114.648C86.1638 114.648 94.9138 111.388 101.484 105.288L89.4738 96.0081C86.0838 98.1381 81.8238 99.2881 76.9938 99.2881Z" fill="#37A759"/>
<path d="M112.874 77.1091C112.874 74.8891 112.534 72.4991 112.024 70.2891H76.9938V84.7891H97.1538C96.1438 89.7291 93.4038 93.5391 89.4738 96.0091L101.484 105.289C108.384 98.8791 112.874 89.3391 112.874 77.1091Z" fill="#567BB8"/>
</svg>
