<svg width="183" height="80" viewBox="0 0 183 80" fill="none" xmlns="http://www.w3.org/2000/svg">
<path d="M16.36 65.7095C16.31 64.2495 15.4499 64.2395 14.5699 64.2795C13.0199 64.3395 12.81 63.5996 12.76 62.3296L12.74 61.8596C12.59 58.0596 12.6299 57.8196 14.8299 57.7396L21.54 57.4796C23.56 57.3996 23.6 58.3895 23.63 59.2795L24.1999 73.9196C24.3799 78.5196 19.83 78.6996 17.15 78.7996C9.69001 79.0896 1.44 76.0296 0.889996 62.1796C0.369996 48.7096 8.88001 45.2696 14.65 45.0496C19.53 44.8596 21.5199 45.2996 21.5799 46.7496L21.72 50.4595C21.75 51.3095 21.15 51.6096 20.4 51.6396C18.94 51.6896 17.46 51.1496 15.35 51.2296C9.38996 51.4596 9.00995 59.7995 9.08995 61.7195C9.23995 65.5695 10.21 72.2496 15 72.0696C15.94 72.0296 16.58 71.5395 16.51 69.8995L16.35 65.7195L16.36 65.7095Z" fill="#A3A3A3"/>
<path d="M40.42 44.1114C47.42 44.1614 49.35 49.2014 49.31 54.7414C49.28 58.1214 49.22 60.2814 46.53 62.5114C45.21 63.6314 44.36 62.9614 44.35 64.7514C44.34 66.6714 44.93 69.0314 46.48 69.0414C47.33 69.0414 47.84 68.8214 47.99 68.8214C49.49 68.8314 49.7199 70.1014 49.6999 72.2614C49.6999 73.2914 49.64 74.5614 49.62 75.9714C49.62 76.9114 49.23 77.7514 46.79 77.7314C42.47 77.7014 40.28 74.4914 39.42 71.0014C38.32 66.6214 36.92 65.8614 36.64 65.8614C36.26 65.8614 36.26 66.6114 36.26 66.9914L36.2099 73.6614C36.1999 75.5414 36.18 77.4214 33.36 77.4014L30.0699 77.3714C28.1899 77.3614 28.1999 75.4714 28.2199 73.6014L28.41 47.7714C28.42 45.8914 28.44 44.0114 31.26 44.0314L40.42 44.1014V44.1114ZM36.31 52.4414C36.31 53.0514 36.3399 54.1314 36.3399 55.1214C36.3399 56.0614 36.28 56.9114 36.28 57.4714C36.27 59.0214 36.55 59.3114 38.43 59.3214C40.55 59.3414 41.03 57.2714 41.04 55.1614C41.05 53.0514 40.6 50.4614 38.49 50.4414C36.61 50.4314 36.3299 50.7515 36.3199 52.4515L36.31 52.4414Z" fill="#A3A3A3"/>
<path d="M76.0798 74.8627C76.2198 77.0227 74.7799 77.3027 72.0999 77.4727L69.6199 77.6327C66.7099 77.8227 67.7199 70.6927 65.8499 70.8127L62.0999 71.0527C60.2299 71.1727 61.7498 78.1327 58.9398 78.3127L56.7399 78.4527C54.2999 78.6127 52.8398 78.5127 52.6998 76.3527C52.5198 73.5427 53.4899 70.9827 55.7599 48.8627C55.9799 46.4927 56.8298 45.0327 58.7098 44.9127L65.9299 44.4527C67.7999 44.3327 68.8298 45.6827 69.4498 47.9927C73.8598 67.0127 75.9199 72.0627 76.0999 74.8727L76.0798 74.8627ZM61.6499 63.2627C61.6999 64.0127 62.0299 63.9927 63.5199 63.8927C64.9799 63.8027 65.3499 63.7827 65.3099 63.0727C65.2999 62.8827 65.2798 62.6527 65.2198 62.3227C64.3698 57.7627 63.8199 52.1027 62.7899 52.1727C61.7999 52.2327 61.8299 57.8827 61.6599 62.5527C61.6299 62.8327 61.6499 63.0727 61.6599 63.2627H61.6499Z" fill="#A3A3A3"/>
<path d="M94.02 60.5105C94.16 60.5105 94.26 60.3704 94.27 60.0404L94.56 49.2404C94.61 47.3604 94.6599 45.4804 97.4799 45.5604L99.8299 45.6204C102.65 45.7004 102.6 47.5705 102.55 49.4505L101.86 75.2704C101.81 77.1504 101.76 79.0305 98.9399 78.9505C94.7099 78.8405 94.41 78.0704 93.79 76.6504L87.91 62.9104C87.77 62.6204 87.64 62.4304 87.55 62.4304C87.41 62.4304 87.3599 62.6104 87.3499 62.9004L87.0799 74.8805C87.0299 76.7605 86.98 78.6404 84.16 78.5604L81.81 78.5005C78.99 78.4205 79.0399 76.5504 79.0899 74.6704L79.78 48.8504C79.83 46.9704 79.8799 45.0904 82.6999 45.1704L85.1899 45.2404C86.7399 45.2804 87.25 45.4904 87.91 46.9604L93.6199 60.0404C93.7499 60.3704 93.89 60.5204 94.03 60.5204L94.02 60.5105Z" fill="#A3A3A3"/>
<path d="M116.15 44.2503C126.48 43.9803 128.06 50.5102 128.33 60.6102C128.58 70.2402 127.83 77.3102 117.03 77.5902L109.99 77.7802C107.17 77.8602 107.12 75.9702 107.08 74.1002L106.4 48.2802C106.35 46.4002 106.3 44.5203 109.12 44.4503L116.16 44.2603L116.15 44.2503ZM114.43 52.0902C114.57 57.3902 114.77 63.1702 114.91 68.7102C114.94 69.9302 115.07 71.0502 115.91 71.0302C119.43 70.9402 119.59 68.1202 119.4 60.6002C119.23 54.0302 118.9 50.5102 115.38 50.6002C114.53 50.6202 114.41 51.0903 114.43 52.0803V52.0902Z" fill="#A3A3A3"/>
<path d="M140.19 75.6902C140.14 77.5702 140.08 79.4502 137.26 79.3602L134.91 79.2902C132.09 79.2102 132.15 77.3302 132.2 75.4502L132.96 49.6302C133.01 47.7502 133.07 45.8701 135.89 45.9601L138.24 46.0301C141.06 46.1101 141 47.9902 140.95 49.8702L140.19 75.6902Z" fill="#A3A3A3"/>
<path d="M153.85 69.1013C153.99 70.1313 154.96 70.6013 155.9 70.5513C158.57 70.4213 159.46 70.2813 160.45 70.2313C162.42 70.1313 163.06 70.6713 163.13 72.0713L163.29 75.3513C163.36 76.7613 162.91 77.2513 161.5 77.3213L149.11 77.9213C146.3 78.0613 146.16 75.2413 146.11 74.3013L144.85 48.5013C144.76 46.6213 144.67 44.7513 147.48 44.6113L159.59 44.0212C160.76 43.9612 161.82 44.3813 161.86 45.3213L162.05 49.3113C162.1 50.4413 161.17 50.5312 159.99 50.5912C158.16 50.6812 156.7 50.6612 155.53 50.7112C152.95 50.8412 153 51.7812 153.07 53.2712C153.22 56.3212 153.26 57.1213 155.6 57.0013C158.51 56.8613 158.97 56.7413 160.05 56.6913C161.69 56.6113 161.86 58.2513 161.89 58.7613L162.04 61.7613C162.11 63.1713 161.13 63.3113 159.95 63.3713C157.56 63.4913 156.05 63.4713 155.06 63.5113C153.56 63.5813 153.59 64.2413 153.66 65.7913L153.82 69.0713L153.85 69.1013Z" fill="#A3A3A3"/>
<path d="M177.74 75.9611C177.63 77.7511 177.52 79.3911 174.89 79.3711L172.54 79.3511C169.72 79.3211 169.74 77.4511 169.75 75.5711L169.94 54.1111C169.94 52.9311 169.72 52.6512 168.73 52.6412C168.4 52.6412 167.93 52.6811 167.37 52.6711C166.19 52.6711 165.26 52.4611 165.27 51.3411L165.3 47.3511C165.3 46.4111 166.34 45.9511 167.52 45.9611L180.49 46.0711C181.67 46.0711 182.69 46.5611 182.69 47.5011L182.66 51.4911C182.66 52.6211 181.71 52.8011 180.54 52.7911C180.21 52.7911 179.79 52.7411 179.22 52.7311C178.04 52.7311 177.95 53.0011 177.94 54.1811L177.75 75.9711L177.74 75.9611Z" fill="#A3A3A3"/>
<path d="M87.6099 1.32999L88.1099 15.18C88.1299 15.7 88.5799 16.09 89.0999 16.04C89.6799 15.99 90.2599 15.96 90.8599 15.96C91.4599 15.96 92.0199 15.99 92.5899 16.04C93.1099 16.09 93.5499 15.69 93.5799 15.18L94.0799 1.32999C94.1099 0.669987 93.5999 0.109977 92.9399 0.0699768C92.2399 0.0299768 91.5299 0 90.8199 0C90.1099 0 89.45 0.0199976 88.77 0.0599976C88.11 0.0999976 87.5999 0.659977 87.6299 1.31998L87.6099 1.32999Z" fill="#A3A3A3"/>
<path d="M78.1099 11.7987L80.8 17.6787C81.02 18.1687 81.6099 18.3687 82.0899 18.1187C83.0999 17.5887 84.17 17.1387 85.28 16.7987C85.77 16.6487 86.0399 16.1087 85.8599 15.6187L83.5899 9.52871C83.3599 8.90871 82.68 8.58869 82.05 8.79869C80.89 9.18869 79.76 9.65869 78.68 10.1987C78.09 10.4887 77.8399 11.1987 78.1099 11.7987Z" fill="#A3A3A3"/>
<path d="M69.4899 8.87085C69.0399 8.39085 68.28 8.35083 67.79 8.79083C67.26 9.26083 66.7499 9.75086 66.2399 10.2509C65.7599 10.7309 65.2899 11.2308 64.8399 11.7408C64.3899 12.2508 64.44 12.9909 64.92 13.4409L75.0199 22.8308C75.4099 23.2008 76.0299 23.1508 76.3699 22.7408C77.0999 21.8608 77.91 21.0608 78.78 20.3308C79.19 19.9908 79.2399 19.3708 78.8699 18.9808L69.4799 8.88083L69.4899 8.87085Z" fill="#A3A3A3"/>
<path d="M65.5899 27.5218L71.6599 29.7718C72.1599 29.9618 72.7199 29.6818 72.8799 29.1718C73.2199 28.0718 73.6598 27.0318 74.1898 26.0318C74.4398 25.5518 74.2399 24.9618 73.7499 24.7418L67.8599 22.0518C67.2599 21.7818 66.5499 22.0218 66.2599 22.6118C65.7199 23.7018 65.2499 24.8318 64.8599 26.0018C64.6499 26.6218 64.9799 27.3018 65.5899 27.5318V27.5218Z" fill="#A3A3A3"/>
<path d="M57.4 31.5286C56.74 31.4986 56.18 32.0086 56.14 32.6586C56.1 33.3686 56.0699 34.0786 56.0699 34.7886C56.0699 35.2286 56.0699 35.6687 56.0999 36.0787C56.1299 36.8887 56.8099 37.5186 57.6099 37.5186H71.0699C71.5899 37.5186 71.9999 37.0986 71.9999 36.5886V34.8287V34.7986C71.9999 34.2186 72.0299 33.6386 72.0799 33.0686C72.1299 32.5286 71.72 32.0586 71.18 32.0386L57.39 31.5386L57.4 31.5286Z" fill="#A3A3A3"/>
<path d="M98.1 9.52871L95.84 15.6187C95.66 16.1087 95.92 16.6387 96.42 16.7987C97.53 17.1387 98.6 17.5887 99.61 18.1187C100.08 18.3687 100.67 18.1687 100.9 17.6787L103.59 11.7987C103.86 11.1987 103.61 10.4887 103.02 10.1987C101.93 9.65869 100.81 9.19869 99.64 8.79869C99.01 8.58869 98.33 8.90871 98.1 9.52871Z" fill="#A3A3A3"/>
<path d="M116.73 13.4901C117.21 13.0401 117.25 12.2801 116.81 11.7901C116.34 11.2601 115.85 10.7501 115.35 10.2401C114.87 9.75008 114.37 9.29008 113.86 8.83008C113.35 8.37008 112.61 8.43007 112.16 8.91007L102.82 18.9701C102.45 19.3601 102.5 19.9801 102.91 20.3201C103.79 21.0501 104.59 21.8601 105.33 22.7401C105.67 23.1501 106.29 23.2001 106.68 22.8301L116.73 13.4901Z" fill="#A3A3A3"/>
<path d="M113.85 22.0791L107.97 24.7691C107.48 24.9891 107.28 25.5791 107.53 26.0591C108.05 27.0591 108.49 28.1191 108.84 29.2091C109 29.7291 109.55 29.9991 110.06 29.8091L116.11 27.5591C116.72 27.3291 117.05 26.6591 116.85 26.0391C116.46 24.8691 115.99 23.7291 115.45 22.6391C115.16 22.0491 114.45 21.8091 113.85 22.0791Z" fill="#A3A3A3"/>
<path d="M124.21 31.6107L110.51 32.1107C109.97 32.1307 109.57 32.6007 109.61 33.1407C109.65 33.6807 109.69 34.2407 109.69 34.8107V34.8407V36.6707C109.69 37.1907 110.11 37.6007 110.62 37.6007H123.98C124.79 37.6007 125.46 36.9707 125.5 36.1607C125.52 35.7307 125.53 35.2707 125.53 34.8007C125.53 34.1107 125.51 33.4207 125.47 32.7407C125.43 32.0607 124.87 31.5807 124.21 31.6107Z" fill="#A3A3A3"/>
</svg>
