<svg width="485" height="135" viewBox="0 0 485 135" fill="none" xmlns="http://www.w3.org/2000/svg">
<path d="M83.2914 34.864C80.0941 31.9388 76.3186 29.7279 71.8968 28.2313C67.4751 26.7347 62.7472 25.9865 57.6792 25.9865C53.9036 25.9865 50.4003 26.4286 47.169 27.347C43.9377 28.2654 41.0124 29.4218 38.3934 30.8504C35.8083 32.279 33.5975 34.0136 31.7608 36.0204C29.9581 38.0272 28.5635 40.0681 27.6791 42.1429H27.305V0H0.0600586V105.612C0.0600586 139.286 27.305 132.279 27.305 132.279V72.8913C27.305 64.9661 29.3458 59.0137 33.4274 54.966C37.5091 50.9524 42.6111 48.9456 48.6995 48.9456C52.9852 48.9456 56.3186 49.6599 58.7336 51.0884C61.1485 52.517 62.9173 54.2857 64.0737 56.3605C65.2302 58.4353 65.9105 60.6463 66.1146 62.9932C66.3187 65.3401 66.4207 67.4831 66.4207 69.4218V132.313H93.6655V60.6803C93.6655 54.966 92.7132 49.9661 90.8424 45.6804C88.9717 41.3947 86.4206 37.7891 83.2574 34.864H83.2914ZM191.047 36.8028C186.251 32.5851 180.979 29.7279 175.264 28.2313C169.55 26.7347 164.176 25.9865 159.108 25.9865C151.591 25.9865 145.128 27.0068 139.754 29.0136C134.38 31.0204 129.822 33.6395 126.115 36.8028C122.407 40.0001 119.448 43.5374 117.271 47.517C115.06 51.4626 113.393 55.4083 112.203 59.2858C111.047 63.1634 110.298 66.8027 109.958 70.17C109.618 73.5374 109.482 76.2586 109.482 78.3334C109.482 88.9796 110.808 97.9253 113.461 105.204C116.115 112.483 119.754 118.299 124.38 122.721C128.972 127.143 134.448 130.272 140.74 132.177C147.033 134.048 153.802 135 161.081 135C165.502 135 169.992 134.456 174.618 133.333C179.21 132.245 183.598 130.374 187.747 127.789C191.897 125.204 195.638 121.803 198.938 117.585C202.237 113.367 204.822 108.129 206.625 101.905H178.598C177.543 105.68 175.332 108.503 171.897 110.374C168.461 112.245 164.856 113.197 161.081 113.197C155.638 113.197 151.319 112.245 148.121 110.374C144.924 108.503 142.543 106.191 140.911 103.47C139.278 100.748 138.223 97.9592 137.713 95.1021C137.203 92.2449 136.863 89.83 136.727 87.8912H207.781V83.0273C207.781 71.2246 206.183 61.5986 203.019 54.2176C199.822 46.8367 195.842 41.0205 191.047 36.8028ZM137.509 70.17C138.291 63.2993 140.4 57.9252 143.836 54.1157C147.271 50.3062 152.237 48.3674 158.734 48.3674C160.945 48.3674 163.223 48.7415 165.536 49.4218C167.883 50.1361 170.026 51.3266 171.965 53.0272C173.904 54.7279 175.604 56.9389 177.033 59.728C178.462 62.5171 179.38 65.9865 179.754 70.1362H137.509V70.17ZM480.503 124.286C479.346 122.211 478.768 118.129 478.768 112.007V55.9524C478.768 49.5918 477.305 44.4218 474.38 40.4762C471.455 36.5306 467.849 33.4694 463.564 31.3265C459.278 29.1837 454.754 27.7552 450.026 27.0409C445.298 26.3266 441.115 25.9865 437.475 25.9865C432.135 25.9865 426.897 26.3606 421.693 27.1429C416.489 27.9252 411.761 29.5919 407.475 32.1089C403.19 34.6259 399.584 38.2994 396.659 43.0953C393.734 47.8912 391.897 54.2517 391.115 62.1769H417.407C417.543 60.6123 417.849 59.0137 418.394 57.313C418.904 55.6123 419.754 54.0817 420.911 52.6531C422.067 51.2246 423.734 50.068 425.877 49.1496C428.02 48.2313 430.775 47.7892 434.142 47.7892C435.843 47.7892 437.747 47.8911 439.89 48.0952C442.033 48.2993 443.972 48.7755 445.741 49.5578C447.509 50.3401 448.972 51.5306 450.23 53.1632C451.455 54.7959 452.067 57.0409 452.067 59.864C452.067 62.6871 451.013 64.898 448.87 65.9864C446.727 67.0749 444.618 67.7893 442.543 68.0274L418.02 71.7347C413.734 72.381 409.754 73.5375 406.047 75.1361C402.339 76.7687 399.142 78.9456 396.421 81.6667C393.7 84.3877 391.591 87.6871 390.094 91.4966C388.598 95.3402 387.849 99.7619 387.849 104.83C387.849 110.136 388.768 114.728 390.571 118.538C392.373 122.381 394.788 125.51 397.781 127.993C400.775 130.476 404.142 132.245 407.917 133.333C411.693 134.422 415.503 135 419.414 135C424.074 135 428.156 134.524 431.591 133.537C435.026 132.551 438.088 131.361 440.741 129.932C443.394 128.503 445.707 126.871 447.645 125.068C449.584 123.265 451.353 121.565 452.918 120C453.054 121.429 453.19 122.653 453.292 123.708C453.428 124.762 453.598 125.68 453.768 126.531C453.972 127.381 454.176 128.265 454.448 129.15C454.72 130.068 455.026 131.088 455.435 132.279H484.822V128.197C483.122 127.687 481.693 126.395 480.537 124.32L480.503 124.286ZM452.101 95.1021C452.101 98.2313 451.387 101.054 449.958 103.571C448.53 106.088 446.693 108.231 444.414 110C442.135 111.769 439.55 113.129 436.625 114.082C433.7 115.068 430.741 115.544 427.781 115.544C426.489 115.544 425.094 115.34 423.598 114.966C422.101 114.592 420.741 113.912 419.516 112.925C418.292 111.939 417.237 110.646 416.387 109.048C415.537 107.415 415.128 105.442 415.128 103.095C415.128 100.238 415.605 97.8913 416.591 96.0886C417.577 94.2859 418.904 92.8232 420.571 91.7007C422.271 90.6123 424.21 89.7279 426.421 89.0816C428.632 88.4353 431.013 87.9253 433.632 87.5171C439.346 86.5987 443.496 85.7144 446.081 84.7961C448.666 83.8777 450.673 82.9251 452.101 81.8707V95.1021ZM358.224 0.680314H330.979V111.054C330.979 114.422 331.319 117.483 332.033 120.204C332.747 122.925 334.108 125.272 336.115 127.211C338.121 129.15 340.945 130.68 344.584 131.769C348.224 132.857 352.951 133.436 358.802 133.436H362.305C364.516 133.436 366.659 133.435 368.734 133.333C370.809 133.265 372.951 133.163 375.162 133.027V112.381C374.108 112.517 373.156 112.619 372.237 112.687C371.319 112.755 370.434 112.789 369.516 112.789C366.795 112.789 364.652 112.619 363.088 112.313C361.523 112.007 360.4 111.497 359.686 110.85C358.972 110.204 358.564 109.354 358.428 108.333C358.292 107.313 358.224 105.986 358.224 104.456V48.1974H375.162V28.7416H358.224V0.714257V0.680314ZM296.149 74.932C291.353 72.6531 286.115 70.9865 280.468 69.864C274.822 68.7756 269.584 67.6871 264.788 66.6667C259.992 65.6463 255.979 64.3877 252.815 62.9592C249.618 61.5306 248.053 59.4559 248.053 56.7348C248.053 55.5783 248.223 54.3878 248.53 53.2313C248.836 52.0748 249.584 50.9864 250.774 50.034C251.931 49.0476 253.632 48.2654 255.843 47.5851C258.053 46.9389 261.047 46.5986 264.788 46.5986C268.53 46.5986 271.387 46.9729 273.632 47.7552C275.911 48.5375 277.679 49.5578 278.972 50.8844C280.264 52.1769 281.217 53.6396 281.795 55.2723C282.373 56.9049 282.815 58.5374 283.053 60.2381H309.72C309.21 52.9592 307.407 47.1089 304.38 42.6191C301.319 38.1293 297.611 34.6599 293.189 32.2109C288.768 29.7619 283.938 28.0953 278.7 27.245C273.428 26.3946 268.292 25.9865 263.223 25.9865C255.162 25.9865 248.462 27.0749 243.087 29.2858C237.713 31.4967 233.394 34.2858 230.128 37.6531C226.897 41.0205 224.618 44.762 223.326 48.8436C222.033 52.9253 221.387 56.8707 221.387 60.6122C221.387 67.1088 222.985 72.245 226.149 76.0886C229.312 79.9321 233.291 82.9252 238.019 85.1361C242.747 87.347 247.917 89.0137 253.496 90.1022C259.074 91.1906 264.244 92.2791 268.972 93.2995C273.7 94.3539 277.679 95.6124 280.843 97.109C284.006 98.6056 285.605 100.782 285.605 103.64C285.605 104.694 285.332 105.816 284.822 107.041C284.312 108.265 283.428 109.422 282.203 110.442C280.979 111.497 279.21 112.381 276.931 113.163C274.652 113.946 271.761 114.32 268.258 114.32C259.686 114.32 253.802 112.891 250.536 110.034C247.305 107.177 245.672 103.537 245.672 99.1497H217.645C217.781 106.02 219.38 111.769 222.407 116.361C225.468 120.986 229.312 124.626 234.006 127.347C238.666 130.068 243.972 132.007 249.856 133.197C255.775 134.354 261.625 134.966 267.475 134.966C271.489 134.966 276.149 134.524 281.387 133.606C286.659 132.687 291.591 130.986 296.285 128.435C300.945 125.918 304.89 122.313 308.053 117.619C311.217 112.959 312.815 106.837 312.815 99.3197C312.815 92.9592 311.217 87.8572 308.053 84.0476C304.856 80.2381 300.877 77.1769 296.081 74.898L296.149 74.932Z" fill="#A3A3A3"/>
</svg>
