<svg width="120" height="117" viewBox="0 0 120 117" fill="none" xmlns="http://www.w3.org/2000/svg">
<path d="M101.631 99.6321C124.39 76.8723 124.39 39.9714 101.631 17.2117C78.8708 -5.54806 41.9699 -5.54806 19.2102 17.2117C-3.54957 39.9714 -3.54957 76.8723 19.2102 99.6321C41.9699 122.392 78.8708 122.392 101.631 99.6321Z" fill="url(#paint0_linear_874_844)"/>
<path d="M75.43 23H44.87C33.35 23 24 32.34 24 43.87V74.43C24 85.95 33.34 95.3 44.87 95.3H75.43C86.95 95.3 96.3 85.96 96.3 74.43V43.87C96.3 32.35 86.96 23 75.43 23ZM89.63 74.96C89.63 82.61 83.43 88.81 75.78 88.81H44.5C36.85 88.81 30.65 82.61 30.65 74.96V43.69C30.65 36.04 36.85 29.84 44.5 29.84H75.78C83.43 29.84 89.63 36.04 89.63 43.69V74.96Z" fill="white"/>
<path d="M60.1399 40.5703C49.7799 40.5703 41.3799 48.9703 41.3799 59.3303C41.3799 69.6903 49.7799 78.0903 60.1399 78.0903C70.4999 78.0903 78.8999 69.6903 78.8999 59.3303C78.8999 48.9703 70.4999 40.5703 60.1399 40.5703ZM60.1399 71.4803C53.4199 71.4803 47.9799 66.0403 47.9799 59.3203C47.9799 52.6003 53.4199 47.1603 60.1399 47.1603C66.8599 47.1603 72.2999 52.6003 72.2999 59.3203C72.2999 66.0403 66.8599 71.4803 60.1399 71.4803Z" fill="white"/>
<path d="M79.5302 35.4805C77.1202 35.4805 75.1602 37.4405 75.1602 39.8505C75.1602 42.2605 77.1202 44.2205 79.5302 44.2205C81.9402 44.2205 83.9001 42.2605 83.9001 39.8505C83.9001 37.4405 81.9402 35.4805 79.5302 35.4805Z" fill="white"/>
<defs>
<linearGradient id="paint0_linear_874_844" x1="31.2696" y1="108.912" x2="89.5596" y2="7.94226" gradientUnits="userSpaceOnUse">
<stop offset="0.02" stop-color="#FAB834"/>
<stop offset="0.08" stop-color="#F7AB33"/>
<stop offset="0.18" stop-color="#F18A33"/>
<stop offset="0.32" stop-color="#E65432"/>
<stop offset="0.45" stop-color="#DC1D32"/>
<stop offset="0.68" stop-color="#C13C8D"/>
<stop offset="1" stop-color="#5D63A9"/>
</linearGradient>
</defs>
</svg>
