<svg width="111" height="111" viewBox="0 0 111 111" fill="none" xmlns="http://www.w3.org/2000/svg">
<path d="M61.1167 0C67.351 0.016625 70.5153 0.049875 73.2474 0.127458L74.3224 0.16625C75.5638 0.210583 76.7885 0.266 78.2681 0.3325C84.1644 0.609583 88.1877 1.54058 91.7177 2.90938C95.3752 4.31696 98.4564 6.22329 101.538 9.29892C104.357 12.0683 106.537 15.4195 107.927 19.1188C109.296 22.6488 110.227 26.672 110.504 32.5739C110.57 34.048 110.626 35.2727 110.67 36.5196L110.703 37.5947C110.787 40.3212 110.82 43.4855 110.831 49.7198L110.836 53.8539V61.1135C110.85 65.1556 110.807 69.1977 110.709 73.2387L110.676 74.3138C110.631 75.5606 110.576 76.7853 110.51 78.2594C110.232 84.1613 109.29 88.179 107.927 91.7146C106.537 95.4138 104.357 98.7651 101.538 101.534C98.7682 104.353 95.4169 106.534 91.7177 107.924C88.1877 109.293 84.1644 110.224 78.2681 110.501L74.3224 110.667L73.2474 110.7C70.5153 110.778 67.351 110.817 61.1167 110.828L56.9826 110.833H49.7285C45.6846 110.848 41.6406 110.805 37.5978 110.706L36.5227 110.673C35.2072 110.623 33.892 110.566 32.5771 110.501C26.6807 110.224 22.6575 109.293 19.1219 107.924C15.4247 106.533 12.0754 104.353 9.30761 101.534C6.4866 98.7656 4.30409 95.4143 2.91253 91.7146C1.54374 88.1845 0.612735 84.1613 0.335652 78.2594L0.169402 74.3138L0.141694 73.2387C0.0395394 69.1978 -0.00664609 65.1557 0.00315208 61.1135V49.7198C-0.0121867 45.6777 0.0284565 41.6356 0.125069 37.5947L0.163861 36.5196C0.208194 35.2727 0.263611 34.048 0.330111 32.5739C0.607194 26.672 1.53819 22.6543 2.90699 19.1188C4.30179 15.418 6.48814 12.0666 9.31315 9.29892C12.0793 6.48125 15.4267 4.30074 19.1219 2.90938C22.6575 1.54058 26.6752 0.609583 32.5771 0.3325C34.0512 0.266 35.2814 0.210583 36.5227 0.16625L37.5978 0.133C41.6388 0.0345396 45.6809 -0.00795062 49.723 0.00554127L61.1167 0ZM55.4198 27.7083C48.0711 27.7083 41.0234 30.6276 35.8271 35.8239C30.6307 41.0202 27.7115 48.068 27.7115 55.4167C27.7115 62.7654 30.6307 69.8131 35.8271 75.0094C41.0234 80.2057 48.0711 83.125 55.4198 83.125C62.7685 83.125 69.8163 80.2057 75.0126 75.0094C80.2089 69.8131 83.1282 62.7654 83.1282 55.4167C83.1282 48.068 80.2089 41.0202 75.0126 35.8239C69.8163 30.6276 62.7685 27.7083 55.4198 27.7083ZM55.4198 38.7917C57.603 38.7913 59.765 39.221 61.7821 40.0561C63.7993 40.8913 65.6322 42.1155 67.1763 43.6591C68.7203 45.2026 69.9452 47.0351 70.781 49.052C71.6168 51.0689 72.0472 53.2307 72.0476 55.4139C72.048 57.5971 71.6183 59.759 70.7832 61.7762C69.948 63.7934 68.7237 65.6263 67.1802 67.1704C65.6367 68.7144 63.8042 69.9393 61.7873 70.7751C59.7704 71.6109 57.6086 72.0413 55.4254 72.0417C51.0161 72.0417 46.7875 70.2901 43.6697 67.1723C40.5519 64.0545 38.8004 59.8259 38.8004 55.4167C38.8004 51.0074 40.5519 46.7788 43.6697 43.661C46.7875 40.5432 51.0161 38.7917 55.4254 38.7917M84.5191 19.3958C82.6819 19.3958 80.92 20.1257 79.6209 21.4247C78.3218 22.7238 77.592 24.4857 77.592 26.3229C77.592 28.1601 78.3218 29.922 79.6209 31.2211C80.92 32.5202 82.6819 33.25 84.5191 33.25C86.3563 33.25 88.1182 32.5202 89.4173 31.2211C90.7164 29.922 91.4462 28.1601 91.4462 26.3229C91.4462 24.4857 90.7164 22.7238 89.4173 21.4247C88.1182 20.1257 86.3563 19.3958 84.5191 19.3958Z" fill="white"/>
</svg>
