<svg width="165" height="165" viewBox="0 0 165 165" fill="none" xmlns="http://www.w3.org/2000/svg">
<path d="M123.631 123.632C146.39 100.872 146.39 63.9714 123.631 41.2117C100.871 18.4519 63.9699 18.4519 41.2102 41.2117C18.4504 63.9714 18.4504 100.872 41.2102 123.632C63.9699 146.392 100.871 146.392 123.631 123.632Z" fill="url(#paint0_linear_805_5702)"/>
<path d="M97.7005 46.2734H67.1405C55.6205 46.2734 46.2705 55.6134 46.2705 67.1434V97.7034C46.2705 109.223 55.6105 118.573 67.1405 118.573H97.7005C109.221 118.573 118.57 109.233 118.57 97.7034V67.1434C118.57 55.6234 109.231 46.2734 97.7005 46.2734ZM111.901 98.2334C111.901 105.883 105.701 112.083 98.0505 112.083H66.7705C59.1205 112.083 52.9205 105.883 52.9205 98.2334V66.9634C52.9205 59.3134 59.1205 53.1134 66.7705 53.1134H98.0505C105.701 53.1134 111.901 59.3134 111.901 66.9634V98.2334Z" fill="white"/>
<path d="M82.4106 63.8438C72.0506 63.8438 63.6506 72.2438 63.6506 82.6038C63.6506 92.9638 72.0506 101.364 82.4106 101.364C92.7706 101.364 101.171 92.9638 101.171 82.6038C101.171 72.2438 92.7706 63.8438 82.4106 63.8438ZM82.4106 94.7538C75.6906 94.7538 70.2506 89.3137 70.2506 82.5938C70.2506 75.8738 75.6906 70.4338 82.4106 70.4338C89.1306 70.4338 94.5706 75.8738 94.5706 82.5938C94.5706 89.3137 89.1306 94.7538 82.4106 94.7538Z" fill="white"/>
<path d="M101.801 58.7539C99.3907 58.7539 97.4307 60.7139 97.4307 63.1239C97.4307 65.5339 99.3907 67.4939 101.801 67.4939C104.211 67.4939 106.171 65.5339 106.171 63.1239C106.171 60.7139 104.211 58.7539 101.801 58.7539Z" fill="white"/>
<defs>
<linearGradient id="paint0_linear_805_5702" x1="53.2696" y1="132.912" x2="111.56" y2="31.9423" gradientUnits="userSpaceOnUse">
<stop offset="0.02" stop-color="#FAB834"/>
<stop offset="0.08" stop-color="#F7AB33"/>
<stop offset="0.18" stop-color="#F18A33"/>
<stop offset="0.32" stop-color="#E65432"/>
<stop offset="0.45" stop-color="#DC1D32"/>
<stop offset="0.68" stop-color="#C13C8D"/>
<stop offset="1" stop-color="#5D63A9"/>
</linearGradient>
</defs>
</svg>
