<svg width="1336" height="425" viewBox="0 0 1336 425" fill="none" xmlns="http://www.w3.org/2000/svg">
<g clip-path="url(#clip0_805_9680)">
<path d="M498.35 107.191C433.163 107.191 380.286 160.024 380.286 225.255C380.286 290.486 433.119 343.319 498.35 343.319C563.581 343.319 616.414 290.486 616.414 225.255C616.414 160.024 563.581 107.191 498.35 107.191ZM498.35 297.934C458.222 297.934 425.672 265.384 425.672 225.255C425.672 185.127 458.222 152.577 498.35 152.577C538.479 152.577 571.028 185.127 571.028 225.255C571.028 265.384 538.479 297.934 498.35 297.934Z" fill="white"/>
<path d="M1082.8 107.191C1017.61 107.191 964.735 160.024 964.735 225.255C964.735 290.486 1017.57 343.319 1082.8 343.319C1148.03 343.319 1200.86 290.486 1200.86 225.255C1200.86 160.024 1148.03 107.191 1082.8 107.191ZM1082.8 297.934C1042.67 297.934 1010.12 265.384 1010.12 225.255C1010.12 185.127 1042.67 152.577 1082.8 152.577C1122.93 152.577 1155.48 185.127 1155.48 225.255C1155.48 265.384 1122.93 297.934 1082.8 297.934Z" fill="white"/>
<path d="M206.104 107.191C140.917 107.191 88.04 160.024 88.04 225.255V343.319H133.382V225.255C133.382 185.127 165.932 152.577 206.06 152.577C246.189 152.577 278.738 185.127 278.738 225.255V343.319H324.08V225.255C324.08 160.068 271.247 107.191 206.016 107.191H206.104Z" fill="white"/>
<path d="M863.231 42.043V132.332C843.167 116.605 817.977 107.186 790.553 107.186C725.366 107.186 672.489 160.019 672.489 225.25C672.489 290.481 725.322 343.314 790.553 343.314C855.784 343.314 908.617 290.481 908.617 225.25V42.043H863.275H863.231ZM790.553 297.928C750.424 297.928 717.875 265.379 717.875 225.25C717.875 185.121 750.424 152.572 790.553 152.572C830.681 152.572 863.231 185.121 863.231 225.25C863.231 265.379 830.681 297.928 790.553 297.928Z" fill="white"/>
<path d="M129.307 445.468C129.307 457.953 121.378 466.233 109.505 466.233C103.153 466.233 98.3779 463.21 95.6618 459.005V483.275H88.083V425.053L93.4275 424.79C94.0408 427.55 94.5665 432.632 94.4789 434.253H94.5666C96.8008 428.996 101.62 424.527 109.987 424.527C121.421 424.527 129.351 432.895 129.351 445.468H129.307ZM121.553 445.468C121.553 436.75 116.559 430.923 108.542 430.923C99.9115 430.923 95.6179 438.59 95.6179 444.592V446.213C95.6179 452.346 99.6486 459.837 109.067 459.837C116.646 459.837 121.553 454.054 121.553 445.468Z" fill="white"/>
<path d="M193.357 465.62C193.357 465.62 191.386 466.145 189.239 466.145C185.033 466.145 181.923 464.174 181.923 459.443V459.355H181.748C180.609 461.414 177.104 466.233 167.642 466.233C158.705 466.233 153.886 461.589 153.886 454.974C153.886 446.125 162.341 442.576 180.215 442.576H181.441V439.992C181.441 434.472 178.068 430.967 171.365 430.967C165.583 430.967 162.078 433.289 162.078 437.495C162.078 438.459 162.253 438.94 162.516 439.554L155.375 440.737C155.375 440.737 154.849 439.203 154.849 437.188C154.849 429.784 161.202 424.527 171.541 424.527C182.58 424.527 189.02 430.485 189.02 439.86V456.288C189.02 458.523 189.633 459.399 191.517 459.399C192.043 459.399 192.656 459.311 192.963 459.224L193.401 465.576L193.357 465.62ZM181.398 451.689V447.833H180.171C166.327 447.833 161.596 450.331 161.596 454.799C161.596 457.997 164.005 459.881 169.175 459.881C177.104 459.881 181.398 455.5 181.398 451.689Z" fill="white"/>
<path d="M223.495 416.997C220.559 416.997 218.237 414.851 218.237 411.915C218.237 408.98 220.559 406.746 223.495 406.746C226.43 406.746 228.839 408.98 228.839 411.915C228.839 414.851 226.43 416.997 223.495 416.997ZM219.464 425.058L227.131 424.795V465.712H219.464V425.058Z" fill="white"/>
<path d="M295.339 404.898V465.705L289.731 465.967C289.293 463.12 288.855 458.126 288.943 456.505H288.68C286.358 461.937 281.276 466.23 273.434 466.23C262 466.23 254.071 457.863 254.071 445.29C254.071 432.717 262.001 424.525 273.873 424.525C280.488 424.525 285.044 427.46 287.716 431.403V404.898H295.295H295.339ZM287.76 446.166V444.545C287.76 438.412 283.73 430.921 274.311 430.921C266.732 430.921 261.825 436.703 261.825 445.29C261.825 453.876 266.82 459.834 274.836 459.834C283.467 459.834 287.76 452.168 287.76 446.166Z" fill="white"/>
<path d="M426.108 440.996V465.704H418.441V440.996C418.441 435.038 415.068 431.095 408.978 431.095C401.312 431.095 397.544 438.586 397.544 444.457V465.704H389.878V440.996C389.878 435.038 386.504 431.095 380.415 431.095C372.749 431.095 368.981 438.586 368.981 444.457V465.704H361.402V425.049L366.747 424.787C367.448 427.897 367.798 432.453 367.798 434.249C369.857 429.08 374.326 424.699 381.73 424.699C388.958 424.699 394.215 428.335 396.361 434.162C398.508 428.992 402.977 424.699 410.293 424.699C420.018 424.699 426.151 431.227 426.151 440.952L426.108 440.996Z" fill="white"/>
<path d="M460.412 447.432C461.201 454.924 466.283 459.83 474.344 459.83C480.521 459.83 484.069 456.895 485.865 454.486L490.509 458.691C486.741 463.685 480.696 466.182 473.73 466.182C460.719 466.182 452.57 457.815 452.57 445.417C452.57 433.282 460.412 424.477 472.723 424.477C485.033 424.477 491.254 432.844 491.254 443.49C491.254 445.899 490.903 447.345 490.903 447.345H460.412V447.432ZM460.588 442H483.499C483.412 435.297 479.206 430.873 472.723 430.873C466.239 430.873 461.683 435.429 460.588 442Z" fill="white"/>
<path d="M556.791 404.898V465.705L551.184 465.967C550.746 463.12 550.308 458.126 550.395 456.505H550.132C547.81 461.937 542.729 466.23 534.887 466.23C523.453 466.23 515.523 457.863 515.523 445.29C515.523 432.804 523.453 424.525 535.325 424.525C541.94 424.525 546.496 427.46 549.169 431.403V404.898H556.747H556.791ZM549.212 446.166V444.545C549.212 438.412 545.182 430.921 535.763 430.921C528.184 430.921 523.278 436.703 523.278 445.29C523.278 454.008 528.272 459.834 536.289 459.834C544.919 459.834 549.212 452.168 549.212 446.166Z" fill="white"/>
<path d="M590.172 416.997C587.237 416.997 584.915 414.851 584.915 411.915C584.915 408.98 587.237 406.746 590.172 406.746C593.107 406.746 595.516 408.98 595.516 411.915C595.516 414.851 593.107 416.997 590.172 416.997ZM586.141 425.058L593.808 424.795V465.712H586.141V425.058Z" fill="white"/>
<path d="M660.353 465.62C660.353 465.62 658.382 466.145 656.235 466.145C652.029 466.145 648.919 464.174 648.919 459.443V459.355H648.744C647.605 461.414 644.1 466.233 634.638 466.233C625.701 466.233 620.882 461.589 620.882 454.974C620.882 446.125 629.337 442.576 647.211 442.576H648.438V439.992C648.438 434.472 645.064 430.967 638.361 430.967C632.579 430.967 629.074 433.289 629.074 437.495C629.074 438.459 629.249 438.94 629.512 439.554L622.371 440.737C622.371 440.737 621.845 439.203 621.845 437.188C621.845 429.784 628.198 424.527 638.537 424.527C649.577 424.527 656.016 430.485 656.016 439.86V456.288C656.016 458.523 656.629 459.399 658.513 459.399C659.039 459.399 659.653 459.311 659.959 459.224L660.397 465.576L660.353 465.62ZM648.394 451.689V447.833H647.167C633.323 447.833 628.592 450.331 628.592 454.799C628.592 457.997 631.002 459.881 636.171 459.881C644.1 459.881 648.394 455.5 648.394 451.689Z" fill="white"/>
<path d="M746.306 437.626C746.306 433.42 742.582 430.923 737.281 430.923C731.981 430.923 729.265 433.245 729.265 436.619C729.265 446.169 753.71 439.291 753.973 454.711C754.06 462.027 747.095 466.233 737.194 466.233C727.293 466.233 721.949 462.027 719.627 460.1L724.27 454.93C725.979 456.551 731.061 459.837 737.281 459.837C743.327 459.837 746.218 457.69 746.218 454.58C746.218 446.212 721.51 451.557 721.51 436.487C721.51 429.785 727.863 424.527 737.457 424.527C747.051 424.527 753.403 429.521 753.403 436.224C753.403 437.845 753.053 439.072 753.053 439.072L746.087 439.597C746.262 438.984 746.35 438.239 746.35 437.626H746.306Z" fill="white"/>
<path d="M820.298 445.555C820.298 457.866 811.931 466.233 799.358 466.233C786.785 466.233 778.417 457.866 778.417 445.555C778.417 433.245 786.785 424.527 799.358 424.527C811.931 424.527 820.298 433.245 820.298 445.555ZM812.544 445.555C812.544 437.1 807.287 430.923 799.358 430.923C791.428 430.923 786.171 437.1 786.171 445.555C786.171 454.01 791.428 459.837 799.358 459.837C807.287 459.837 812.544 453.967 812.544 445.555Z" fill="white"/>
<path d="M847.154 404.898H854.733V465.705H847.154V404.898Z" fill="white"/>
<path d="M976.999 463.56C976.999 463.56 972.969 466.232 966.31 466.232C955.796 466.232 951.59 460.624 951.59 450.198V431.185H945.15V425.052H951.59V413.004L959.257 412.566V425.052H975.028V431.185H959.257V449.935C959.257 456.462 961.579 459.748 967.098 459.748C971.83 459.748 974.59 457.426 974.59 457.426L976.999 463.56Z" fill="white"/>
<path d="M1005.08 416.997C1002.15 416.997 999.825 414.851 999.825 411.915C999.825 408.98 1002.15 406.746 1005.08 406.746C1008.02 406.746 1010.43 408.98 1010.43 411.915C1010.43 414.851 1008.02 416.997 1005.08 416.997ZM1001.05 425.058L1008.72 424.795V465.712H1001.05V425.058Z" fill="white"/>
<path d="M1077.41 445.555C1077.41 457.866 1069.04 466.233 1056.47 466.233C1043.9 466.233 1035.53 457.866 1035.53 445.555C1035.53 433.245 1043.9 424.527 1056.47 424.527C1069.04 424.527 1077.41 433.245 1077.41 445.555ZM1069.7 445.555C1069.7 437.1 1064.44 430.923 1056.51 430.923C1048.59 430.923 1043.33 437.1 1043.33 445.555C1043.33 454.01 1048.59 459.837 1056.51 459.837C1064.44 459.837 1069.7 453.967 1069.7 445.555Z" fill="white"/>
<path d="M1141.15 440.824V465.707H1133.49V440.824C1133.49 434.866 1130.11 430.923 1124.02 430.923C1115.57 430.923 1111.8 438.59 1111.8 444.46V465.707H1104.22V425.053L1109.57 424.79C1110.27 427.901 1110.62 432.457 1110.62 434.253H1110.88C1113.03 429.171 1117.58 424.527 1125.34 424.527C1135.06 424.527 1141.2 431.055 1141.2 440.78L1141.15 440.824Z" fill="white"/>
<path d="M1193.15 437.626C1193.15 433.42 1189.43 430.923 1184.13 430.923C1178.83 430.923 1176.11 433.245 1176.11 436.619C1176.11 446.169 1200.56 439.291 1200.82 454.711C1200.91 462.027 1193.94 466.233 1184.04 466.233C1174.05 466.233 1168.79 462.027 1166.47 460.1L1171.12 454.93C1172.82 456.551 1177.91 459.837 1184.13 459.837C1190.17 459.837 1193.06 457.69 1193.06 454.58C1193.06 446.212 1168.36 451.557 1168.36 436.487C1168.36 429.785 1174.71 424.527 1184.3 424.527C1193.9 424.527 1200.25 429.521 1200.25 436.224C1200.25 437.845 1199.9 439.072 1199.9 439.072L1192.93 439.597C1193.11 438.984 1193.2 438.239 1193.2 437.626H1193.15Z" fill="white"/>
</g>
<defs>
<clipPath id="clip0_805_9680">
<rect width="1336" height="425" fill="white"/>
</clipPath>
</defs>
</svg>
