<svg width="1336" height="335" viewBox="0 0 1336 335" fill="none" xmlns="http://www.w3.org/2000/svg">
<g clip-path="url(#clip0_5_1008)">
<path d="M498.349 79.1914C433.162 79.1914 380.285 132.024 380.285 197.255C380.285 262.486 433.118 315.319 498.349 315.319C563.58 315.319 616.413 262.486 616.413 197.255C616.413 132.024 563.58 79.1914 498.349 79.1914ZM498.349 269.934C458.221 269.934 425.671 237.384 425.671 197.255C425.671 157.127 458.221 124.577 498.349 124.577C538.478 124.577 571.027 157.127 571.027 197.255C571.027 237.384 538.478 269.934 498.349 269.934Z" fill="white"/>
<path d="M1082.8 79.1914C1017.61 79.1914 964.734 132.024 964.734 197.255C964.734 262.486 1017.57 315.319 1082.8 315.319C1148.03 315.319 1200.86 262.486 1200.86 197.255C1200.86 132.024 1148.03 79.1914 1082.8 79.1914ZM1082.8 269.934C1042.67 269.934 1010.12 237.384 1010.12 197.255C1010.12 157.127 1042.67 124.577 1082.8 124.577C1122.93 124.577 1155.48 157.127 1155.48 197.255C1155.48 237.384 1122.93 269.934 1082.8 269.934Z" fill="white"/>
<path d="M206.103 79.1914C140.916 79.1914 88.0391 132.024 88.0391 197.255V315.319H133.381V197.255C133.381 157.127 165.931 124.577 206.059 124.577C246.188 124.577 278.737 157.127 278.737 197.255V315.319H324.079V197.255C324.079 132.068 271.246 79.1914 206.015 79.1914H206.103Z" fill="white"/>
<path d="M863.23 14.043V104.332C843.166 88.6049 817.976 79.1861 790.552 79.1861C725.365 79.1861 672.488 132.019 672.488 197.25C672.488 262.481 725.321 315.314 790.552 315.314C855.783 315.314 908.616 262.481 908.616 197.25V14.043H863.274H863.23ZM790.552 269.928C750.423 269.928 717.874 237.379 717.874 197.25C717.874 157.121 750.423 124.572 790.552 124.572C830.68 124.572 863.23 157.121 863.23 197.25C863.23 237.379 830.68 269.928 790.552 269.928Z" fill="white"/>
</g>
<defs>
<clipPath id="clip0_5_1008">
<rect width="1336" height="335" fill="white"/>
</clipPath>
</defs>
</svg>
