<svg width="111" height="111" viewBox="0 0 111 111" fill="none" xmlns="http://www.w3.org/2000/svg">
<path d="M23.2949 15.5607C23.2933 18.6252 22.0647 21.5637 19.8793 23.7296C17.6939 25.8954 14.7307 27.1114 11.6416 27.1098C8.55252 27.1083 5.59056 25.8894 3.40734 23.7214C1.22411 21.5533 -0.00154309 18.6137 1.45803e-06 15.5491C0.001546 12.4846 1.23016 9.54615 3.41557 7.38027C5.60098 5.21439 8.56416 3.99847 11.6533 4C14.7423 4.00153 17.7043 5.22039 19.8875 7.38844C22.0708 9.55649 23.2964 12.4961 23.2949 15.5607ZM23.6443 35.6662H0.349424V108H23.6443V35.6662ZM60.4502 35.6662H37.2718V108H60.2172V70.0421C60.2172 48.8966 87.9963 46.9323 87.9963 70.0421V108H111V62.1848C111 26.5379 69.8846 27.8667 60.2172 45.3724L60.4502 35.6662Z" fill="white"/>
</svg>
