<svg width="117" height="117" viewBox="0 0 117 117" fill="none" xmlns="http://www.w3.org/2000/svg">
<path d="M58.28 116.56C90.4672 116.56 116.56 90.4672 116.56 58.28C116.56 26.0928 90.4672 0 58.28 0C26.0928 0 0 26.0928 0 58.28C0 90.4672 26.0928 116.56 58.28 116.56Z" fill="#0077B8"/>
<path d="M28.8501 44.6883H42.11V87.3383H28.8501V44.6883ZM35.4901 23.4883C39.7301 23.4883 43.17 26.9383 43.17 31.1783C43.17 35.4183 39.7301 38.8583 35.4901 38.8583C31.2501 38.8583 27.8101 35.4183 27.8101 31.1783C27.8101 26.9383 31.2401 23.4883 35.4901 23.4883Z" fill="white"/>
<path d="M50.4301 44.6889H63.1501V50.5189H63.33C65.1 47.1589 69.4201 43.6289 75.8701 43.6289C89.3001 43.6289 91.7701 52.4589 91.7701 63.9389V87.3289H78.5201V66.5889C78.5201 61.6389 78.4401 55.2789 71.6301 55.2789C64.8201 55.2789 63.6801 60.6689 63.6801 66.2389V87.3389H50.4301V44.6889Z" fill="white"/>
</svg>
