<svg width="1336" height="669" viewBox="0 0 1336 669" fill="none" xmlns="http://www.w3.org/2000/svg">
<path d="M498.35 191.734C433.163 191.734 380.286 244.567 380.286 309.798C380.286 375.029 433.119 427.862 498.35 427.862C563.581 427.862 616.414 375.029 616.414 309.798C616.414 244.567 563.581 191.734 498.35 191.734ZM498.35 382.477C458.222 382.477 425.672 349.927 425.672 309.798C425.672 269.67 458.222 237.12 498.35 237.12C538.479 237.12 571.028 269.67 571.028 309.798C571.028 349.927 538.479 382.477 498.35 382.477Z" fill="#0040B2"/>
<path d="M1082.8 191.734C1017.61 191.734 964.735 244.567 964.735 309.798C964.735 375.029 1017.57 427.862 1082.8 427.862C1148.03 427.862 1200.86 375.029 1200.86 309.798C1200.86 244.567 1148.03 191.734 1082.8 191.734ZM1082.8 382.477C1042.67 382.477 1010.12 349.927 1010.12 309.798C1010.12 269.67 1042.67 237.12 1082.8 237.12C1122.93 237.12 1155.48 269.67 1155.48 309.798C1155.48 349.927 1122.93 382.477 1082.8 382.477Z" fill="#0040B2"/>
<path d="M206.104 191.734C140.917 191.734 88.04 244.567 88.04 309.798V427.862H133.382V309.798C133.382 269.67 165.932 237.12 206.06 237.12C246.189 237.12 278.738 269.67 278.738 309.798V427.862H324.08V309.798C324.08 244.611 271.247 191.734 206.016 191.734H206.104Z" fill="#0040B2"/>
<path d="M863.231 126.59V216.879C843.167 201.152 817.977 191.733 790.553 191.733C725.366 191.733 672.489 244.566 672.489 309.797C672.489 375.028 725.322 427.861 790.553 427.861C855.784 427.861 908.617 375.028 908.617 309.797V126.59H863.275H863.231ZM790.553 382.475C750.424 382.475 717.875 349.925 717.875 309.797C717.875 269.668 750.424 237.119 790.553 237.119C830.681 237.119 863.231 269.668 863.231 309.797C863.231 349.925 830.681 382.475 790.553 382.475Z" fill="#0040B2"/>
<path d="M129.307 530.015C129.307 542.5 121.378 550.78 109.505 550.78C103.153 550.78 98.3779 547.757 95.6618 543.551V567.822H88.083V509.6L93.4275 509.337C94.0408 512.097 94.5665 517.179 94.4789 518.8H94.5666C96.8008 513.543 101.62 509.074 109.987 509.074C121.421 509.074 129.351 517.442 129.351 530.015H129.307ZM121.553 530.015C121.553 521.297 116.559 515.47 108.542 515.47C99.9115 515.47 95.6179 523.137 95.6179 529.139V530.759C95.6179 536.893 99.6486 544.384 109.067 544.384C116.646 544.384 121.553 538.601 121.553 530.015Z" fill="#0040B2"/>
<path d="M193.357 550.167C193.357 550.167 191.386 550.692 189.239 550.692C185.033 550.692 181.923 548.721 181.923 543.99V543.902H181.748C180.609 545.961 177.104 550.78 167.642 550.78C158.705 550.78 153.886 546.136 153.886 539.521C153.886 530.672 162.341 527.123 180.215 527.123H181.441V524.539C181.441 519.019 178.068 515.514 171.365 515.514C165.583 515.514 162.078 517.836 162.078 522.042C162.078 523.005 162.253 523.487 162.516 524.1L155.375 525.283C155.375 525.283 154.849 523.75 154.849 521.735C154.849 514.331 161.202 509.074 171.541 509.074C182.58 509.074 189.02 515.032 189.02 524.407V540.835C189.02 543.07 189.633 543.946 191.517 543.946C192.043 543.946 192.656 543.858 192.963 543.77L193.401 550.123L193.357 550.167ZM181.398 536.236V532.38H180.171C166.327 532.38 161.596 534.878 161.596 539.346C161.596 542.544 164.005 544.428 169.175 544.428C177.104 544.428 181.398 540.047 181.398 536.236Z" fill="#0040B2"/>
<path d="M223.495 501.544C220.559 501.544 218.237 499.398 218.237 496.462C218.237 493.527 220.559 491.293 223.495 491.293C226.43 491.293 228.839 493.527 228.839 496.462C228.839 499.398 226.43 501.544 223.495 501.544ZM219.464 509.605L227.131 509.342V550.259H219.464V509.605Z" fill="#0040B2"/>
<path d="M295.339 489.445V550.251L289.731 550.514C289.293 547.667 288.855 542.672 288.943 541.052H288.68C286.358 546.484 281.276 550.777 273.434 550.777C262 550.777 254.071 542.41 254.071 529.837C254.071 517.264 262.001 509.071 273.873 509.071C280.488 509.071 285.044 512.007 287.716 515.949V489.445H295.295H295.339ZM287.76 530.713V529.092C287.76 522.959 283.73 515.468 274.311 515.468C266.732 515.468 261.825 521.25 261.825 529.837C261.825 538.423 266.82 544.381 274.836 544.381C283.467 544.381 287.76 536.715 287.76 530.713Z" fill="#0040B2"/>
<path d="M426.108 525.543V550.251H418.441V525.543C418.441 519.585 415.068 515.642 408.978 515.642C401.312 515.642 397.544 523.133 397.544 529.003V550.251H389.878V525.543C389.878 519.585 386.504 515.642 380.415 515.642C372.749 515.642 368.981 523.133 368.981 529.003V550.251H361.402V509.596L366.747 509.334C367.448 512.444 367.798 517 367.798 518.796C369.857 513.627 374.326 509.246 381.73 509.246C388.958 509.246 394.215 512.882 396.361 518.709C398.508 513.539 402.977 509.246 410.293 509.246C420.018 509.246 426.151 515.773 426.151 525.499L426.108 525.543Z" fill="#0040B2"/>
<path d="M460.412 531.979C461.201 539.471 466.283 544.377 474.344 544.377C480.521 544.377 484.069 541.442 485.865 539.032L490.509 543.238C486.741 548.232 480.696 550.729 473.73 550.729C460.719 550.729 452.57 542.362 452.57 529.964C452.57 517.829 460.412 509.023 472.723 509.023C485.033 509.023 491.254 517.391 491.254 528.036C491.254 530.446 490.903 531.892 490.903 531.892H460.412V531.979ZM460.588 526.547H483.499C483.412 519.844 479.206 515.42 472.723 515.42C466.239 515.42 461.683 519.976 460.588 526.547Z" fill="#0040B2"/>
<path d="M556.791 489.445V550.251L551.184 550.514C550.746 547.667 550.308 542.672 550.395 541.052H550.132C547.81 546.484 542.729 550.777 534.887 550.777C523.453 550.777 515.523 542.41 515.523 529.837C515.523 517.351 523.453 509.071 535.325 509.071C541.94 509.071 546.496 512.007 549.169 515.949V489.445H556.747H556.791ZM549.212 530.713V529.092C549.212 522.959 545.182 515.468 535.763 515.468C528.184 515.468 523.278 521.25 523.278 529.837C523.278 538.554 528.272 544.381 536.289 544.381C544.919 544.381 549.212 536.715 549.212 530.713Z" fill="#0040B2"/>
<path d="M590.172 501.544C587.237 501.544 584.915 499.398 584.915 496.462C584.915 493.527 587.237 491.293 590.172 491.293C593.107 491.293 595.516 493.527 595.516 496.462C595.516 499.398 593.107 501.544 590.172 501.544ZM586.141 509.605L593.808 509.342V550.259H586.141V509.605Z" fill="#0040B2"/>
<path d="M660.353 550.167C660.353 550.167 658.382 550.692 656.235 550.692C652.029 550.692 648.919 548.721 648.919 543.99V543.902H648.744C647.605 545.961 644.1 550.78 634.638 550.78C625.701 550.78 620.882 546.136 620.882 539.521C620.882 530.672 629.337 527.123 647.211 527.123H648.438V524.539C648.438 519.019 645.064 515.514 638.361 515.514C632.579 515.514 629.074 517.836 629.074 522.042C629.074 523.005 629.249 523.487 629.512 524.1L622.371 525.283C622.371 525.283 621.845 523.75 621.845 521.735C621.845 514.331 628.198 509.074 638.537 509.074C649.577 509.074 656.016 515.032 656.016 524.407V540.835C656.016 543.07 656.629 543.946 658.513 543.946C659.039 543.946 659.653 543.858 659.959 543.77L660.397 550.123L660.353 550.167ZM648.394 536.236V532.38H647.167C633.323 532.38 628.592 534.878 628.592 539.346C628.592 542.544 631.002 544.428 636.171 544.428C644.1 544.428 648.394 540.047 648.394 536.236Z" fill="#0040B2"/>
<path d="M746.306 522.173C746.306 517.967 742.582 515.47 737.281 515.47C731.981 515.47 729.265 517.792 729.265 521.165C729.265 530.716 753.71 523.838 753.973 539.258C754.06 546.574 747.095 550.78 737.194 550.78C727.293 550.78 721.949 546.574 719.627 544.647L724.27 539.477C725.979 541.098 731.061 544.384 737.281 544.384C743.327 544.384 746.218 542.237 746.218 539.127C746.218 530.759 721.51 536.104 721.51 521.034C721.51 514.331 727.863 509.074 737.457 509.074C747.051 509.074 753.403 514.068 753.403 520.771C753.403 522.392 753.053 523.619 753.053 523.619L746.087 524.144C746.262 523.531 746.35 522.786 746.35 522.173H746.306Z" fill="#0040B2"/>
<path d="M820.298 530.102C820.298 542.412 811.931 550.78 799.358 550.78C786.785 550.78 778.417 542.412 778.417 530.102C778.417 517.792 786.785 509.074 799.358 509.074C811.931 509.074 820.298 517.792 820.298 530.102ZM812.544 530.102C812.544 521.647 807.287 515.47 799.358 515.47C791.428 515.47 786.171 521.647 786.171 530.102C786.171 538.557 791.428 544.384 799.358 544.384C807.287 544.384 812.544 538.513 812.544 530.102Z" fill="#0040B2"/>
<path d="M847.154 489.445H854.733V550.251H847.154V489.445Z" fill="#0040B2"/>
<path d="M919.654 509.605V550.26L914.134 550.523C913.433 547.412 913.083 542.856 913.083 541.892H912.995C910.761 546.799 906.468 550.742 899.458 550.742C889.733 550.742 883.6 544.214 883.6 534.489V509.605H891.266V534.489C891.266 540.447 894.639 544.389 900.729 544.389C908.22 544.389 911.987 536.723 911.987 530.853V509.605H919.567H919.654Z" fill="#0040B2"/>
<path d="M976.999 548.106C976.999 548.106 972.969 550.779 966.31 550.779C955.796 550.779 951.59 545.171 951.59 534.745V515.732H945.15V509.599H951.59V497.551L959.257 497.113V509.599H975.028V515.732H959.257V534.482C959.257 541.009 961.579 544.295 967.098 544.295C971.83 544.295 974.59 541.973 974.59 541.973L976.999 548.106Z" fill="#0040B2"/>
<path d="M1005.08 501.544C1002.15 501.544 999.825 499.398 999.825 496.462C999.825 493.527 1002.15 491.293 1005.08 491.293C1008.02 491.293 1010.43 493.527 1010.43 496.462C1010.43 499.398 1008.02 501.544 1005.08 501.544ZM1001.05 509.605L1008.72 509.342V550.259H1001.05V509.605Z" fill="#0040B2"/>
<path d="M1077.41 530.102C1077.41 542.412 1069.04 550.78 1056.47 550.78C1043.9 550.78 1035.53 542.412 1035.53 530.102C1035.53 517.792 1043.9 509.074 1056.47 509.074C1069.04 509.074 1077.41 517.792 1077.41 530.102ZM1069.7 530.102C1069.7 521.647 1064.44 515.47 1056.51 515.47C1048.59 515.47 1043.33 521.647 1043.33 530.102C1043.33 538.557 1048.59 544.384 1056.51 544.384C1064.44 544.384 1069.7 538.513 1069.7 530.102Z" fill="#0040B2"/>
<path d="M1141.15 525.371V550.254H1133.49V525.371C1133.49 519.413 1130.11 515.47 1124.02 515.47C1115.57 515.47 1111.8 523.137 1111.8 529.007V550.254H1104.22V509.6L1109.57 509.337C1110.27 512.447 1110.62 517.004 1110.62 518.8H1110.88C1113.03 513.718 1117.58 509.074 1125.34 509.074C1135.06 509.074 1141.2 515.602 1141.2 525.327L1141.15 525.371Z" fill="#0040B2"/>
<path d="M1193.15 522.173C1193.15 517.967 1189.43 515.47 1184.13 515.47C1178.83 515.47 1176.11 517.792 1176.11 521.165C1176.11 530.716 1200.56 523.838 1200.82 539.258C1200.91 546.574 1193.94 550.78 1184.04 550.78C1174.05 550.78 1168.79 546.574 1166.47 544.647L1171.12 539.477C1172.82 541.098 1177.91 544.384 1184.13 544.384C1190.17 544.384 1193.06 542.237 1193.06 539.127C1193.06 530.759 1168.36 536.104 1168.36 521.034C1168.36 514.331 1174.71 509.074 1184.3 509.074C1193.9 509.074 1200.25 514.068 1200.25 520.771C1200.25 522.392 1199.9 523.619 1199.9 523.619L1192.93 524.144C1193.11 523.531 1193.2 522.786 1193.2 522.173H1193.15Z" fill="#0040B2"/>
</svg>
