<svg width="1336" height="669" viewBox="0 0 1336 669" fill="none" xmlns="http://www.w3.org/2000/svg">
<path d="M498.35 164.191C433.163 164.191 380.286 217.024 380.286 282.255C380.286 347.486 433.119 400.319 498.35 400.319C563.581 400.319 616.414 347.486 616.414 282.255C616.414 217.024 563.581 164.191 498.35 164.191ZM498.35 354.934C458.222 354.934 425.672 322.384 425.672 282.255C425.672 242.127 458.222 209.577 498.35 209.577C538.479 209.577 571.028 242.127 571.028 282.255C571.028 322.384 538.479 354.934 498.35 354.934Z" fill="white"/>
<path d="M1082.8 164.191C1017.61 164.191 964.735 217.024 964.735 282.255C964.735 347.486 1017.57 400.319 1082.8 400.319C1148.03 400.319 1200.86 347.486 1200.86 282.255C1200.86 217.024 1148.03 164.191 1082.8 164.191ZM1082.8 354.934C1042.67 354.934 1010.12 322.384 1010.12 282.255C1010.12 242.127 1042.67 209.577 1082.8 209.577C1122.93 209.577 1155.48 242.127 1155.48 282.255C1155.48 322.384 1122.93 354.934 1082.8 354.934Z" fill="white"/>
<path d="M206.104 164.191C140.917 164.191 88.04 217.024 88.04 282.255V400.319H133.382V282.255C133.382 242.127 165.932 209.577 206.06 209.577C246.189 209.577 278.738 242.127 278.738 282.255V400.319H324.08V282.255C324.08 217.068 271.247 164.191 206.016 164.191H206.104Z" fill="white"/>
<path d="M863.231 99.043V189.332C843.167 173.605 817.977 164.186 790.553 164.186C725.366 164.186 672.489 217.019 672.489 282.25C672.489 347.481 725.322 400.314 790.553 400.314C855.784 400.314 908.617 347.481 908.617 282.25V99.043H863.275H863.231ZM790.553 354.928C750.424 354.928 717.875 322.379 717.875 282.25C717.875 242.121 750.424 209.572 790.553 209.572C830.681 209.572 863.231 242.121 863.231 282.25C863.231 322.379 830.681 354.928 790.553 354.928Z" fill="white"/>
<path d="M129.307 502.468C129.307 514.953 121.378 523.233 109.505 523.233C103.153 523.233 98.3779 520.21 95.6618 516.005V540.275H88.083V482.053L93.4275 481.79C94.0408 484.55 94.5665 489.632 94.4789 491.253H94.5666C96.8008 485.996 101.62 481.527 109.987 481.527C121.421 481.527 129.351 489.895 129.351 502.468H129.307ZM121.553 502.468C121.553 493.75 116.559 487.923 108.542 487.923C99.9115 487.923 95.6179 495.59 95.6179 501.592V503.213C95.6179 509.346 99.6486 516.837 109.067 516.837C116.646 516.837 121.553 511.054 121.553 502.468Z" fill="white"/>
<path d="M193.357 522.62C193.357 522.62 191.386 523.145 189.239 523.145C185.033 523.145 181.923 521.174 181.923 516.443V516.355H181.748C180.609 518.414 177.104 523.233 167.642 523.233C158.705 523.233 153.886 518.589 153.886 511.974C153.886 503.125 162.341 499.576 180.215 499.576H181.441V496.992C181.441 491.472 178.068 487.967 171.365 487.967C165.583 487.967 162.078 490.289 162.078 494.495C162.078 495.459 162.253 495.94 162.516 496.554L155.375 497.737C155.375 497.737 154.849 496.203 154.849 494.188C154.849 486.784 161.202 481.527 171.541 481.527C182.58 481.527 189.02 487.485 189.02 496.86V513.288C189.02 515.523 189.633 516.399 191.517 516.399C192.043 516.399 192.656 516.311 192.963 516.224L193.401 522.576L193.357 522.62ZM181.398 508.689V504.833H180.171C166.327 504.833 161.596 507.331 161.596 511.799C161.596 514.997 164.005 516.881 169.175 516.881C177.104 516.881 181.398 512.5 181.398 508.689Z" fill="white"/>
<path d="M223.495 473.997C220.559 473.997 218.237 471.851 218.237 468.915C218.237 465.98 220.559 463.746 223.495 463.746C226.43 463.746 228.839 465.98 228.839 468.915C228.839 471.851 226.43 473.997 223.495 473.997ZM219.464 482.058L227.131 481.795V522.712H219.464V482.058Z" fill="white"/>
<path d="M295.339 461.898V522.705L289.731 522.967C289.293 520.12 288.855 515.126 288.943 513.505H288.68C286.358 518.937 281.276 523.23 273.434 523.23C262 523.23 254.071 514.863 254.071 502.29C254.071 489.717 262.001 481.525 273.873 481.525C280.488 481.525 285.044 484.46 287.716 488.403V461.898H295.295H295.339ZM287.76 503.166V501.545C287.76 495.412 283.73 487.921 274.311 487.921C266.732 487.921 261.825 493.703 261.825 502.29C261.825 510.876 266.82 516.834 274.836 516.834C283.467 516.834 287.76 509.168 287.76 503.166Z" fill="white"/>
<path d="M426.108 497.996V522.704H418.441V497.996C418.441 492.038 415.068 488.095 408.978 488.095C401.312 488.095 397.544 495.586 397.544 501.457V522.704H389.878V497.996C389.878 492.038 386.504 488.095 380.415 488.095C372.749 488.095 368.981 495.586 368.981 501.457V522.704H361.402V482.049L366.747 481.787C367.448 484.897 367.798 489.453 367.798 491.249C369.857 486.08 374.326 481.699 381.73 481.699C388.958 481.699 394.215 485.335 396.361 491.162C398.508 485.992 402.977 481.699 410.293 481.699C420.018 481.699 426.151 488.227 426.151 497.952L426.108 497.996Z" fill="white"/>
<path d="M460.412 504.432C461.201 511.924 466.283 516.83 474.344 516.83C480.521 516.83 484.069 513.895 485.865 511.486L490.509 515.691C486.741 520.685 480.696 523.182 473.73 523.182C460.719 523.182 452.57 514.815 452.57 502.417C452.57 490.282 460.412 481.477 472.723 481.477C485.033 481.477 491.254 489.844 491.254 500.49C491.254 502.899 490.903 504.345 490.903 504.345H460.412V504.432ZM460.588 499H483.499C483.412 492.297 479.206 487.873 472.723 487.873C466.239 487.873 461.683 492.429 460.588 499Z" fill="white"/>
<path d="M556.791 461.898V522.705L551.184 522.967C550.746 520.12 550.308 515.126 550.395 513.505H550.132C547.81 518.937 542.729 523.23 534.887 523.23C523.453 523.23 515.523 514.863 515.523 502.29C515.523 489.804 523.453 481.525 535.325 481.525C541.94 481.525 546.496 484.46 549.169 488.403V461.898H556.747H556.791ZM549.212 503.166V501.545C549.212 495.412 545.182 487.921 535.763 487.921C528.184 487.921 523.278 493.703 523.278 502.29C523.278 511.008 528.272 516.834 536.289 516.834C544.919 516.834 549.212 509.168 549.212 503.166Z" fill="white"/>
<path d="M590.172 473.997C587.237 473.997 584.915 471.851 584.915 468.915C584.915 465.98 587.237 463.746 590.172 463.746C593.107 463.746 595.516 465.98 595.516 468.915C595.516 471.851 593.107 473.997 590.172 473.997ZM586.141 482.058L593.808 481.795V522.712H586.141V482.058Z" fill="white"/>
<path d="M660.353 522.62C660.353 522.62 658.382 523.145 656.235 523.145C652.029 523.145 648.919 521.174 648.919 516.443V516.355H648.744C647.605 518.414 644.1 523.233 634.638 523.233C625.701 523.233 620.882 518.589 620.882 511.974C620.882 503.125 629.337 499.576 647.211 499.576H648.438V496.992C648.438 491.472 645.064 487.967 638.361 487.967C632.579 487.967 629.074 490.289 629.074 494.495C629.074 495.459 629.249 495.94 629.512 496.554L622.371 497.737C622.371 497.737 621.845 496.203 621.845 494.188C621.845 486.784 628.198 481.527 638.537 481.527C649.577 481.527 656.016 487.485 656.016 496.86V513.288C656.016 515.523 656.629 516.399 658.513 516.399C659.039 516.399 659.653 516.311 659.959 516.224L660.397 522.576L660.353 522.62ZM648.394 508.689V504.833H647.167C633.323 504.833 628.592 507.331 628.592 511.799C628.592 514.997 631.002 516.881 636.171 516.881C644.1 516.881 648.394 512.5 648.394 508.689Z" fill="white"/>
<path d="M746.306 494.626C746.306 490.42 742.582 487.923 737.281 487.923C731.981 487.923 729.265 490.245 729.265 493.619C729.265 503.169 753.71 496.291 753.973 511.711C754.06 519.027 747.095 523.233 737.194 523.233C727.293 523.233 721.949 519.027 719.627 517.1L724.27 511.93C725.979 513.551 731.061 516.837 737.281 516.837C743.327 516.837 746.218 514.69 746.218 511.58C746.218 503.212 721.51 508.557 721.51 493.487C721.51 486.785 727.863 481.527 737.457 481.527C747.051 481.527 753.403 486.521 753.403 493.224C753.403 494.845 753.053 496.072 753.053 496.072L746.087 496.597C746.262 495.984 746.35 495.239 746.35 494.626H746.306Z" fill="white"/>
<path d="M820.298 502.555C820.298 514.866 811.931 523.233 799.358 523.233C786.785 523.233 778.417 514.866 778.417 502.555C778.417 490.245 786.785 481.527 799.358 481.527C811.931 481.527 820.298 490.245 820.298 502.555ZM812.544 502.555C812.544 494.1 807.287 487.923 799.358 487.923C791.428 487.923 786.171 494.1 786.171 502.555C786.171 511.01 791.428 516.837 799.358 516.837C807.287 516.837 812.544 510.967 812.544 502.555Z" fill="white"/>
<path d="M847.154 461.898H854.733V522.705H847.154V461.898Z" fill="white"/>
<path d="M919.654 482.059V522.713L914.134 522.976C913.433 519.865 913.083 515.309 913.083 514.345H912.995C910.761 519.252 906.468 523.195 899.458 523.195C889.733 523.195 883.6 516.667 883.6 506.942V482.059H891.266V506.942C891.266 512.9 894.639 516.843 900.729 516.843C908.22 516.843 911.987 509.176 911.987 503.306V482.059H919.567H919.654Z" fill="white"/>
<path d="M976.999 520.56C976.999 520.56 972.969 523.232 966.31 523.232C955.796 523.232 951.59 517.624 951.59 507.198V488.185H945.15V482.052H951.59V470.004L959.257 469.566V482.052H975.028V488.185H959.257V506.935C959.257 513.462 961.579 516.748 967.098 516.748C971.83 516.748 974.59 514.426 974.59 514.426L976.999 520.56Z" fill="white"/>
<path d="M1005.08 473.997C1002.15 473.997 999.825 471.851 999.825 468.915C999.825 465.98 1002.15 463.746 1005.08 463.746C1008.02 463.746 1010.43 465.98 1010.43 468.915C1010.43 471.851 1008.02 473.997 1005.08 473.997ZM1001.05 482.058L1008.72 481.795V522.712H1001.05V482.058Z" fill="white"/>
<path d="M1077.41 502.555C1077.41 514.866 1069.04 523.233 1056.47 523.233C1043.9 523.233 1035.53 514.866 1035.53 502.555C1035.53 490.245 1043.9 481.527 1056.47 481.527C1069.04 481.527 1077.41 490.245 1077.41 502.555ZM1069.7 502.555C1069.7 494.1 1064.44 487.923 1056.51 487.923C1048.59 487.923 1043.33 494.1 1043.33 502.555C1043.33 511.01 1048.59 516.837 1056.51 516.837C1064.44 516.837 1069.7 510.967 1069.7 502.555Z" fill="white"/>
<path d="M1141.15 497.824V522.707H1133.49V497.824C1133.49 491.866 1130.11 487.923 1124.02 487.923C1115.57 487.923 1111.8 495.59 1111.8 501.46V522.707H1104.22V482.053L1109.57 481.79C1110.27 484.901 1110.62 489.457 1110.62 491.253H1110.88C1113.03 486.171 1117.58 481.527 1125.34 481.527C1135.06 481.527 1141.2 488.055 1141.2 497.78L1141.15 497.824Z" fill="white"/>
<path d="M1193.15 494.626C1193.15 490.42 1189.43 487.923 1184.13 487.923C1178.83 487.923 1176.11 490.245 1176.11 493.619C1176.11 503.169 1200.56 496.291 1200.82 511.711C1200.91 519.027 1193.94 523.233 1184.04 523.233C1174.05 523.233 1168.79 519.027 1166.47 517.1L1171.12 511.93C1172.82 513.551 1177.91 516.837 1184.13 516.837C1190.17 516.837 1193.06 514.69 1193.06 511.58C1193.06 503.212 1168.36 508.557 1168.36 493.487C1168.36 486.785 1174.71 481.527 1184.3 481.527C1193.9 481.527 1200.25 486.521 1200.25 493.224C1200.25 494.845 1199.9 496.072 1199.9 496.072L1192.93 496.597C1193.11 495.984 1193.2 495.239 1193.2 494.626H1193.15Z" fill="white"/>
</svg>
