<svg width="205" height="92" viewBox="0 0 205 92" fill="none" xmlns="http://www.w3.org/2000/svg">
<g filter="url(#filter0_d_805_5500)">
<path d="M10.04 70.53C9.90004 70.84 9.77004 71.15 9.67004 71.49C9.57004 71.83 9.49005 72.22 9.49005 72.66C9.49005 72.96 9.53006 73.28 9.62006 73.59C9.69006 73.82 9.78008 74.04 9.89008 74.24C10.0501 74.54 10.2501 74.8 10.4501 75.02C10.6501 75.24 10.8601 75.43 11.0801 75.61C12.0901 76.43 13.1601 77.06 14.1801 77.61C14.3601 77.71 14.5401 77.8 14.7701 77.89C14.8901 77.94 15.0201 77.99 15.1901 78.03C15.3601 78.07 15.5601 78.11 15.8101 78.11C16.0101 78.11 16.2301 78.09 16.4601 78.02C16.6601 77.97 16.8501 77.88 17.0201 77.78C17.1701 77.69 17.3 77.59 17.41 77.49C17.6 77.31 17.7301 77.14 17.8301 77C17.9801 76.78 18.0501 76.61 18.1201 76.46C18.1901 76.31 18.24 76.17 18.29 76.04C18.63 75.16 18.9701 74.28 19.3101 73.39C21.9701 76.04 24.9001 78.24 28.0901 79.98C32.0901 82.16 36.4901 83.61 41.2501 84.31H41.3301C43.3801 84.54 45.2301 84.63 46.9001 84.63C49.5501 84.63 51.73 84.4 53.48 84.1C54.36 83.95 55.12 83.78 55.79 83.62C56.45 83.46 57.0101 83.3 57.4501 83.18C65.9501 80.81 72.9901 75.77 77.8901 69.24C82.7901 62.7 85.5601 54.66 85.5601 46.25C85.5601 42.87 85.1101 39.44 84.1801 36.03C83.6901 34.25 83.0301 32.58 82.3301 30.99C81.6201 29.4 80.8701 27.88 80.1901 26.39C80.1101 26.23 78.0801 23.35 77.3701 22.51C76.6601 21.67 74.3801 19.39 74.3201 19.32C74.1801 19.16 74.01 18.96 73.8 18.76C73.57 18.54 73.34 18.32 73.1 18.11C72.67 17.71 72.2301 17.33 71.7801 16.96C71.4501 16.68 71.1101 16.41 70.7601 16.14C69.8801 15.45 68.97 14.81 68.04 14.21C67.93 14.14 67.8101 14.06 67.7001 13.99C66.8301 13.44 65.95 12.93 65.05 12.46C64.78 12.32 64.5101 12.18 64.2401 12.05C64.0201 11.94 63.7901 11.83 63.5601 11.72C62.8101 11.37 62.06 11.04 61.29 10.73C56.72 8.91998 51.8501 8 46.9301 8C45.8001 8 44.67 8.04999 43.54 8.14999C38.9 8.54999 34.2801 9.79 29.9001 11.88C29.6601 11.99 29.4201 12.11 29.1801 12.23C22.5501 15.56 17.2701 20.62 13.6501 26.59C12.0701 29.2 10.8001 31.99 9.88007 34.89C9.81007 35.1 9.75006 35.3 9.69006 35.51C9.25006 36.97 8.90008 38.45 8.64008 39.95C8.60008 40.16 8.57009 40.38 8.53009 40.6C8.23009 42.54 8.07007 44.51 8.07007 46.49C8.07007 47.06 8.08005 47.64 8.11005 48.21C8.12005 48.5 8.14003 48.78 8.16003 49.07C8.42003 52.81 9.24003 56.56 10.66 60.2C10.72 60.36 10.7801 60.5 10.8401 60.64C10.9001 60.78 10.9601 60.92 11.0301 61.08L11.2801 62.46L9.20007 68.31C9.20007 68.31 8.70008 69.07 9.83008 70.07L10.1501 70.4L10.04 70.54V70.53Z" fill="white"/>
<path d="M89.75 28.2695L90.48 24.0095C92.06 24.3995 93.49 24.5895 94.76 24.5895C95.41 24.5895 95.98 24.5795 96.47 24.5595C96.96 24.5395 97.41 24.4995 97.79 24.4395V23.1495L95.47 22.9595C94.42 22.8595 93.55 22.6895 92.84 22.4395C92.14 22.1995 91.57 21.8595 91.15 21.4395C90.73 21.0195 90.43 20.5095 90.25 19.9095C90.07 19.3095 89.98 18.6195 89.98 17.8095C89.98 16.7095 90.09 15.7795 90.32 15.0495C90.55 14.3095 90.92 13.7195 91.42 13.2595C91.92 12.8095 92.57 12.4895 93.37 12.2995C94.17 12.1095 95.14 12.0195 96.29 12.0195C98.57 12.0195 100.64 12.2395 102.49 12.6695L101.84 16.7995C100.23 16.5395 98.95 16.4095 97.99 16.4095C97.03 16.4095 96.21 16.4495 95.54 16.5395V17.8095L97.39 17.9795C98.52 18.0895 99.47 18.2795 100.23 18.5495C100.99 18.8195 101.6 19.1595 102.07 19.5895C102.54 20.0195 102.87 20.5295 103.06 21.1195C103.25 21.7095 103.35 22.3795 103.35 23.1395C103.35 24.2295 103.21 25.1495 102.92 25.8895C102.63 26.6395 102.29 27.1995 101.89 27.5895C101.56 27.9095 101.15 28.1495 100.66 28.3295C100.17 28.5095 99.66 28.6395 99.11 28.7295C98.56 28.8195 98.02 28.8695 97.46 28.8895C96.91 28.9095 96.41 28.9195 95.96 28.9195C94.84 28.9195 93.77 28.8595 92.73 28.7495C91.7 28.6395 90.7 28.4695 89.74 28.2595L89.75 28.2695Z" fill="#A3A3A3"/>
<path d="M104.36 12.4084H109.52V24.5184H111.35C112.01 24.5184 112.46 24.4284 112.69 24.2584C112.93 24.0884 113.05 23.7184 113.05 23.1384V12.3984H118.21V21.4584C118.21 22.8384 118.12 23.9984 117.94 24.9484C117.76 25.8984 117.42 26.6684 116.91 27.2584C116.4 27.8584 115.69 28.2784 114.79 28.5384C113.89 28.7984 112.72 28.9284 111.28 28.9284C109.84 28.9284 108.68 28.7984 107.77 28.5384C106.87 28.2784 106.16 27.8584 105.65 27.2684C105.14 26.6784 104.8 25.9084 104.62 24.9584C104.44 24.0084 104.35 22.8384 104.35 21.4584V12.3984L104.36 12.4084Z" fill="#A3A3A3"/>
<path d="M132.17 13.9006C133.1 14.8906 133.56 16.3806 133.56 18.3706C133.56 19.2506 133.47 20.0606 133.3 20.8206C133.13 21.5806 132.84 22.2406 132.43 22.8106C132.02 23.3806 131.49 23.8306 130.84 24.1506C130.19 24.4806 129.37 24.6406 128.4 24.6406H125.04V28.5306H119.88V12.3906H128.01C129.86 12.3906 131.25 12.8906 132.17 13.8806M126.22 16.5406H125.04V20.5206H126.22C126.85 20.5206 127.31 20.4606 127.59 20.3306C127.87 20.2006 128.01 19.9006 128.01 19.4306V17.6206C128.01 17.1606 127.87 16.8706 127.59 16.7406C127.31 16.6106 126.85 16.5506 126.22 16.5506V16.5406Z" fill="#A3A3A3"/>
<path d="M144.9 22.4601H139.74V24.4201H146.07V28.5501H134.58V12.4102H145.94L145.29 16.5401H139.74V18.7101H144.9V22.4501V22.4601Z" fill="#A3A3A3"/>
<path d="M158.99 23.1701L161.79 28.5501H156.11L154 23.7502H152.88V28.5501H147.72V12.4102H155.85C159.55 12.4102 161.4 14.3002 161.4 18.0702C161.4 20.6502 160.6 22.3501 158.99 23.1701ZM154.06 16.5401H152.88V19.7701H154.06C154.69 19.7701 155.15 19.7101 155.43 19.5801C155.71 19.4501 155.85 19.1601 155.85 18.7001V17.6201C155.85 17.1601 155.71 16.8701 155.43 16.7401C155.15 16.6101 154.69 16.5501 154.06 16.5501V16.5401Z" fill="#A3A3A3"/>
<path d="M126 54.5014C125.57 47.3914 125.14 40.3114 124.71 33.2614C124.55 33.2314 124.49 33.2114 124.43 33.2114C121.69 33.2114 118.94 33.2114 116.2 33.2014C115.8 33.2014 115.72 33.4014 115.64 33.7114C114.85 36.9614 114.05 40.2014 113.25 43.4414C113.2 43.6414 113.12 43.8414 113.05 44.0314C112.84 43.8214 112.78 43.6314 112.73 43.4314C111.93 40.2114 111.14 36.9914 110.35 33.7614C110.25 33.3514 110.1 33.1914 109.65 33.1914C107.05 33.2214 104.46 33.2014 101.86 33.2014C101.68 33.2014 101.5 33.2214 101.27 33.2414C100.84 40.3514 100.41 47.4114 99.98 54.5014H107.13C107.27 51.0814 107.4 47.6814 107.54 44.2814C107.61 44.2814 107.68 44.2814 107.75 44.2714C108.62 47.6914 109.5 51.1114 110.37 54.5014H115.61C116.48 51.0614 117.35 47.6514 118.21 44.2414C118.29 44.2514 118.36 44.2614 118.44 44.2714C118.58 47.6814 118.71 51.0914 118.85 54.5014H126Z" fill="#A3A3A3"/>
<path d="M145.71 60.18C146.22 60.18 146.7 60.18 147.17 60.18C149.37 60.15 151.57 60.18 153.76 60.05C155.47 59.95 156.85 59.12 157.64 57.55C158.07 56.7 158.48 55.81 158.73 54.89C159.78 50.91 160.76 46.92 161.76 42.93C162.21 41.13 162.66 39.33 163.12 37.51H156.28C155.65 41.21 155.02 44.88 154.39 48.55C154.28 48.55 154.18 48.55 154.07 48.55C153.44 44.88 152.81 41.2 152.18 37.5H145.38C145.43 37.74 145.45 37.94 145.5 38.13C146.66 42.77 147.82 47.4 148.96 52.05C149.1 52.62 149.32 52.83 149.92 52.79C150.85 52.73 151.78 52.77 152.78 52.77C152.57 53.51 152.14 53.95 151.59 54.2C150.97 54.49 150.32 54.74 149.65 54.9C148.35 55.21 147.04 55.45 145.71 55.73V60.17V60.18Z" fill="#A3A3A3"/>
<path d="M127.36 37.5C127.36 37.77 127.36 38 127.36 38.22C127.36 41.34 127.36 44.45 127.36 47.57C127.36 48.61 127.37 49.66 127.45 50.7C127.61 52.85 128.72 54.24 130.68 54.75C132.2 55.15 133.74 55.15 135.28 54.84C136.78 54.53 138.03 53.78 139.2 52.49C139.74 53.1 140.23 53.67 140.74 54.23C140.86 54.36 141.04 54.52 141.19 54.53C142.27 54.56 143.35 54.54 144.44 54.54V37.53H137.62C137.62 37.9 137.62 38.21 137.62 38.52C137.62 41.87 137.62 45.21 137.62 48.56C137.62 49.52 137.36 49.87 136.41 49.98C135.71 50.06 135 50 134.23 50V37.52H127.36V37.5Z" fill="#A3A3A3"/>
<path d="M166.43 75.1613V67.3613H168.71V62.9513H166.39V58.5312C164.06 59.1112 161.8 59.6813 159.5 60.2513V62.9813H157.88V67.4113H159.51C159.51 67.7013 159.51 67.9312 159.51 68.1512C159.51 70.8912 159.51 73.6313 159.51 76.3613C159.51 78.4813 160.15 79.4013 162.18 79.9513C164.09 80.4713 166.07 80.4013 168.08 80.3913C168.18 78.7113 168.28 77.0713 168.38 75.4213C167.69 75.3313 167.06 75.2513 166.41 75.1613H166.43Z" fill="#A3A3A3"/>
<path d="M135.19 79.9992V79.2592C135.19 76.4992 135.22 73.7392 135.17 70.9792C135.16 70.2992 135.41 69.9192 135.99 69.6892C136.3 69.5692 136.61 69.4292 136.93 69.3392C137.63 69.1592 138.35 69.0092 139.1 68.8292C138.97 66.7192 138.83 64.6092 138.69 62.4492C136.75 62.7992 135.09 63.5692 133.65 64.8192C133.11 64.2892 132.6 63.7792 132.07 63.2692C131.93 63.1292 131.74 62.9592 131.57 62.9492C130.51 62.9192 129.45 62.9392 128.36 62.9392V79.9792H135.19V79.9992Z" fill="#A3A3A3"/>
<path d="M91.47 39.0312C91.44 39.1313 91.41 39.1913 91.4 39.2413C91.06 43.9513 90.73 48.6513 90.4 53.3613C90.34 54.1813 90.65 54.5213 91.48 54.5312C93.38 54.5512 95.29 54.5512 97.19 54.5312C98.04 54.5312 98.33 54.1413 98.26 53.2913C98.01 49.8313 97.77 46.3813 97.52 42.9213C97.43 41.6313 97.33 40.3513 97.23 39.0312H91.46H91.47Z" fill="#A3A3A3"/>
<path d="M94.38 32.8906C93.6 32.9906 92.85 33.0706 92.11 33.2006C91.25 33.3506 90.72 33.8906 90.6 34.7406C90.52 35.2906 90.51 35.8706 90.59 36.4206C90.72 37.3406 91.29 37.9006 92.21 38.1006C93.51 38.3906 94.83 38.4106 96.13 38.1706C97.54 37.9106 98.06 37.2706 98.14 35.8006C98.16 35.4506 98.11 35.0906 98.04 34.7406C97.9 33.9806 97.48 33.4206 96.7 33.2506C95.93 33.0806 95.14 33.0106 94.37 32.8906H94.38Z" fill="#A3A3A3"/>
<path d="M193.73 74.8889C193.04 74.9689 192.33 75.0089 191.63 75.1389C190.69 75.3089 190.08 75.8889 189.96 76.8489C189.89 77.4389 189.93 78.0589 190.02 78.6489C190.13 79.3789 190.62 79.8389 191.33 80.0089C192.9 80.3889 194.48 80.3889 196.05 80.0089C196.87 79.8089 197.34 79.2489 197.44 78.4189C197.5 77.9489 197.51 77.4589 197.46 76.9889C197.34 75.8989 196.82 75.3289 195.75 75.1189C195.1 74.9889 194.43 74.9589 193.74 74.8789L193.73 74.8889Z" fill="#A3A3A3"/>
<path d="M197.69 60.6914C197.61 61.1914 197.5 61.6914 197.46 62.2014C197.19 66.0614 196.93 69.9114 196.66 73.7714C196.66 73.9114 196.62 74.0514 196.59 74.2114H190.8C190.72 73.1514 190.63 72.1014 190.55 71.0514C190.29 67.3414 190.03 63.6314 189.77 59.9214C189.71 59.0514 189.99 58.7214 190.87 58.7114C192.75 58.6914 194.64 58.6714 196.52 58.7314C196.91 58.7414 197.28 59.1114 197.67 59.3114V60.6914H197.69Z" fill="#A3A3A3"/>
<path d="M126 54.5014H118.85C118.71 51.0914 118.58 47.6814 118.44 44.2714C118.36 44.2614 118.29 44.2514 118.21 44.2414C117.35 47.6514 116.48 51.0714 115.61 54.5014H110.37C109.5 51.1114 108.63 47.6914 107.75 44.2714C107.68 44.2714 107.61 44.2714 107.54 44.2814C107.4 47.6814 107.27 51.0814 107.13 54.5014H99.98C100.41 47.4114 100.84 40.3514 101.27 33.2414C101.5 33.2214 101.68 33.2014 101.86 33.2014C104.46 33.2014 107.05 33.2114 109.65 33.1914C110.11 33.1914 110.26 33.3514 110.35 33.7614C111.13 36.9914 111.93 40.2114 112.73 43.4314C112.78 43.6314 112.84 43.8214 113.05 44.0314C113.12 43.8314 113.2 43.6414 113.25 43.4414C114.05 40.2014 114.85 36.9514 115.64 33.7114C115.72 33.4014 115.8 33.2014 116.2 33.2014C118.94 33.2214 121.69 33.2114 124.43 33.2114C124.49 33.2114 124.55 33.2314 124.71 33.2614C125.14 40.3214 125.57 47.3914 126 54.5014Z" fill="#A3A3A3"/>
<path d="M90.4299 58.7819C94.6199 58.7819 98.7399 58.6519 102.86 58.8219C106.02 58.9519 107.48 60.9219 107.18 64.1119C107.06 65.3619 106.84 66.5819 105.88 67.4819C105.39 67.9419 104.78 68.2719 104.19 68.6819C104.25 68.7119 104.34 68.7819 104.45 68.8019C106.77 69.3119 107.9 70.8719 108.18 73.1219C108.35 74.4819 108.3 75.8319 107.75 77.1219C106.97 78.9519 105.51 79.9319 103.6 79.9719C99.2299 80.0619 94.8599 80.0019 90.4399 80.0019V58.7819H90.4299ZM97.2599 75.0019C98.2199 75.0019 99.1399 75.0219 100.05 75.0019C100.61 74.9919 101.06 74.6819 101.15 74.1519C101.24 73.5719 101.26 72.9419 101.12 72.3819C101.05 72.0819 100.61 71.6719 100.31 71.6419C99.3099 71.5519 98.2899 71.6119 97.2599 71.6119V75.0119V75.0019ZM97.28 66.5519C98.07 66.5519 98.81 66.6319 99.52 66.5219C99.88 66.4619 100.39 66.1219 100.49 65.8019C100.65 65.2719 100.6 64.6519 100.49 64.1019C100.43 63.8419 100.02 63.5019 99.7399 63.4719C98.9399 63.3819 98.1299 63.4419 97.2999 63.4419V66.5619L97.28 66.5519Z" fill="#A3A3A3"/>
<path d="M145.71 60.1817V55.7417C147.04 55.4617 148.36 55.2217 149.65 54.9117C150.32 54.7517 150.97 54.5017 151.59 54.2117C152.14 53.9517 152.57 53.5217 152.78 52.7817C151.77 52.7817 150.84 52.7417 149.92 52.8017C149.32 52.8417 149.1 52.6317 148.96 52.0617C147.83 47.4217 146.66 42.7817 145.5 38.1417C145.45 37.9417 145.42 37.7417 145.38 37.5117H152.18C152.81 41.2117 153.44 44.8817 154.07 48.5617C154.18 48.5617 154.28 48.5617 154.39 48.5617C155.02 44.8917 155.64 41.2217 156.28 37.5217H163.12C162.66 39.3517 162.21 41.1417 161.76 42.9417C160.76 46.9317 159.77 50.9217 158.73 54.9017C158.49 55.8217 158.07 56.7117 157.64 57.5617C156.85 59.1317 155.47 59.9617 153.76 60.0617C151.57 60.1917 149.37 60.1617 147.17 60.1917C146.69 60.1917 146.22 60.1917 145.71 60.1917V60.1817Z" fill="#A3A3A3"/>
<path d="M156.54 80.0216C155.51 80.0216 154.51 80.0315 153.51 80.0115C153.31 80.0115 153.07 79.8915 152.92 79.7515C152.37 79.2315 151.86 78.6915 151.28 78.1015C150.14 79.3215 148.72 80.0015 147.14 80.3215C145.22 80.7115 143.32 80.7016 141.51 79.7716C140.38 79.1816 139.6 78.2915 139.39 77.0515C139.21 76.0115 139.1 74.9215 139.2 73.8815C139.39 71.9615 140.53 70.6416 142.27 69.8316C144.22 68.9316 146.3 68.8015 148.4 68.7515C148.83 68.7415 149.27 68.7515 149.74 68.7515V67.5615C146.91 67.3215 144.13 67.5615 141.32 68.3815C141.04 66.7515 140.77 65.1515 140.48 63.4015C141.99 63.1415 143.46 62.8116 144.94 62.6416C147.32 62.3716 149.71 62.2615 152.06 62.8415C152.82 63.0315 153.58 63.3215 154.27 63.7015C155.74 64.5115 156.55 65.8415 156.57 67.4915C156.63 71.6115 156.6 75.7315 156.6 79.8515C156.6 79.8915 156.57 79.9215 156.54 80.0315V80.0216ZM146.03 75.4815C146.95 75.4815 147.79 75.5215 148.62 75.4715C149.17 75.4415 149.67 75.1715 149.74 74.5615C149.81 73.9715 149.75 73.3715 149.75 72.7615C149 72.7615 148.31 72.7215 147.62 72.7615C146.31 72.8515 146.03 73.1715 146.03 74.4815C146.03 74.8115 146.03 75.1515 146.03 75.4815Z" fill="#A3A3A3"/>
<path d="M126.09 80.0194C124.99 80.0194 123.97 80.0394 122.95 80.0094C122.75 80.0094 122.52 79.8593 122.37 79.7193C121.83 79.1893 121.33 78.6393 120.81 78.0993C118.51 80.2693 115.84 80.8493 112.9 80.4093C110.24 80.0093 108.74 78.3093 108.61 75.5893C108.43 71.9693 110.2 69.8194 114.01 69.1294C115.32 68.8894 116.67 68.8694 118 68.7594C118.39 68.7294 118.79 68.7594 119.22 68.7594V67.5594C116.39 67.3394 113.62 67.5594 110.81 68.3894C110.53 66.7594 110.26 65.1694 109.97 63.4594C111.11 63.2294 112.22 62.9493 113.35 62.7893C115.86 62.4193 118.39 62.2693 120.91 62.7193C121.62 62.8493 122.34 63.0494 123.01 63.3294C124.98 64.1494 126.05 65.6493 126.07 67.7893C126.1 71.8393 126.07 75.8993 126.07 80.0293L126.09 80.0194ZM115.51 75.5993C116.47 75.5493 117.37 75.5293 118.26 75.4293C118.84 75.3693 119.22 74.9993 119.26 74.3993C119.29 73.8593 119.26 73.3294 119.26 72.7694C118.45 72.7694 117.69 72.7093 116.95 72.7793C115.75 72.8993 115.51 73.2194 115.5 74.4494C115.5 74.7794 115.5 75.1193 115.5 75.5993H115.51Z" fill="#A3A3A3"/>
<path d="M178.53 80.6124C177.65 80.4924 176.44 80.4024 175.26 80.1324C172.67 79.5424 170.99 77.9324 170.27 75.3724C169.56 72.8224 169.56 70.2524 170.25 67.6924C170.97 65.0224 172.74 63.4124 175.43 62.8124C177.73 62.3024 180.04 62.3024 182.34 62.8424C185.06 63.4824 186.77 65.1824 187.46 67.8724C188.08 70.2824 188.08 72.7224 187.46 75.1324C186.66 78.2124 184.53 79.9824 181.24 80.3824C180.45 80.4824 179.66 80.5124 178.53 80.6124ZM180.54 67.4625C179.92 67.4625 179.4 67.4625 178.88 67.4625C178.73 67.4625 178.59 67.4724 178.44 67.5024C177.4 67.6724 177.13 67.9924 177.12 69.0424C177.12 69.7724 177.12 70.5024 177.12 71.2324C177.12 72.6424 177.12 74.0624 177.12 75.6224C178.05 75.5324 178.93 75.5125 179.77 75.3325C180.06 75.2725 180.34 74.8325 180.48 74.5125C180.61 74.2225 180.55 73.8525 180.55 73.5225C180.55 71.5225 180.55 69.5225 180.55 67.4625H180.54Z" fill="#A3A3A3"/>
<path d="M127.36 37.5005H134.23V49.9805C135.01 49.9805 135.72 50.0405 136.41 49.9605C137.36 49.8505 137.62 49.5005 137.62 48.5405C137.62 45.1905 137.62 41.8505 137.62 38.5005C137.62 38.1905 137.62 37.8705 137.62 37.5105H144.44V54.5205C143.35 54.5205 142.27 54.5305 141.19 54.5105C141.04 54.5105 140.86 54.3405 140.74 54.2105C140.23 53.6505 139.74 53.0805 139.2 52.4705C138.03 53.7705 136.78 54.5105 135.28 54.8205C133.74 55.1405 132.2 55.1305 130.68 54.7305C128.72 54.2205 127.6 52.8305 127.45 50.6805C127.37 49.6405 127.36 48.5905 127.36 47.5505C127.35 44.4305 127.36 41.3205 127.36 38.2005C127.36 37.9705 127.36 37.7505 127.36 37.4805V37.5005Z" fill="#A3A3A3"/>
<path d="M166.43 75.1613C167.07 75.2413 167.71 75.3313 168.4 75.4213C168.3 77.0713 168.2 78.7113 168.1 80.3913C166.09 80.4013 164.11 80.4713 162.2 79.9513C160.17 79.4013 159.53 78.4813 159.53 76.3613C159.53 73.6213 159.53 70.8812 159.53 68.1512C159.53 67.9212 159.53 67.6913 159.53 67.4113H157.9V62.9813H159.52V60.2513C161.82 59.6813 164.08 59.1112 166.41 58.5312V62.9513H168.73V67.3613H166.45V75.1613H166.43Z" fill="#A3A3A3"/>
<path d="M135.19 79.9988H128.36V62.9588C129.45 62.9588 130.51 62.9488 131.57 62.9688C131.74 62.9688 131.93 63.1488 132.07 63.2888C132.6 63.7888 133.11 64.3087 133.65 64.8387C135.09 63.5787 136.76 62.8187 138.69 62.4688C138.83 64.6288 138.96 66.7388 139.1 68.8488C138.35 69.0188 137.63 69.1688 136.93 69.3588C136.61 69.4388 136.3 69.5788 135.99 69.7088C135.4 69.9388 135.15 70.3188 135.17 70.9988C135.21 73.7588 135.19 76.5187 135.19 79.2787V80.0188V79.9988Z" fill="#A3A3A3"/>
<path d="M91.47 39.0312H97.2401C97.3401 40.3513 97.4401 41.6313 97.5301 42.9213C97.7801 46.3813 98.0201 49.8313 98.2701 53.2913C98.3301 54.1513 98.0501 54.5312 97.2001 54.5312C95.3001 54.5512 93.3901 54.5512 91.4901 54.5312C90.6601 54.5312 90.3501 54.1813 90.4101 53.3613C90.7401 48.6513 91.0801 43.9513 91.4101 39.2413C91.4101 39.1813 91.4401 39.1213 91.4801 39.0312H91.47Z" fill="#A3A3A3"/>
<path d="M94.3799 32.8906C95.1399 33.0006 95.94 33.0806 96.71 33.2506C97.49 33.4206 97.9099 33.9806 98.0499 34.7406C98.1099 35.0906 98.16 35.4506 98.15 35.8006C98.08 37.2706 97.5499 37.9106 96.1399 38.1706C94.8299 38.4106 93.5199 38.3906 92.2199 38.1006C91.2999 37.9006 90.7199 37.3406 90.5999 36.4206C90.5199 35.8706 90.5299 35.2906 90.6099 34.7406C90.7299 33.8906 91.2699 33.3506 92.1199 33.2006C92.8599 33.0706 93.6099 33.0006 94.3899 32.8906H94.3799Z" fill="#A3A3A3"/>
<path d="M193.73 74.8906C194.42 74.9706 195.09 75.0006 195.74 75.1306C196.81 75.3406 197.33 75.9106 197.45 77.0006C197.5 77.4706 197.49 77.9606 197.43 78.4306C197.32 79.2506 196.86 79.8206 196.04 80.0206C194.47 80.3906 192.89 80.4006 191.32 80.0206C190.61 79.8506 190.12 79.3806 190.01 78.6606C189.92 78.0706 189.88 77.4506 189.95 76.8606C190.07 75.9106 190.68 75.3206 191.62 75.1506C192.32 75.0306 193.03 74.9806 193.72 74.9006L193.73 74.8906Z" fill="#A3A3A3"/>
<path d="M58.54 51.8705C59.11 51.8005 59.67 51.7205 60.24 51.6505C60.28 51.7305 60.32 51.8105 60.36 51.9005C60.1 52.2305 59.86 52.5805 59.58 52.8805C59.16 53.3405 58.65 53.7305 58.31 54.2305C58.12 54.5105 58.02 55.1305 58.19 55.3005C58.45 55.5705 59.03 55.7705 59.37 55.6805C60.56 55.3505 61.76 54.9705 62.87 54.4205C65.51 53.1305 67.45 51.2105 67.88 48.1305C67.9 47.4605 67.93 46.7905 67.91 46.1305C67.91 45.9405 67.81 45.7005 67.67 45.5805C66.81 44.8305 65.86 44.2505 64.69 44.1005C62.65 43.8405 60.69 44.2805 58.71 44.6605C58.22 44.7505 57.97 44.9605 57.84 45.4405C57.02 48.2605 56.18 51.0805 55.35 53.8905C55.27 54.1605 55.19 54.4405 55.13 54.6505C56.27 53.7205 57.4 52.8005 58.54 51.8805V51.8705ZM62.31 37.5405C65.11 36.4105 67.67 34.8905 69.84 32.7605C70.85 31.7705 71.74 30.6705 72.21 29.3005C72.28 29.1505 72.36 29.0005 72.4 28.8405C72.98 26.6005 72.8 26.0405 70.52 25.5205C68.08 24.9705 65.78 25.3705 63.67 26.8105C62.93 27.3205 62.51 27.9105 62.28 28.7605C61.68 31.0005 61 33.2205 60.35 35.4405C60.05 36.4805 59.74 37.5205 59.38 38.7505C60.46 38.2905 61.38 37.9105 62.3 37.5305L62.31 37.5405ZM32.11 33.2005C31.31 39.7905 30.51 46.3805 29.71 52.9705C29.76 53.0005 29.81 53.0305 29.86 53.0605C30.69 51.5605 31.52 50.0605 32.35 48.5605C32.43 48.4505 32.54 48.3505 32.6 48.2305C34.9 43.2705 37.8 38.6505 40.71 34.0305C42.05 31.9105 43.33 29.7505 44.65 27.6105C45.26 26.6105 45.99 25.7505 47.15 25.3505C48.66 24.8305 50.16 24.2805 51.67 23.7705C52.09 23.6305 52.55 23.6105 53.11 23.5105C52.73 25.0305 52.4 26.3505 52.1 27.5605C54.32 26.2805 56.52 24.9405 58.8 23.7305C60.44 22.8605 62.17 22.1605 63.86 21.3805C63.98 21.3705 64.1 21.3805 64.22 21.3505C66.48 20.7105 68.78 20.5405 71.11 20.8305C71.77 20.9105 72.42 21.0205 73.08 21.1105L73.1 21.2105C73.1 21.2105 73.15 21.1805 73.18 21.1705L73.08 21.1205C72.83 20.8405 72.6 20.5405 72.33 20.2805C61.13 9.50051 44.19 7.02051 30.12 14.1005C13.5 22.4605 5.85998 42.2205 12.6 59.4305C12.69 59.6605 12.8 59.8805 12.95 60.2405C13.62 58.5505 14.23 57.0105 14.83 55.4805C15.45 53.9005 16.05 52.3105 16.66 50.7305C16.73 50.6105 16.83 50.5005 16.88 50.3805C19.24 44.2805 22.12 38.4205 25.05 32.5705C25.57 31.5305 26.3 30.9205 27.38 30.8105C28.53 30.6905 29.56 30.3105 30.58 29.8405C31.52 29.4105 31.75 29.5305 31.9 30.5705C32.03 31.4405 32.05 32.3305 32.11 33.2105V33.2005Z" fill="#A3A3A3"/>
<path d="M71.2 41.9719C69.97 41.2619 68.7299 40.5519 67.4299 39.8019C68.6499 39.0319 69.87 38.3219 71.03 37.5319C72.34 36.6519 73.67 35.7819 74.88 34.7719C77.26 32.7919 78.3799 30.2719 77.8499 27.1419C77.8299 27.0319 77.8499 26.9219 77.8499 26.6719C78.0399 26.9419 78.2 27.0919 78.28 27.2719C79.69 30.3319 81.2599 33.3119 82.1599 36.5919C87.4499 55.9019 76.23 75.7819 56.89 81.1819C54.58 81.8319 49.8099 83.1419 41.5599 82.2519C32.4899 80.9119 24.95 76.7819 18.9 69.9119C18.81 69.8019 18.73 69.6819 18.59 69.4819C17.81 71.5019 17.0799 73.4019 16.3499 75.3019C16.0299 76.1219 15.9599 76.2119 15.1699 75.7919C14.2099 75.2719 13.2499 74.7019 12.4099 74.0219C11.4199 73.2119 11.39 72.6619 11.95 71.4119C12.56 71.7219 13.1699 72.0319 13.7899 72.3319C14.3099 72.5819 14.5999 72.5019 14.8499 71.8719C18.6499 61.9319 22.49 52.0019 26.32 42.0719C26.42 41.8119 26.53 41.5719 26.71 41.3319C26.55 45.1319 25.9399 48.8719 25.2399 52.5919C25.1499 52.7219 25.0299 52.8319 24.9699 52.9719C23.7299 56.1619 22.49 59.3619 21.26 62.5619C21.2 62.7119 21.19 62.9719 21.28 63.0819C22.38 64.5319 23.5099 65.9719 24.6699 67.4719C24.8599 67.1319 24.9599 66.9519 25.0599 66.7819C25.7699 67.4419 26.5799 67.8319 27.5599 67.8919C28.0599 67.9219 28.3199 67.7519 28.5499 67.3119C31.8199 61.1119 35.11 54.9219 38.39 48.7319C40.35 45.0319 42.31 41.3419 44.27 37.6419C44.37 37.4619 44.4799 37.2819 44.7299 37.1519C44.6599 37.4119 44.61 37.6719 44.53 37.9219C43.15 42.3219 41.77 46.7219 40.38 51.1219C40.24 51.5719 40.0699 52.0119 39.9099 52.4519C39.7899 52.5919 39.6299 52.7119 39.5499 52.8619C38.4099 54.9919 37.27 57.1219 36.14 59.2519C34.06 63.1819 31.99 67.1219 29.9 71.0519C29.72 71.3919 29.75 71.5719 30.07 71.7419C31.72 72.6019 33.3299 73.5819 35.0399 74.3019C39.6099 76.2119 44.38 76.9519 49.34 76.4919C51.76 76.2719 54.1199 75.8419 56.4099 75.0819C62.3499 73.1219 67.23 69.6519 71.07 64.7319C74.87 59.8619 76.9099 54.3019 77.3599 48.1719C77.5299 45.7919 77.3599 43.4019 76.9299 41.0419C76.7799 40.1919 76.55 39.3619 76.33 38.4219C75.71 38.8919 75.2399 39.2719 74.7499 39.6019C73.5699 40.4119 72.3699 41.1919 71.1799 41.9819L71.2 41.9719Z" fill="#A3A3A3"/>
<path d="M16.66 50.7305C16.05 52.3105 15.45 53.9005 14.83 55.4805C14.23 57.0205 13.62 58.5505 12.95 60.2405C12.79 59.8805 12.69 59.6605 12.6 59.4305C5.86 42.2105 13.49 22.4505 30.12 14.1005C44.2 7.02051 61.13 9.50051 72.33 20.2805C72.6 20.5405 72.83 20.8405 73.08 21.1205C72.42 21.0205 71.77 20.9105 71.11 20.8305C68.78 20.5505 66.48 20.7105 64.22 21.3505C64.11 21.3805 63.98 21.3705 63.86 21.3805C63.68 21.2005 63.54 20.9705 63.33 20.8505C62.06 20.1405 60.8 19.4005 59.48 18.7905C55.93 17.1305 52.17 16.2605 48.27 16.1105C46.51 16.0405 44.74 16.2105 42.98 16.3705C39.61 16.6805 36.4301 17.7005 33.4001 19.1605C29.4901 21.0505 26.1501 23.6805 23.3401 27.0005C20.4301 30.4505 18.34 34.3405 17.24 38.7205C16.82 40.4205 16.57 42.1805 16.38 43.9205C16.23 45.2905 16.21 46.6905 16.25 48.0705C16.28 48.9605 16.5101 49.8405 16.6501 50.7205L16.66 50.7305Z" fill="#A3A3A3"/>
<path d="M16.66 50.7316C16.52 49.8516 16.28 48.9717 16.26 48.0817C16.22 46.7017 16.23 45.3017 16.39 43.9317C16.59 42.1817 16.83 40.4316 17.25 38.7316C18.34 34.3516 20.43 30.4616 23.35 27.0116C26.15 23.6916 29.5 21.0616 33.41 19.1716C36.44 17.7116 39.62 16.6917 42.99 16.3817C44.75 16.2217 46.5201 16.0517 48.2801 16.1217C52.1801 16.2717 55.94 17.1417 59.49 18.8017C60.81 19.4217 62.0701 20.1617 63.3401 20.8617C63.5501 20.9817 63.7 21.2116 63.87 21.3916C62.18 22.1716 60.45 22.8717 58.81 23.7417C56.54 24.9517 54.33 26.2917 52.11 27.5717C52.41 26.3717 52.74 25.0517 53.12 23.5217C52.56 23.6217 52.1 23.6417 51.68 23.7817C50.17 24.2917 48.67 24.8417 47.16 25.3617C46 25.7617 45.27 26.6317 44.66 27.6217C43.35 29.7617 42.06 31.9216 40.72 34.0416C37.81 38.6616 34.91 43.2717 32.61 48.2417C32.55 48.3617 32.44 48.4617 32.36 48.5717C32.41 47.9317 32.42 47.2817 32.5 46.6417C32.74 44.6617 33.08 42.6917 33.25 40.7117C33.42 38.6317 33.45 36.5517 33.47 34.4617C33.47 33.9817 33.1801 33.5017 33.0301 33.0517C32.6301 33.1217 32.37 33.1616 32.12 33.2016C32.05 32.3216 32.04 31.4317 31.91 30.5617C31.76 29.5217 31.5301 29.4017 30.5901 29.8317C29.5601 30.3017 28.53 30.6917 27.39 30.8017C26.31 30.9117 25.58 31.5217 25.06 32.5617C22.13 38.4017 19.25 44.2617 16.89 50.3717C16.84 50.5017 16.75 50.6116 16.67 50.7216L16.66 50.7316ZM57.01 19.4917C50.84 17.4517 42.26 17.4117 34.66 20.8317C30.41 22.7417 24.45 27.5017 23.43 30.0917C33.26 21.9317 44.55 19.0216 57.01 19.4816V19.4917Z" fill="#A3A3A3"/>
<path d="M71.2 41.9695C72.39 41.1795 73.59 40.3895 74.77 39.5895C75.26 39.2595 75.72 38.8795 76.35 38.4095C76.57 39.3595 76.79 40.1895 76.95 41.0295C77.38 43.3895 77.55 45.7795 77.38 48.1595C76.93 54.2895 74.9 59.8495 71.09 64.7195C67.25 69.6395 62.36 73.1095 56.43 75.0695C54.13 75.8295 51.77 76.2595 49.36 76.4795C44.4 76.9295 39.63 76.1895 35.06 74.2895C33.35 73.5795 31.75 72.5895 30.09 71.7295C29.76 71.5595 29.74 71.3795 29.92 71.0395C32.01 67.1095 34.08 63.1695 36.16 59.2395C37.29 57.0995 38.43 54.9695 39.57 52.8495C39.65 52.6895 39.81 52.5695 39.93 52.4395C39.25 54.6495 38.58 56.8695 37.89 59.0795C37.51 60.3095 37.14 61.5495 36.72 62.7695C36.53 63.3195 36.69 63.5695 37.23 63.6695C37.77 63.7695 38.3 63.8995 38.84 64.0195C38.64 64.7495 38.49 65.5095 38.22 66.2195C37.98 66.8495 38.2 67.0995 38.78 67.2295C40.42 67.5995 42.07 67.8095 43.74 67.5095C44.01 67.4595 44.35 67.1295 44.43 66.8595C45.03 64.6995 45.58 62.5295 46.14 60.3595C48.17 52.4195 50.19 44.4695 52.21 36.5195C52.25 36.3495 52.32 36.1895 52.39 35.9995C52.53 36.3095 52.64 36.5595 52.77 36.8395C53.45 36.4495 54.05 36.1095 54.64 35.7695C53.9 38.3095 53.14 40.8495 52.42 43.3995C51.02 48.3595 49.68 53.3395 48.84 58.4395C48.75 59.0095 48.74 59.5895 48.58 60.1395C48.34 60.9595 48.74 61.3995 49.37 61.7395C49.64 61.8895 49.92 62.0195 50.19 62.1695C50.15 62.5995 50.12 63.0195 50.05 63.4495C49.93 64.2395 50.05 64.9195 50.87 65.2995C51.57 65.6095 52.18 65.9895 52.68 66.6295C53.1 67.1795 53.46 67.0095 53.74 66.3595C54.3 65.0395 54.91 63.7395 55.51 62.4295C55.77 62.6895 55.8 62.9495 55.94 63.1195C56.15 63.3795 56.4 63.7095 56.69 63.7795C57.4 63.9595 58.14 64.0695 58.88 64.0895C62.37 64.2295 65.71 63.5595 68.68 61.6695C72.44 59.2895 75.35 56.2495 75.85 51.5295C76 50.0695 75.59 48.7495 74.81 47.5395C74.73 47.4195 74.54 47.3695 74.4 47.2895C74.32 45.2595 73.4 43.6795 71.79 42.4795C71.58 42.3195 71.39 42.1395 71.19 41.9695H71.2ZM70.57 62.5795C70.36 62.7395 70.14 62.8795 69.94 63.0495C65.99 66.4295 61.5 68.8495 56.61 70.5495C50.29 72.7395 43.77 73.5495 37.08 73.2095C37.14 73.2595 37.19 73.3195 37.26 73.3395C37.46 73.4095 37.66 73.4895 37.87 73.5395C41.73 74.5595 45.64 74.8795 49.62 74.4595C55.18 73.8795 60.23 71.9895 64.73 68.6695C67.02 66.9795 69.06 65.0395 70.66 62.6695C70.69 62.6395 70.72 62.5995 70.75 62.5695C70.69 62.5695 70.63 62.5695 70.57 62.5695V62.5795Z" fill="#A3A3A3"/>
<path d="M74.4099 47.2891C74.5499 47.3691 74.7399 47.4191 74.8199 47.5391C75.5999 48.7491 76.0199 50.0691 75.8599 51.5291C75.3599 56.2491 72.4499 59.2891 68.6899 61.6691C65.7199 63.5491 62.3899 64.2191 58.8899 64.0891C58.1599 64.0591 57.4099 63.9491 56.6999 63.7791C56.4099 63.7091 56.1599 63.3791 55.9499 63.1191C55.8099 62.9491 55.7799 62.6891 55.5199 62.4291C54.9299 63.7391 54.3199 65.0391 53.7499 66.3591C53.4699 67.0091 53.1099 67.1791 52.6899 66.6291C52.1999 65.9891 51.5799 65.6091 50.8799 65.2991C50.0499 64.9291 49.9399 64.2491 50.0599 63.4491C50.1199 63.0291 50.1499 62.5991 50.1999 62.1691C50.4599 62.3991 50.6999 62.6591 50.9799 62.8691C51.2899 63.0991 51.6399 63.2891 51.9399 63.4791C52.6899 61.8491 53.3599 60.3791 54.0499 58.8591C54.1599 58.9391 54.2399 58.9791 54.2499 59.0191C54.3899 60.1591 55.2099 60.3191 56.1399 60.4091C62.8399 61.0991 68.2699 58.8291 72.3199 53.4391C73.6699 51.6391 74.4099 49.5791 74.4099 47.2991V47.2891Z" fill="#A3A3A3"/>
<path d="M54.6401 35.7694C54.0401 36.1094 53.4501 36.4494 52.7701 36.8394C52.6401 36.5594 52.5301 36.3094 52.3901 35.9994C52.3201 36.1994 52.2501 36.3594 52.2101 36.5194C50.1901 44.4694 48.1701 52.4094 46.1401 60.3594C45.5901 62.5294 45.03 64.6994 44.43 66.8594C44.36 67.1294 44.01 67.4594 43.74 67.5094C42.07 67.8094 40.4201 67.5994 38.7801 67.2294C38.2001 67.0994 37.98 66.8494 38.22 66.2194C38.49 65.5094 38.6401 64.7594 38.8401 64.0194C39.9601 64.0094 41.0801 63.9794 42.2001 63.9894C42.7201 63.9894 42.88 63.7094 42.99 63.2694C44.75 56.3194 46.53 49.3794 48.3 42.4294C49.12 39.2394 49.9301 36.0394 50.7501 32.8494C50.7801 32.7494 50.8101 32.6494 50.8801 32.3894C51.0401 32.7894 51.1401 33.0494 51.2601 33.3294C52.9301 32.3294 54.58 31.3494 56.23 30.3594C56.29 30.4094 56.35 30.4694 56.41 30.5194C55.82 32.2694 55.2301 34.0194 54.6401 35.7694Z" fill="#A3A3A3"/>
<path d="M62.31 37.5414C61.39 37.9214 60.48 38.3114 59.39 38.7614C59.75 37.5314 60.05 36.4914 60.36 35.4514C61.01 33.2214 61.68 31.0114 62.29 28.7714C62.52 27.9214 62.94 27.3314 63.68 26.8214C65.79 25.3714 68.09 24.9814 70.53 25.5314C72.81 26.0414 72.99 26.6114 72.41 28.8514C72.37 29.0114 72.28 29.1614 72.22 29.3114C71.9 29.1714 71.58 28.9314 71.25 28.9114C69 28.7614 66.85 29.0114 65.03 30.5214C64.71 30.7914 64.23 31.0214 64.12 31.3714C63.48 33.4114 62.92 35.4914 62.33 37.5514L62.31 37.5414Z" fill="#A3A3A3"/>
<path d="M67.87 48.1312C67.44 51.2112 65.5 53.1212 62.86 54.4212C61.75 54.9612 60.55 55.3412 59.36 55.6812C59.01 55.7812 58.44 55.5712 58.18 55.3012C58.01 55.1312 58.11 54.5112 58.3 54.2312C58.64 53.7312 59.1601 53.3412 59.5701 52.8812C59.8501 52.5712 60.09 52.2312 60.35 51.9012C60.31 51.8212 60.27 51.7412 60.23 51.6512C59.66 51.7212 59.1001 51.8012 58.5301 51.8712C58.7701 50.9812 59.0601 50.0912 59.2501 49.1912C59.4001 48.4912 59.79 48.1812 60.47 48.1412C60.61 48.1412 60.7501 48.0812 60.8901 48.0512C63.2201 47.6412 65.55 47.1312 67.86 48.1312H67.87Z" fill="#A3A3A3"/>
<path d="M67.87 48.13C65.56 47.12 63.23 47.63 60.9 48.05C60.76 48.07 60.62 48.13 60.48 48.14C59.8 48.18 59.41 48.49 59.26 49.19C59.06 50.09 58.78 50.98 58.54 51.87C57.41 52.79 56.27 53.72 55.13 54.64C55.19 54.43 55.27 54.16 55.35 53.88C56.18 51.06 57.03 48.25 57.84 45.43C57.98 44.95 58.22 44.7499 58.71 44.6499C60.69 44.2699 62.65 43.8299 64.69 44.0899C65.86 44.2399 66.81 44.82 67.67 45.57C67.81 45.69 67.9 45.93 67.91 46.12C67.92 46.79 67.89 47.46 67.88 48.12L67.87 48.13Z" fill="#A3A3A3"/>
<path d="M62.3101 37.541C62.9001 35.481 63.45 33.401 64.1 31.361C64.21 31.021 64.6901 30.781 65.0101 30.511C66.8301 29.001 68.99 28.751 71.23 28.901C71.56 28.921 71.8801 29.161 72.2001 29.301C71.7301 30.671 70.8501 31.771 69.8301 32.761C67.6601 34.891 65.1 36.411 62.3 37.541H62.3101Z" fill="#A3A3A3"/>
<path d="M32.1099 33.2008C32.3699 33.1608 32.62 33.1208 33.02 33.0508C33.17 33.5008 33.46 33.9908 33.46 34.4608C33.44 36.5408 33.3999 38.6308 33.2399 40.7108C33.0799 42.6908 32.7399 44.6608 32.4899 46.6408C32.4099 47.2808 32.3899 47.9308 32.3499 48.5708C31.5199 50.0708 30.6899 51.5708 29.8599 53.0708C29.8099 53.0408 29.76 53.0108 29.71 52.9808C30.51 46.3908 31.3099 39.8008 32.1099 33.2108V33.2008Z" fill="#A3A3A3"/>
<path d="M25.0599 66.772C24.9599 66.942 24.8599 67.122 24.6699 67.462C23.4999 65.962 22.3799 64.522 21.2799 63.072C21.1899 62.952 21.1999 62.702 21.2599 62.552C22.4899 59.352 23.7299 56.152 24.9699 52.962C25.0199 52.822 25.1499 52.712 25.2399 52.582C24.7499 55.472 24.2699 58.352 23.7799 61.242C23.6599 61.972 23.4699 62.702 23.4599 63.432C23.4599 63.972 23.5699 64.562 23.8199 65.042C24.1399 65.672 24.6399 66.212 25.0599 66.782V66.772Z" fill="#A3A3A3"/>
<path d="M73.0801 21.1115L73.1801 21.1616C73.1801 21.1616 73.13 21.1915 73.1 21.2015C73.1 21.1715 73.0901 21.1416 73.0801 21.1016V21.1115Z" fill="#A3A3A3"/>
<path d="M57.0099 19.4902C44.5499 19.0302 33.2599 21.9402 23.4299 30.1002C24.4499 27.5102 30.4099 22.7502 34.6599 20.8402C42.2599 17.4102 50.8299 17.4502 57.0099 19.5002V19.4902Z" fill="white"/>
<path d="M70.66 62.6799C69.06 65.0499 67.02 66.9999 64.73 68.6799C60.23 71.9999 55.1801 73.8798 49.6201 74.4698C45.6401 74.8898 41.7301 74.5699 37.8701 73.5499C37.6601 73.4899 37.4601 73.4199 37.2601 73.3499C37.2001 73.3299 37.1501 73.2698 37.0801 73.2198C43.7701 73.5598 50.29 72.7499 56.61 70.5599C61.5 68.8599 65.9901 66.4399 69.9401 63.0599C70.1401 62.8899 70.3601 62.7398 70.5701 62.5898C70.6001 62.6198 70.63 62.6599 70.66 62.6899V62.6799Z" fill="white"/>
<path d="M70.5701 62.582C70.6301 62.582 70.6901 62.582 70.7501 62.582C70.7201 62.612 70.69 62.652 70.66 62.682C70.63 62.652 70.6001 62.622 70.5701 62.582Z" fill="#A3A3A3"/>
<path d="M46.8401 68.0197C46.8401 67.1497 47.5401 66.4297 48.4301 66.4297C49.3201 66.4297 50.0101 67.1397 50.0101 67.9997C50.0101 68.8697 49.31 69.5897 48.42 69.5897C47.53 69.5897 46.8401 68.8797 46.8401 68.0197ZM49.6801 68.0097C49.6801 67.3097 49.1401 66.7497 48.4301 66.7497C47.7201 66.7497 47.17 67.3197 47.17 68.0097C47.17 68.7097 47.71 69.2697 48.42 69.2697C49.13 69.2697 49.6801 68.6997 49.6801 68.0097ZM47.7701 67.3097C47.7701 67.2097 47.8501 67.1297 47.9501 67.1297H48.5101C48.7401 67.1297 48.9101 67.1997 49.0301 67.3097C49.1201 67.3997 49.17 67.5297 49.17 67.6797C49.17 67.9497 49.0401 68.1097 48.8301 68.1997L49.11 68.5297C49.11 68.5297 49.16 68.5997 49.16 68.6597C49.16 68.7597 49.0801 68.8397 48.9901 68.8397C48.9201 68.8397 48.8801 68.8197 48.8301 68.7597L48.4401 68.2697H48.1401V68.6497C48.1401 68.7497 48.0501 68.8297 47.9501 68.8297C47.8501 68.8297 47.7701 68.7497 47.7701 68.6497V67.3097ZM48.5201 67.9397C48.7101 67.9397 48.8101 67.8397 48.8101 67.6997C48.8101 67.5297 48.7001 67.4497 48.5101 67.4497H48.1501V67.9397H48.5201Z" fill="white"/>
</g>
<defs>
<filter id="filter0_d_805_5500" x="0.770068" y="0.7" width="204.22" height="91.2289" filterUnits="userSpaceOnUse" color-interpolation-filters="sRGB">
<feFlood flood-opacity="0" result="BackgroundImageFix"/>
<feColorMatrix in="SourceAlpha" type="matrix" values="0 0 0 0 0 0 0 0 0 0 0 0 0 0 0 0 0 0 127 0" result="hardAlpha"/>
<feOffset/>
<feGaussianBlur stdDeviation="3.65"/>
<feColorMatrix type="matrix" values="0 0 0 0 0 0 0 0 0 0 0 0 0 0 0 0 0 0 0.4 0"/>
<feBlend mode="normal" in2="BackgroundImageFix" result="effect1_dropShadow_805_5500"/>
<feBlend mode="normal" in="SourceGraphic" in2="effect1_dropShadow_805_5500" result="shape"/>
</filter>
</defs>
</svg>
