<svg width="199" height="72" viewBox="0 0 199 72" fill="none" xmlns="http://www.w3.org/2000/svg">
<path d="M10.0401 45.8345C33.6501 45.8345 57.25 45.9845 80.86 45.7945C108.67 45.5745 136.48 45.8045 164.29 45.6345C171.4 45.5945 178.5 45.6145 185.61 45.5445C186.96 45.5345 188.18 44.8945 189.52 44.7945C189.93 44.7645 190.33 44.6745 190.74 44.6645C191.98 44.6445 192.61 45.2645 192.61 46.4545C192.61 47.5245 191.83 48.2645 190.65 48.1645C189.53 48.0645 188.38 47.9745 187.32 47.6245C186.34 47.2945 185.38 47.2645 184.4 47.3045C177.4 47.5445 170.39 47.3945 163.39 47.4045C144.19 47.4345 124.98 47.2445 105.78 47.4445C78.6901 47.7245 51.59 47.4445 24.5 47.6245C20.88 47.6445 17.2601 47.7545 13.6401 47.7045C10.8801 47.6645 8.11002 47.6245 5.36002 47.3245C5.16002 47.3045 4.95004 47.2945 4.75004 47.2545C4.43004 47.1945 3.97 47.2345 3.96 46.7845C3.95 46.3045 4.41002 46.3445 4.73002 46.3245C6.43002 46.2145 8.14 46.1245 9.84 46.0245C9.91 46.0245 9.98008 46.0245 10.0401 46.0245C10.0401 45.9545 10.0401 45.8945 10.0401 45.8245V45.8345Z" fill="#A3A3A3"/>
<path d="M44.24 36.277C44.39 37.657 44.6601 39.797 46.3101 40.337C47.4201 40.677 48.2999 40.6771 48.6899 40.6771C48.8799 40.6771 49.11 40.717 49.11 40.907C49.11 41.137 49 41.217 48.54 41.217C47.7 41.217 43.33 41.1071 41.91 40.9871C41.03 40.9071 40.84 40.7971 40.84 40.6071C40.84 40.4571 40.92 40.417 41.11 40.337C41.38 40.227 41.34 39.647 41.26 38.957L39.42 18.957L29.92 39.1071C29.12 40.7971 29 41.137 28.66 41.137C28.39 41.137 28.2 40.757 27.47 39.377C26.47 37.497 23.18 30.8671 22.99 30.4871C22.65 29.7971 18.2399 20.337 17.8199 19.297L16.25 37.347C16.21 37.957 16.17 38.497 16.17 39.147C16.17 40.107 16.63 40.407 17.2 40.527C17.85 40.677 18.35 40.6771 18.58 40.6771C18.81 40.6771 18.96 40.7571 18.96 40.8671C18.96 41.1371 18.77 41.207 18.39 41.207C16.97 41.207 15.02 41.097 14.71 41.097C14.37 41.097 12.53 41.207 11.49 41.207C11.11 41.207 10.84 41.167 10.84 40.897C10.84 40.747 11.03 40.6671 11.22 40.6671C11.53 40.6671 11.79 40.6671 12.37 40.5571C13.63 40.3271 13.71 38.947 13.9 37.377L16.66 12.4771C16.7 12.0571 16.85 11.707 17.08 11.707C17.31 11.707 17.46 11.857 17.65 12.277L29.37 36.377L40.63 12.317C40.78 11.977 40.94 11.707 41.2 11.707C41.46 11.707 41.58 12.017 41.66 12.737L44.23 36.257L44.24 36.277Z" fill="#A3A3A3"/>
<path d="M91.67 28.7261C91.67 34.2461 92.9 36.6161 94.54 38.1861C96.42 39.9461 98.14 40.2961 100.33 40.2961C102.67 40.2961 104.97 39.1861 106.35 37.5361C108.11 35.3561 108.57 32.0961 108.57 28.1461V23.3561C108.57 17.3761 108.57 16.3061 108.49 15.0761C108.41 13.7761 108.11 13.1561 106.84 12.8961C106.53 12.8161 105.88 12.7861 105.54 12.7861C105.39 12.7861 105.23 12.7061 105.23 12.5561C105.23 12.3261 105.42 12.2461 105.84 12.2461C107.56 12.2461 109.67 12.3561 109.9 12.3561C110.17 12.3561 111.97 12.2461 113.12 12.2461C113.54 12.2461 113.73 12.3261 113.73 12.5561C113.73 12.7061 113.58 12.7861 113.42 12.7861C113.15 12.7861 112.92 12.8261 112.46 12.8961C111.43 13.1261 111.12 13.7361 111.04 15.0761C110.96 16.3061 110.96 17.3761 110.96 23.3561V27.4561C110.96 31.5961 110.5 36.1961 107.44 38.9161C104.68 41.3661 101.81 41.7561 99.55 41.7561C98.25 41.7561 94.38 41.6061 91.66 39.0361C89.78 37.2361 88.33 34.5561 88.33 28.9561V23.3661C88.33 17.3861 88.33 16.3161 88.25 15.0861C88.17 13.7861 87.87 13.1661 86.6 12.9061C86.29 12.8261 85.64 12.7961 85.3 12.7961C85.15 12.7961 84.99 12.7161 84.99 12.5661C84.99 12.3361 85.18 12.2561 85.6 12.2561C87.32 12.2561 89.66 12.3661 90.01 12.3661C90.36 12.3661 92.65 12.2561 93.8 12.2561C94.22 12.2561 94.41 12.3361 94.41 12.5661C94.41 12.7161 94.26 12.7961 94.1 12.7961C93.83 12.7961 93.6 12.8361 93.14 12.9061C92.11 13.0561 91.8 13.7461 91.72 15.0861C91.64 16.3161 91.64 17.3861 91.64 23.3661V28.7261H91.67Z" fill="#A3A3A3"/>
<path d="M119.87 40.717C119.33 40.447 119.3 40.297 119.3 39.257C119.3 37.337 119.45 35.807 119.49 35.197C119.53 34.777 119.6 34.587 119.8 34.587C120.03 34.587 120.07 34.697 120.07 35.007C120.07 35.347 120.07 35.8871 120.18 36.4271C120.75 39.2671 123.28 40.337 125.85 40.337C129.53 40.337 131.33 37.6971 131.33 35.2371C131.33 32.5971 130.22 31.057 126.92 28.337L125.2 26.9171C121.14 23.5871 120.22 21.2071 120.22 18.6071C120.22 14.5071 123.29 11.707 128.15 11.707C129.64 11.707 130.76 11.857 131.71 12.087C132.44 12.237 132.74 12.277 133.05 12.277C133.36 12.277 133.43 12.357 133.43 12.547C133.43 12.737 133.28 14.0071 133.28 16.6071C133.28 17.2171 133.2 17.487 133.01 17.487C132.78 17.487 132.74 17.297 132.7 16.987C132.66 16.527 132.43 15.497 132.2 15.067C131.97 14.647 130.94 13.037 127.41 13.037C124.77 13.037 122.7 14.6871 122.7 17.4771C122.7 19.6571 123.7 21.0371 127.37 23.9171L128.44 24.757C132.96 28.317 134.03 30.697 134.03 33.757C134.03 35.327 133.42 38.2371 130.77 40.1171C129.12 41.2671 127.05 41.7271 124.98 41.7271C123.18 41.7271 121.42 41.457 119.85 40.697L119.87 40.717Z" fill="#A3A3A3"/>
<path d="M141.78 40.717C141.24 40.447 141.21 40.297 141.21 39.257C141.21 37.337 141.36 35.807 141.4 35.197C141.44 34.777 141.51 34.587 141.71 34.587C141.94 34.587 141.98 34.697 141.98 35.007C141.98 35.347 141.98 35.8871 142.09 36.4271C142.66 39.2671 145.19 40.337 147.76 40.337C151.44 40.337 153.24 37.6971 153.24 35.2371C153.24 32.5971 152.13 31.057 148.83 28.337L147.11 26.9171C143.05 23.5871 142.13 21.2071 142.13 18.6071C142.13 14.5071 145.2 11.707 150.06 11.707C151.55 11.707 152.67 11.857 153.62 12.087C154.35 12.237 154.65 12.277 154.96 12.277C155.27 12.277 155.34 12.357 155.34 12.547C155.34 12.737 155.19 14.0071 155.19 16.6071C155.19 17.2171 155.11 17.487 154.92 17.487C154.69 17.487 154.65 17.297 154.61 16.987C154.57 16.527 154.34 15.497 154.11 15.067C153.88 14.647 152.85 13.037 149.32 13.037C146.68 13.037 144.61 14.6871 144.61 17.4771C144.61 19.6571 145.61 21.0371 149.28 23.9171L150.35 24.757C154.87 28.317 155.94 30.697 155.94 33.757C155.94 35.327 155.33 38.2371 152.68 40.1171C151.03 41.2671 148.96 41.7271 146.89 41.7271C145.09 41.7271 143.33 41.457 141.76 40.697L141.78 40.717Z" fill="#A3A3A3"/>
<path d="M167.75 29.9166C167.56 29.9166 167.44 30.0266 167.37 30.2266L165.07 37.0065C164.73 37.9665 164.53 38.8865 164.53 39.5765C164.53 40.3465 165.26 40.6865 165.91 40.6865H166.25C166.63 40.6865 166.75 40.7666 166.75 40.9166C166.75 41.1466 166.41 41.2266 166.06 41.2266C165.14 41.2266 163.61 41.1166 163.19 41.1166C162.77 41.1166 160.66 41.2266 158.86 41.2266C158.36 41.2266 158.13 41.1466 158.13 40.9166C158.13 40.7666 158.32 40.6865 158.67 40.6865C158.94 40.6865 159.28 40.6466 159.59 40.6066C161.35 40.3766 162.12 38.9165 162.81 37.0065L171.51 13.2166C171.97 11.9566 172.12 11.7266 172.35 11.7266C172.58 11.7266 172.73 11.9166 173.19 13.1066C173.76 14.5666 179.78 30.3865 182.12 36.2065C183.5 39.6165 184.61 40.2265 185.42 40.4565C185.99 40.6465 186.61 40.6865 186.91 40.6865C187.14 40.6865 187.33 40.7266 187.33 40.9166C187.33 41.1466 186.99 41.2266 186.56 41.2266C185.99 41.2266 183.19 41.2265 180.54 41.1465C179.81 41.1065 179.39 41.1065 179.39 40.8765C179.39 40.7265 179.5 40.6466 179.66 40.6066C179.89 40.5266 180.12 40.1865 179.89 39.5765L176.33 30.1465C176.25 29.9965 176.18 29.9166 175.99 29.9166H167.75ZM175.49 28.5366C175.68 28.5366 175.68 28.4165 175.64 28.2665L172 17.9265C171.81 17.3565 171.62 17.3565 171.43 17.9265L168.06 28.2665C167.98 28.4565 168.06 28.5366 168.17 28.5366H175.49Z" fill="#A3A3A3"/>
<path d="M89.26 35.496C85.53 38.566 82.16 40.436 78.56 41.796C76.29 42.646 73.83 43.326 71.35 42.616C69.22 42.006 67.0699 42.386 64.9399 42.276C60.3099 42.046 56.2699 40.426 52.7199 37.426C50.6899 35.706 49.2 33.646 48.26 31.206C46.66 27.066 46.9199 22.956 48.9399 19.016C51.1999 14.616 54.69 11.616 59.53 10.386C61.79 9.81598 64.0599 9.76597 66.1899 11.006C66.8999 11.416 67.6599 11.436 68.4699 11.316C74.1599 10.536 78.8399 13.5359 81.2199 18.5459C83.5399 23.4459 83.4 28.366 81.29 33.296C79.69 37.016 76.91 39.526 73.23 41.216C73.62 41.806 74.1199 41.6159 74.5699 41.5759C78.3099 41.1959 81.5199 39.436 84.6899 37.606C86.0399 36.826 87.3299 35.926 89.3299 34.426L89.26 35.476V35.496ZM64.27 12.526C63.94 12.146 63.65 12.156 63.39 12.116C61.03 11.756 58.8799 12.326 56.8299 13.516C52.3699 16.096 49.71 19.866 49.17 25.006C48.8 28.526 50.13 31.576 52.27 34.266C53.89 36.296 56.01 37.716 58.37 38.786C60.54 39.766 62.8299 40.2459 65.1899 40.4459C65.4199 40.4659 65.6999 40.506 65.8299 40.246C65.9899 39.946 65.7899 39.736 65.5799 39.546C64.3599 38.386 63.7199 36.8759 63.0699 35.3759C62.9199 35.0259 62.78 34.6859 62.48 34.4459C61.6 33.7459 60.8 32.9859 60.13 32.0659C58 29.1459 56.87 25.886 57.13 22.306C57.39 18.586 59.48 15.846 62.43 13.716C63 13.306 63.62 12.9559 64.27 12.5459V12.526ZM81.05 26.496C81.07 23.136 80.3699 20.566 78.9499 18.276C77.0299 15.166 74.19 13.376 70.48 13.106C70.15 13.086 69.74 12.996 69.53 13.316C69.28 13.696 69.69 13.946 69.87 14.196C70.94 15.696 71.55 17.386 71.88 19.176C72.17 20.706 71.84 22.406 73.18 23.636C73.22 23.676 73.23 23.7559 73.25 23.8259C74.43 27.5259 74.1799 30.936 71.1899 33.776C69.7999 35.106 68.1999 35.896 66.2199 35.706C65.9799 35.686 65.74 35.636 65.51 35.646C65.1 35.646 64.84 35.7359 65.11 36.2559C65.72 37.4059 66.43 38.4859 67.38 39.3859C67.86 39.8359 68.38 40.3859 69.15 40.2559C71.53 39.8559 73.8099 39.156 75.6999 37.586C79.3699 34.556 80.79 30.4759 81.05 26.5059V26.496ZM58.93 22.626C59 25.436 59.76 27.7859 60.98 30.0059C61.15 30.3059 61.3499 30.706 61.6999 30.646C62.1599 30.566 61.9499 30.086 61.9499 29.786C61.9499 28.016 61.7999 26.2159 62.6899 24.5759C62.9599 24.0759 62.83 23.596 62.74 23.086C62.37 20.916 63.7599 19.0859 65.9399 18.5759C66.2299 18.5059 66.63 18.4459 66.75 18.7959C66.85 19.0859 66.48 19.226 66.27 19.376C65.74 19.746 65.22 20.146 64.87 20.706C64.71 20.966 64.38 21.316 64.67 21.626C64.93 21.906 65.24 21.586 65.5 21.466C66.62 20.936 67.76 20.476 69.03 20.596C69.9 20.676 70.0699 20.256 69.9499 19.476C69.6599 17.566 68.76 15.946 67.6 14.446C67.1 13.796 66.54 13.686 65.81 14.026C64.48 14.656 63.23 15.416 62.15 16.416C60.26 18.166 59.04 20.266 58.91 22.636L58.93 22.626ZM72.1 27.036C72.16 26.286 71.9699 25.556 71.7199 24.856C71.5599 24.396 71.2899 24.176 70.8199 24.636C69.1599 26.296 67.26 26.976 65 25.926C64.33 25.616 63.9899 25.756 63.8199 26.456C63.3199 28.476 63.3299 30.496 63.8199 32.516C63.8899 32.786 64.02 32.996 64.27 33.166C65.52 34.016 68.36 33.8559 69.49 32.8259C71.18 31.2759 72.1 29.366 72.1 27.036ZM68.5899 22.436C67.5299 22.376 66.7199 22.746 65.9499 23.186C65.6899 23.336 65.46 23.586 65.54 23.946C65.62 24.276 65.91 24.316 66.18 24.366C67.15 24.526 68.09 24.446 68.9 23.816C69.25 23.546 69.73 23.216 69.61 22.776C69.47 22.246 68.8599 22.496 68.5899 22.436Z" fill="#A3A3A3"/>
<path d="M19.5601 58.6677C19.5601 58.6677 19.65 58.6576 19.65 58.5776V58.2776C19.65 56.0276 19.65 55.6277 19.62 55.1677C19.59 54.6777 19.48 54.4477 19 54.3477C18.88 54.3177 18.64 54.3077 18.51 54.3077C18.45 54.3077 18.39 54.2777 18.39 54.2177C18.39 54.1277 18.46 54.0977 18.62 54.0977C19.27 54.0977 20.18 54.1376 20.25 54.1376C20.32 54.1376 21.23 54.0977 21.66 54.0977C21.82 54.0977 21.89 54.1277 21.89 54.2177C21.89 54.2777 21.83 54.3077 21.77 54.3077C21.67 54.3077 21.58 54.3177 21.41 54.3477C21.02 54.4177 20.91 54.6677 20.88 55.1677C20.85 55.6277 20.85 56.0276 20.85 58.2776V60.8176C20.85 62.1976 20.85 63.3376 20.92 63.9476C20.96 64.3676 21.05 64.6877 21.48 64.7377C21.68 64.7677 22 64.7977 22.13 64.7977C22.22 64.7977 22.25 64.8376 22.25 64.8876C22.25 64.9576 22.18 65.0076 22.02 65.0076C21.23 65.0076 20.32 64.9677 20.25 64.9677C20.18 64.9677 19.27 65.0076 18.84 65.0076C18.68 65.0076 18.61 64.9776 18.61 64.8876C18.61 64.8476 18.64 64.7977 18.73 64.7977C18.86 64.7977 19.03 64.7677 19.16 64.7377C19.45 64.6777 19.52 64.3676 19.58 63.9476C19.65 63.3376 19.65 62.2076 19.65 60.8176V59.3077C19.65 59.2477 19.6101 59.2177 19.5601 59.2177H13.45C13.45 59.2177 13.36 59.2277 13.36 59.3077V60.8176C13.36 62.1976 13.3601 63.3376 13.4301 63.9476C13.4701 64.3676 13.56 64.6877 13.99 64.7377C14.19 64.7677 14.51 64.7977 14.64 64.7977C14.73 64.7977 14.76 64.8376 14.76 64.8876C14.76 64.9576 14.69 65.0076 14.53 65.0076C13.74 65.0076 12.83 64.9677 12.76 64.9677C12.69 64.9677 11.78 65.0076 11.35 65.0076C11.19 65.0076 11.12 64.9776 11.12 64.8876C11.12 64.8476 11.15 64.7977 11.24 64.7977C11.37 64.7977 11.54 64.7677 11.67 64.7377C11.96 64.6777 12.03 64.3676 12.09 63.9476C12.16 63.3376 12.16 62.2076 12.16 60.8176V58.2776C12.16 56.0276 12.16 55.6277 12.13 55.1677C12.1 54.6777 11.99 54.4477 11.51 54.3477C11.39 54.3177 11.15 54.3077 11.02 54.3077C10.96 54.3077 10.9 54.2777 10.9 54.2177C10.9 54.1277 10.97 54.0977 11.13 54.0977C11.78 54.0977 12.69 54.1376 12.76 54.1376C12.83 54.1376 13.74 54.0977 14.17 54.0977C14.33 54.0977 14.4 54.1277 14.4 54.2177C14.4 54.2777 14.34 54.3077 14.28 54.3077C14.18 54.3077 14.09 54.3177 13.92 54.3477C13.53 54.4177 13.42 54.6677 13.39 55.1677C13.36 55.6277 13.36 56.0276 13.36 58.2776V58.5776C13.36 58.6476 13.4 58.6677 13.45 58.6677H19.5601Z" fill="#A3A3A3"/>
<path d="M25.96 58.2759C25.96 56.0259 25.9601 55.626 25.9301 55.166C25.9001 54.676 25.7599 54.426 25.4399 54.356C25.2799 54.316 25.09 54.296 24.99 54.296C24.93 54.296 24.87 54.2659 24.87 54.2059C24.87 54.1159 24.94 54.0859 25.1 54.0859C25.58 54.0859 26.4801 54.1259 26.5601 54.1259C26.6401 54.1259 27.54 54.0859 27.97 54.0859C28.13 54.0859 28.2 54.1159 28.2 54.2059C28.2 54.2659 28.14 54.296 28.08 54.296C27.98 54.296 27.89 54.3059 27.72 54.3359C27.33 54.4059 27.2199 54.6559 27.1899 55.1559C27.1599 55.6159 27.16 56.0159 27.16 58.2659V60.806C27.16 62.186 27.16 63.3259 27.23 63.9359C27.27 64.3559 27.36 64.676 27.79 64.726C27.99 64.756 28.29 64.7859 28.38 64.7859C28.51 64.7859 28.55 64.8259 28.55 64.8759C28.55 64.9459 28.49 64.996 28.33 64.996C27.54 64.996 26.61 64.9559 26.54 64.9559C26.47 64.9559 25.56 64.996 25.13 64.996C24.97 64.996 24.9 64.9659 24.9 64.8759C24.9 64.8359 24.9301 64.7859 25.0601 64.7859C25.1501 64.7859 25.3101 64.776 25.4301 64.746C25.7201 64.686 25.8 64.3559 25.86 63.9359C25.93 63.3259 25.9301 62.196 25.9301 60.806V58.2659L25.96 58.2759Z" fill="#A3A3A3"/>
<path d="M33.51 60.8381C33.51 62.9581 33.57 63.8781 33.83 64.1381C34.06 64.3681 34.4401 64.4681 35.5601 64.4681C36.3201 64.4681 36.96 64.4581 37.3 64.0381C37.49 63.8081 37.63 63.4482 37.67 63.1782C37.68 63.0582 37.71 62.9882 37.8 62.9882C37.87 62.9882 37.89 63.0481 37.89 63.2081C37.89 63.3681 37.79 64.2281 37.67 64.6481C37.57 64.9781 37.53 65.0381 36.76 65.0381C35.52 65.0381 34.3 64.9481 32.9 64.9481C32.45 64.9481 32.02 64.9882 31.49 64.9882C31.33 64.9882 31.26 64.9582 31.26 64.8682C31.26 64.8282 31.29 64.7781 31.38 64.7781C31.51 64.7781 31.6801 64.7481 31.8101 64.7181C32.1001 64.6581 32.17 64.3482 32.23 63.9282C32.3 63.3182 32.3 62.1882 32.3 60.7982V58.2581C32.3 56.0081 32.3 55.6081 32.27 55.1481C32.24 54.6581 32.13 54.4281 31.65 54.3281C31.53 54.2981 31.29 54.2881 31.16 54.2881C31.1 54.2881 31.04 54.2581 31.04 54.1981C31.04 54.1081 31.11 54.0781 31.27 54.0781C31.92 54.0781 32.83 54.1182 32.9 54.1182C32.97 54.1182 34.02 54.0781 34.46 54.0781C34.62 54.0781 34.6899 54.1081 34.6899 54.1981C34.6899 54.2581 34.6299 54.2881 34.5699 54.2881C34.4699 54.2881 34.27 54.2981 34.09 54.3281C33.67 54.3981 33.56 54.6481 33.53 55.1481C33.5 55.6081 33.5 56.0081 33.5 58.2581V60.8281L33.51 60.8381Z" fill="#A3A3A3"/>
<path d="M42.16 60.7363C42.09 60.7363 42.04 60.7763 42.02 60.8563L41.16 63.4062C41.03 63.7663 40.96 64.1162 40.96 64.3762C40.96 64.6662 41.23 64.7963 41.48 64.7963H41.61C41.75 64.7963 41.8 64.8262 41.8 64.8862C41.8 64.9762 41.67 65.0062 41.54 65.0062C41.19 65.0062 40.62 64.9662 40.46 64.9662C40.3 64.9662 39.51 65.0062 38.83 65.0062C38.64 65.0062 38.5601 64.9762 38.5601 64.8862C38.5601 64.8262 38.63 64.7963 38.76 64.7963C38.86 64.7963 38.99 64.7862 39.11 64.7662C39.77 64.6762 40.0599 64.1363 40.3199 63.4163L43.59 54.4662C43.76 53.9862 43.82 53.9062 43.91 53.9062C44 53.9062 44.05 53.9763 44.23 54.4263C44.45 54.9763 46.71 60.9263 47.59 63.1163C48.11 64.3963 48.53 64.6262 48.83 64.7162C49.05 64.7862 49.28 64.8063 49.39 64.8063C49.48 64.8063 49.55 64.8162 49.55 64.8962C49.55 64.9862 49.42 65.0162 49.26 65.0162C49.04 65.0162 47.99 65.0163 47 64.9863C46.73 64.9763 46.5699 64.9762 46.5699 64.8862C46.5699 64.8262 46.61 64.7963 46.67 64.7863C46.76 64.7563 46.84 64.6262 46.76 64.3962L45.42 60.8463C45.39 60.7863 45.36 60.7562 45.29 60.7562H42.1899L42.16 60.7363ZM45.0699 60.2162C45.1399 60.2162 45.14 60.1763 45.13 60.1163L43.76 56.2263C43.69 56.0063 43.62 56.0063 43.54 56.2263L42.27 60.1163C42.24 60.1863 42.2701 60.2162 42.3101 60.2162H45.0601H45.0699Z" fill="#A3A3A3"/>
<path d="M51.59 58.2759C51.59 56.0259 51.5901 55.6259 51.5601 55.1659C51.5301 54.6759 51.46 54.4459 50.98 54.3459C50.86 54.3159 50.62 54.3059 50.49 54.3059C50.39 54.3059 50.33 54.2759 50.33 54.2159C50.33 54.1259 50.4001 54.0959 50.5601 54.0959C51.2101 54.0959 52.1199 54.1359 52.1899 54.1359C52.3599 54.1359 53.27 54.0959 54.14 54.0959C55.57 54.0959 58.2 53.9659 59.92 55.7359C60.64 56.4859 61.3199 57.6859 61.3199 59.3959C61.3199 61.2159 60.57 62.6059 59.76 63.4559C59.14 64.1059 57.84 65.1159 55.39 65.1159C54.77 65.1159 54.01 65.0759 53.39 65.0259C52.76 64.9859 52.2699 64.9358 52.1899 64.9358C52.1599 64.9358 51.92 64.9359 51.61 64.9459C51.32 64.9459 50.99 64.9759 50.77 64.9759C50.61 64.9759 50.54 64.9459 50.54 64.8559C50.54 64.8159 50.5701 64.7659 50.6801 64.7659C50.8401 64.7559 50.95 64.7359 51.08 64.7059C51.37 64.6459 51.44 64.3359 51.5 63.9159C51.57 63.3059 51.5699 62.1759 51.5699 60.7859V58.2459L51.59 58.2759ZM52.8 59.8259C52.8 61.3559 52.81 62.6759 52.83 62.9559C52.84 63.3159 52.87 63.8959 52.99 64.0559C53.18 64.3259 53.7399 64.6359 55.4399 64.6359C56.7799 64.6359 58.02 64.1459 58.87 63.2959C59.62 62.5559 60.02 61.1759 60.02 59.8559C60.02 58.0259 59.23 56.8459 58.64 56.2259C57.29 54.7959 55.6401 54.5959 53.9301 54.5959C53.6401 54.5959 53.11 54.6359 52.99 54.6959C52.86 54.7559 52.8199 54.8259 52.8199 54.9859C52.8099 55.4759 52.8101 56.9459 52.8101 58.0559V59.8459L52.8 59.8259Z" fill="#A3A3A3"/>
<path d="M63.28 59.5267C63.28 57.1867 64.98 53.8867 68.96 53.8867C72.2 53.8867 74.62 55.9368 74.62 59.2968C74.62 62.6568 72.34 65.1967 68.87 65.1967C64.92 65.1967 63.28 62.1267 63.28 59.5367V59.5267ZM73.24 59.6967C73.24 56.2367 71.14 54.3767 68.86 54.3767C66.45 54.3767 64.65 55.9668 64.65 59.1168C64.65 62.4768 66.67 64.6367 69.26 64.6367C70.56 64.6367 73.24 63.8867 73.24 59.6967Z" fill="#A3A3A3"/>
<path d="M77.1899 64.8085C76.9899 64.7085 76.97 64.6484 76.97 64.2584C76.97 63.5384 77.03 62.9585 77.04 62.7285C77.05 62.5685 77.08 62.4985 77.16 62.4985C77.25 62.4985 77.26 62.5384 77.26 62.6584C77.26 62.7884 77.26 62.9884 77.3 63.1884C77.52 64.2584 78.4701 64.6584 79.4301 64.6584C80.8101 64.6584 81.49 63.6685 81.49 62.7385C81.49 61.7485 81.07 61.1684 79.83 60.1484L79.1801 59.6185C77.6501 58.3685 77.3101 57.4685 77.3101 56.4885C77.3101 54.9485 78.46 53.8984 80.29 53.8984C80.85 53.8984 81.27 53.9585 81.63 54.0385C81.9 54.0985 82.02 54.1085 82.13 54.1085C82.24 54.1085 82.27 54.1384 82.27 54.2084C82.27 54.2784 82.21 54.7585 82.21 55.7385C82.21 55.9685 82.18 56.0684 82.11 56.0684C82.02 56.0684 82.01 55.9984 81.99 55.8784C81.98 55.7084 81.89 55.3184 81.8 55.1584C81.71 54.9984 81.32 54.3984 80 54.3984C79.01 54.3984 78.23 55.0184 78.23 56.0684C78.23 56.8884 78.6 57.4085 79.99 58.4885L80.39 58.8085C82.09 60.1485 82.49 61.0384 82.49 62.1984C82.49 62.7884 82.26 63.8884 81.26 64.5884C80.64 65.0184 79.86 65.1984 79.08 65.1984C78.4 65.1984 77.74 65.0985 77.15 64.8085H77.1899Z" fill="#A3A3A3"/>
<path d="M91.01 58.2776C91.01 56.0276 91.01 55.6277 90.98 55.1677C90.95 54.6777 90.84 54.4477 90.36 54.3477C90.24 54.3177 90 54.3077 89.87 54.3077C89.81 54.3077 89.75 54.2777 89.75 54.2177C89.75 54.1277 89.82 54.0977 89.98 54.0977C90.63 54.0977 91.49 54.1376 91.61 54.1376C91.93 54.1376 92.7601 54.0977 93.4301 54.0977C95.2301 54.0977 95.88 54.7077 96.11 54.9177C96.43 55.2177 96.83 55.8677 96.83 56.8077C96.83 58.6777 95.33 60.0676 93.28 60.0676C93.21 60.0676 93.05 60.0677 92.98 60.0577C92.91 60.0577 92.8199 60.0276 92.8199 59.9576C92.8199 59.8376 92.91 59.8276 93.21 59.8276C94.61 59.8276 95.7 58.8777 95.7 57.3677C95.7 57.0077 95.66 56.0376 94.89 55.2676C94.12 54.4976 93.25 54.5477 92.92 54.5477C92.67 54.5477 92.43 54.5776 92.3 54.6376C92.21 54.6676 92.1801 54.7677 92.1801 54.9077V60.8276C92.1801 62.2076 92.18 63.3476 92.25 63.9576C92.29 64.3776 92.3801 64.6977 92.8101 64.7477C93.0101 64.7777 93.33 64.8077 93.46 64.8077C93.55 64.8077 93.58 64.8476 93.58 64.8976C93.58 64.9676 93.51 65.0176 93.35 65.0176C92.56 65.0176 91.65 64.9777 91.58 64.9777C91.54 64.9777 90.63 65.0176 90.2 65.0176C90.04 65.0176 89.97 64.9876 89.97 64.8976C89.97 64.8576 90 64.8077 90.09 64.8077C90.22 64.8077 90.39 64.7777 90.52 64.7477C90.81 64.6877 90.8799 64.3776 90.9399 63.9576C91.0099 63.3476 91.01 62.2176 91.01 60.8276V58.2877V58.2776Z" fill="#A3A3A3"/>
<path d="M100.03 60.7363C99.96 60.7363 99.91 60.7763 99.89 60.8563L99.03 63.4062C98.9 63.7663 98.83 64.1162 98.83 64.3762C98.83 64.6662 99.1 64.7963 99.35 64.7963H99.48C99.62 64.7963 99.67 64.8262 99.67 64.8862C99.67 64.9762 99.54 65.0062 99.41 65.0062C99.06 65.0062 98.49 64.9662 98.33 64.9662C98.17 64.9662 97.38 65.0062 96.7 65.0062C96.51 65.0062 96.4301 64.9762 96.4301 64.8862C96.4301 64.8262 96.5 64.7963 96.63 64.7963C96.73 64.7963 96.86 64.7862 96.98 64.7662C97.64 64.6762 97.9299 64.1363 98.1899 63.4163L101.46 54.4662C101.63 53.9862 101.69 53.9062 101.78 53.9062C101.87 53.9062 101.92 53.9763 102.1 54.4263C102.32 54.9763 104.58 60.9263 105.46 63.1163C105.98 64.3963 106.4 64.6262 106.7 64.7162C106.92 64.7862 107.15 64.8063 107.26 64.8063C107.35 64.8063 107.42 64.8162 107.42 64.8962C107.42 64.9862 107.29 65.0162 107.13 65.0162C106.91 65.0162 105.86 65.0163 104.87 64.9863C104.6 64.9763 104.44 64.9762 104.44 64.8862C104.44 64.8262 104.48 64.7963 104.54 64.7863C104.63 64.7563 104.71 64.6262 104.63 64.3962L103.29 60.8463C103.26 60.7863 103.23 60.7562 103.16 60.7562H100.06L100.03 60.7363ZM102.94 60.2162C103.01 60.2162 103.01 60.1763 103 60.1163L101.63 56.2263C101.56 56.0063 101.49 56.0063 101.41 56.2263L100.14 60.1163C100.11 60.1863 100.14 60.2162 100.18 60.2162H102.93H102.94Z" fill="#A3A3A3"/>
<path d="M109.46 58.2776C109.46 56.0276 109.46 55.6277 109.43 55.1677C109.4 54.6777 109.29 54.4477 108.81 54.3477C108.69 54.3177 108.45 54.3077 108.32 54.3077C108.26 54.3077 108.2 54.2777 108.2 54.2177C108.2 54.1277 108.27 54.0977 108.43 54.0977C109.08 54.0977 109.99 54.1376 110.06 54.1376C110.22 54.1376 111.31 54.0977 111.76 54.0977C112.67 54.0977 113.63 54.1877 114.4 54.7277C114.76 54.9877 115.39 55.6976 115.39 56.6876C115.39 57.7576 114.94 58.8176 113.65 60.0176C114.83 61.5276 115.81 62.8176 116.65 63.7076C117.43 64.5276 118.05 64.6877 118.41 64.7477C118.68 64.7877 118.89 64.7877 118.97 64.7877C119.04 64.7877 119.1 64.8276 119.1 64.8776C119.1 64.9676 119.01 64.9977 118.75 64.9977H117.73C116.92 64.9977 116.56 64.9277 116.19 64.7277C115.57 64.3977 115.07 63.6877 114.24 62.6077C113.63 61.8177 112.96 60.8477 112.67 60.4777C112.61 60.4177 112.57 60.3876 112.48 60.3876L110.71 60.3577C110.64 60.3577 110.61 60.3977 110.61 60.4777V60.8276C110.61 62.2076 110.61 63.3476 110.68 63.9576C110.72 64.3776 110.81 64.6977 111.24 64.7477C111.44 64.7777 111.76 64.8077 111.89 64.8077C111.98 64.8077 112.01 64.8476 112.01 64.8976C112.01 64.9676 111.94 65.0176 111.78 65.0176C110.99 65.0176 110.08 64.9777 110.01 64.9777C110 64.9777 109.09 65.0176 108.66 65.0176C108.5 65.0176 108.43 64.9876 108.43 64.8976C108.43 64.8576 108.46 64.8077 108.55 64.8077C108.68 64.8077 108.85 64.7777 108.98 64.7477C109.27 64.6877 109.34 64.3776 109.4 63.9576C109.47 63.3476 109.47 62.2176 109.47 60.8276V58.2877L109.46 58.2776ZM110.61 59.5276C110.61 59.5976 110.64 59.6576 110.71 59.6976C110.93 59.8276 111.59 59.9277 112.22 59.9277C112.57 59.9277 112.97 59.8877 113.3 59.6577C113.8 59.3077 114.18 58.5376 114.18 57.4376C114.18 55.6376 113.23 54.5577 111.69 54.5577C111.26 54.5577 110.87 54.5976 110.72 54.6476C110.65 54.6776 110.6 54.7376 110.6 54.8176V59.5276H110.61Z" fill="#A3A3A3"/>
<path d="M121.28 60.7363C121.21 60.7363 121.16 60.7763 121.14 60.8563L120.28 63.4062C120.15 63.7663 120.08 64.1162 120.08 64.3762C120.08 64.6662 120.35 64.7963 120.6 64.7963H120.73C120.87 64.7963 120.92 64.8262 120.92 64.8862C120.92 64.9762 120.79 65.0062 120.66 65.0062C120.31 65.0062 119.74 64.9662 119.58 64.9662C119.42 64.9662 118.63 65.0062 117.95 65.0062C117.76 65.0062 117.68 64.9762 117.68 64.8862C117.68 64.8262 117.75 64.7963 117.88 64.7963C117.98 64.7963 118.11 64.7862 118.23 64.7662C118.89 64.6762 119.18 64.1363 119.44 63.4163L122.71 54.4662C122.88 53.9862 122.94 53.9062 123.03 53.9062C123.12 53.9062 123.17 53.9763 123.35 54.4263C123.57 54.9763 125.83 60.9263 126.71 63.1163C127.23 64.3963 127.65 64.6262 127.95 64.7162C128.17 64.7862 128.4 64.8063 128.51 64.8063C128.6 64.8063 128.67 64.8162 128.67 64.8962C128.67 64.9862 128.54 65.0162 128.38 65.0162C128.16 65.0162 127.11 65.0163 126.12 64.9863C125.85 64.9763 125.69 64.9762 125.69 64.8862C125.69 64.8262 125.73 64.7963 125.79 64.7863C125.88 64.7563 125.96 64.6262 125.88 64.3962L124.54 60.8463C124.51 60.7863 124.48 60.7562 124.41 60.7562H121.31L121.28 60.7363ZM124.19 60.2162C124.26 60.2162 124.26 60.1763 124.25 60.1163L122.88 56.2263C122.81 56.0063 122.74 56.0063 122.66 56.2263L121.39 60.1163C121.36 60.1863 121.39 60.2162 121.43 60.2162H124.18H124.19Z" fill="#A3A3A3"/>
<path d="M135.49 63.6384C134.09 62.3884 133.75 60.7385 133.75 59.3685C133.75 58.3985 134.08 56.7184 135.36 55.4384C136.22 54.5784 137.54 53.8984 139.76 53.8984C140.34 53.8984 141.14 53.9384 141.85 54.0684C142.4 54.1684 142.84 54.2085 143.38 54.2885C143.48 54.2985 143.51 54.3584 143.51 54.4484C143.51 54.5684 143.47 54.7384 143.44 55.2584C143.41 55.7384 143.41 56.5285 143.4 56.7385C143.39 56.9585 143.36 57.0385 143.27 57.0385C143.17 57.0385 143.15 56.9385 143.15 56.7385C143.15 56.1785 142.92 55.5884 142.54 55.2684C142.04 54.8384 140.93 54.4484 139.66 54.4484C137.74 54.4484 136.85 55.0085 136.34 55.4985C135.29 56.5085 135.04 57.7884 135.04 59.2584C135.04 62.0084 137.16 64.5385 140.24 64.5385C141.32 64.5385 142.17 64.4084 142.75 63.8184C143.05 63.4984 143.24 62.8685 143.28 62.6085C143.31 62.4485 143.34 62.3884 143.42 62.3884C143.49 62.3884 143.52 62.4885 143.52 62.6085C143.52 62.7085 143.35 63.9584 143.2 64.4584C143.11 64.7284 143.08 64.7584 142.83 64.8784C142.25 65.1084 141.16 65.2084 140.24 65.2084C138.08 65.2084 136.62 64.6784 135.48 63.6484L135.49 63.6384Z" fill="#A3A3A3"/>
<path d="M146.7 58.2776C146.7 56.0276 146.7 55.6277 146.67 55.1677C146.64 54.6777 146.53 54.4477 146.05 54.3477C145.93 54.3177 145.69 54.3077 145.56 54.3077C145.5 54.3077 145.44 54.2777 145.44 54.2177C145.44 54.1277 145.51 54.0977 145.67 54.0977C146.32 54.0977 147.23 54.1376 147.3 54.1376C147.46 54.1376 148.55 54.0977 149 54.0977C149.91 54.0977 150.87 54.1877 151.64 54.7277C152 54.9877 152.63 55.6976 152.63 56.6876C152.63 57.7576 152.18 58.8176 150.89 60.0176C152.07 61.5276 153.05 62.8176 153.89 63.7076C154.67 64.5276 155.29 64.6877 155.65 64.7477C155.92 64.7877 156.13 64.7877 156.21 64.7877C156.28 64.7877 156.34 64.8276 156.34 64.8776C156.34 64.9676 156.25 64.9977 155.99 64.9977H154.97C154.16 64.9977 153.8 64.9277 153.43 64.7277C152.81 64.3977 152.31 63.6877 151.48 62.6077C150.87 61.8177 150.2 60.8477 149.91 60.4777C149.85 60.4177 149.81 60.3876 149.72 60.3876L147.95 60.3577C147.88 60.3577 147.85 60.3977 147.85 60.4777V60.8276C147.85 62.2076 147.85 63.3476 147.92 63.9576C147.96 64.3776 148.05 64.6977 148.48 64.7477C148.68 64.7777 149 64.8077 149.13 64.8077C149.22 64.8077 149.25 64.8476 149.25 64.8976C149.25 64.9676 149.18 65.0176 149.02 65.0176C148.23 65.0176 147.32 64.9777 147.25 64.9777C147.24 64.9777 146.33 65.0176 145.9 65.0176C145.74 65.0176 145.67 64.9876 145.67 64.8976C145.67 64.8576 145.7 64.8077 145.79 64.8077C145.92 64.8077 146.09 64.7777 146.22 64.7477C146.51 64.6877 146.58 64.3776 146.64 63.9576C146.71 63.3476 146.71 62.2176 146.71 60.8276V58.2877L146.7 58.2776ZM147.86 59.5276C147.86 59.5976 147.89 59.6576 147.96 59.6976C148.18 59.8276 148.84 59.9277 149.47 59.9277C149.82 59.9277 150.22 59.8877 150.55 59.6577C151.05 59.3077 151.43 58.5376 151.43 57.4376C151.43 55.6376 150.48 54.5577 148.94 54.5577C148.51 54.5577 148.12 54.5976 147.97 54.6476C147.9 54.6776 147.85 54.7376 147.85 54.8176V59.5276H147.86Z" fill="#A3A3A3"/>
<path d="M157.57 58.2766C157.57 56.0266 157.57 55.6266 157.54 55.1666C157.51 54.6766 157.4 54.4466 156.92 54.3466C156.82 54.3166 156.63 54.3166 156.5 54.3066C156.4 54.2966 156.31 54.2766 156.31 54.2166C156.31 54.1266 156.38 54.0966 156.54 54.0966C156.87 54.0966 157.26 54.0965 158.17 54.1365C158.27 54.1365 161.14 54.1365 161.47 54.1265C161.79 54.1165 162.05 54.0866 162.13 54.0366C162.21 53.9866 162.25 53.9766 162.29 53.9766C162.33 53.9766 162.35 54.0366 162.35 54.1066C162.35 54.2066 162.26 54.3766 162.23 54.7866C162.22 55.0066 162.2 55.2765 162.17 55.6465C162.16 55.7865 162.11 55.8965 162.05 55.8965C161.96 55.8965 161.93 55.8265 161.93 55.7065C161.93 55.5165 161.9 55.3466 161.86 55.2266C161.76 54.8966 161.46 54.7465 160.82 54.6965C160.57 54.6665 159 54.6566 158.85 54.6566C158.79 54.6566 158.76 54.6966 158.76 54.7966V58.7766C158.76 58.8766 158.77 58.9166 158.85 58.9166C159.04 58.9166 160.81 58.9165 161.14 58.8865C161.53 58.8565 161.72 58.8165 161.86 58.6465C161.93 58.5565 161.98 58.5065 162.03 58.5065C162.07 58.5065 162.1 58.5365 162.1 58.6265C162.1 58.7165 162.03 58.9565 161.98 59.4365C161.94 59.8865 161.94 60.2166 161.92 60.4166C161.91 60.5566 161.88 60.6365 161.82 60.6365C161.73 60.6365 161.72 60.5166 161.72 60.4066C161.72 60.2766 161.71 60.1365 161.66 60.0065C161.6 59.7865 161.43 59.5866 160.91 59.5266C160.52 59.4866 159.09 59.4565 158.85 59.4565C158.78 59.4565 158.75 59.4966 158.75 59.5566V60.8265C158.75 61.3165 158.74 62.9866 158.75 63.2866C158.78 63.8766 158.87 64.1965 159.23 64.3365C159.47 64.4365 159.86 64.4666 160.43 64.4666C160.86 64.4666 161.34 64.4565 161.73 64.3365C162.19 64.1965 162.35 63.8865 162.47 63.2665C162.5 63.1065 162.53 63.0466 162.6 63.0466C162.69 63.0466 162.69 63.1665 162.69 63.2665C162.69 63.3865 162.57 64.3666 162.5 64.6666C162.4 65.0366 162.28 65.0366 161.72 65.0366C160.65 65.0366 160.18 65.0066 159.62 64.9966C159.04 64.9866 158.38 64.9565 157.82 64.9565C157.47 64.9565 157.13 65.0166 156.75 64.9966C156.59 64.9966 156.52 64.9665 156.52 64.8765C156.52 64.8365 156.59 64.8066 156.68 64.7866C156.82 64.7766 156.91 64.7766 157.01 64.7466C157.31 64.6766 157.5 64.4765 157.53 63.3965C157.54 62.8365 157.56 62.0965 157.56 60.8165V58.2766H157.57Z" fill="#A3A3A3"/>
<path d="M167.27 60.7363C167.2 60.7363 167.15 60.7763 167.13 60.8563L166.27 63.4062C166.14 63.7663 166.07 64.1162 166.07 64.3762C166.07 64.6662 166.34 64.7963 166.59 64.7963H166.72C166.86 64.7963 166.91 64.8262 166.91 64.8862C166.91 64.9762 166.78 65.0062 166.65 65.0062C166.3 65.0062 165.73 64.9662 165.57 64.9662C165.41 64.9662 164.62 65.0062 163.94 65.0062C163.75 65.0062 163.67 64.9762 163.67 64.8862C163.67 64.8262 163.74 64.7963 163.87 64.7963C163.97 64.7963 164.1 64.7862 164.22 64.7662C164.88 64.6762 165.17 64.1363 165.43 63.4163L168.7 54.4662C168.87 53.9862 168.93 53.9062 169.02 53.9062C169.11 53.9062 169.16 53.9763 169.34 54.4263C169.56 54.9763 171.82 60.9263 172.7 63.1163C173.22 64.3963 173.64 64.6262 173.94 64.7162C174.16 64.7862 174.39 64.8063 174.5 64.8063C174.59 64.8063 174.66 64.8162 174.66 64.8962C174.66 64.9862 174.53 65.0162 174.37 65.0162C174.15 65.0162 173.1 65.0163 172.11 64.9863C171.84 64.9763 171.68 64.9762 171.68 64.8862C171.68 64.8262 171.72 64.7963 171.78 64.7863C171.87 64.7563 171.95 64.6262 171.87 64.3962L170.53 60.8463C170.5 60.7863 170.47 60.7562 170.4 60.7562H167.3L167.27 60.7363ZM170.18 60.2162C170.25 60.2162 170.25 60.1763 170.24 60.1163L168.87 56.2263C168.8 56.0063 168.73 56.0063 168.65 56.2263L167.38 60.1163C167.35 60.1863 167.38 60.2162 167.42 60.2162H170.17H170.18Z" fill="#A3A3A3"/>
<path d="M176.7 58.2776C176.7 56.0276 176.7 55.6277 176.67 55.1677C176.64 54.6777 176.53 54.4477 176.05 54.3477C175.93 54.3177 175.69 54.3077 175.56 54.3077C175.5 54.3077 175.44 54.2777 175.44 54.2177C175.44 54.1277 175.51 54.0977 175.67 54.0977C176.32 54.0977 177.23 54.1376 177.3 54.1376C177.46 54.1376 178.55 54.0977 179 54.0977C179.91 54.0977 180.87 54.1877 181.64 54.7277C182 54.9877 182.63 55.6976 182.63 56.6876C182.63 57.7576 182.18 58.8176 180.89 60.0176C182.07 61.5276 183.05 62.8176 183.89 63.7076C184.67 64.5276 185.29 64.6877 185.65 64.7477C185.92 64.7877 186.13 64.7877 186.21 64.7877C186.28 64.7877 186.34 64.8276 186.34 64.8776C186.34 64.9676 186.25 64.9977 185.99 64.9977H184.97C184.16 64.9977 183.8 64.9277 183.43 64.7277C182.81 64.3977 182.31 63.6877 181.48 62.6077C180.87 61.8177 180.2 60.8477 179.91 60.4777C179.85 60.4177 179.81 60.3876 179.72 60.3876L177.95 60.3577C177.88 60.3577 177.85 60.3977 177.85 60.4777V60.8276C177.85 62.2076 177.85 63.3476 177.92 63.9576C177.96 64.3776 178.05 64.6977 178.48 64.7477C178.68 64.7777 179 64.8077 179.13 64.8077C179.22 64.8077 179.25 64.8476 179.25 64.8976C179.25 64.9676 179.18 65.0176 179.02 65.0176C178.23 65.0176 177.32 64.9777 177.25 64.9777C177.24 64.9777 176.33 65.0176 175.9 65.0176C175.74 65.0176 175.67 64.9876 175.67 64.8976C175.67 64.8576 175.7 64.8077 175.79 64.8077C175.92 64.8077 176.09 64.7777 176.22 64.7477C176.51 64.6877 176.58 64.3776 176.64 63.9576C176.71 63.3476 176.71 62.2176 176.71 60.8276V58.2877L176.7 58.2776ZM177.85 59.5276C177.85 59.5976 177.88 59.6576 177.95 59.6976C178.17 59.8276 178.83 59.9277 179.46 59.9277C179.81 59.9277 180.21 59.8877 180.54 59.6577C181.04 59.3077 181.42 58.5376 181.42 57.4376C181.42 55.6376 180.47 54.5577 178.93 54.5577C178.5 54.5577 178.11 54.5976 177.96 54.6476C177.89 54.6776 177.84 54.7376 177.84 54.8176V59.5276H177.85Z" fill="#A3A3A3"/>
</svg>
