<svg width="216" height="72" viewBox="0 0 216 72" fill="none" xmlns="http://www.w3.org/2000/svg">
<path d="M199.92 60.6811C199.08 60.6811 198.39 60.0011 198.39 59.1511C198.39 58.3011 199.07 57.6211 199.92 57.6211C200.77 57.6211 201.45 58.3011 201.45 59.1511C201.45 60.0011 200.77 60.6811 199.92 60.6811ZM199.92 57.8811C199.22 57.8811 198.65 58.4511 198.65 59.1511C198.65 59.8511 199.22 60.4211 199.92 60.4211C200.62 60.4211 201.19 59.8511 201.19 59.1511C201.19 58.4511 200.62 57.8811 199.92 57.8811Z" fill="#A3A3A3"/>
<path d="M199.68 59.3216V59.9716H199.41V58.3516H199.87C200.08 58.3516 200.23 58.3916 200.33 58.4716C200.43 58.5516 200.48 58.6716 200.48 58.8216C200.48 59.0216 200.38 59.1716 200.17 59.2516L200.63 59.9716H200.33L199.94 59.3216H199.68ZM199.68 59.1016H199.86C199.98 59.1016 200.07 59.0816 200.13 59.0316C200.19 58.9816 200.21 58.9216 200.21 58.8316C200.21 58.7416 200.18 58.6716 200.12 58.6316C200.06 58.5916 199.97 58.5716 199.85 58.5716H199.67V59.1016H199.68Z" fill="#A3A3A3"/>
<path d="M103.23 29.2199L111.36 13.0898H117.6L113.04 34.6698H108.91L111.05 24.4598C111.57 22.0298 112.09 19.8599 112.6 17.9499H112.53L104.13 34.6698H99.9799L99.08 17.9499H99.02C98.91 18.8199 98.72 19.9499 98.46 21.3599C98.19 22.7699 97.27 27.1998 95.7 34.6698H91.64L96.2 13.0898H102.16L103.16 29.2199H103.22H103.23Z" fill="#A3A3A3"/>
<path d="M136.24 13.0898L133.27 27.0498C132.71 29.6698 131.64 31.6399 130.05 32.9699C128.47 34.2999 126.4 34.9599 123.87 34.9599C121.78 34.9599 120.14 34.3998 118.95 33.2898C117.75 32.1698 117.16 30.6598 117.16 28.7498C117.16 28.0398 117.23 27.3599 117.38 26.7099L120.27 13.0898H124.77L121.91 26.6499C121.74 27.3799 121.66 27.9898 121.66 28.4898C121.66 30.2398 122.59 31.1198 124.45 31.1198C125.66 31.1198 126.62 30.7398 127.33 29.9898C128.04 29.2398 128.55 28.1098 128.86 26.6198L131.72 13.0898H136.24Z" fill="#A3A3A3"/>
<path d="M142.96 34.6698H138.46L142.21 16.8998H137.01L137.82 13.0898H152.73L151.92 16.8998H146.71L142.96 34.6698Z" fill="#A3A3A3"/>
<path d="M170.18 13.0898L167.21 27.0498C166.65 29.6698 165.58 31.6399 163.99 32.9699C162.41 34.2999 160.34 34.9599 157.81 34.9599C155.72 34.9599 154.08 34.3998 152.89 33.2898C151.69 32.1698 151.1 30.6598 151.1 28.7498C151.1 28.0398 151.17 27.3599 151.32 26.7099L154.21 13.0898H158.71L155.85 26.6499C155.68 27.3799 155.6 27.9898 155.6 28.4898C155.6 30.2398 156.53 31.1198 158.39 31.1198C159.6 31.1198 160.56 30.7398 161.27 29.9898C161.98 29.2398 162.49 28.1098 162.81 26.6198L165.67 13.0898H170.19H170.18Z" fill="#A3A3A3"/>
<path d="M180.68 29.53H173.7L171.16 34.67H166.44L177.75 13H183.26L185.43 34.67H181.05L180.7 29.53H180.68ZM180.46 25.69L180.08 20.52C179.98 19.23 179.93 17.99 179.93 16.79V16.26C179.5 17.44 178.96 18.69 178.32 20.01L175.55 25.69H180.46Z" fill="#A3A3A3"/>
<path d="M187.04 34.6698L191.6 13.0898H196.12L192.34 30.8899H199.9L199.1 34.6698H187.04Z" fill="#A3A3A3"/>
<path d="M108.68 55.2901L116.81 39.1602H123.05L118.49 60.7401H114.36L116.5 50.5302C117.02 48.1002 117.54 45.9301 118.05 44.0201H117.98L109.58 60.7401H105.43L104.53 44.0201H104.47C104.36 44.8901 104.17 46.0201 103.91 47.4301C103.64 48.8401 102.72 53.2701 101.15 60.7401H97.09L101.65 39.1602H107.61L108.61 55.2901H108.67H108.68Z" fill="#A3A3A3"/>
<path d="M133.64 60.7401H121.58L126.14 39.1602H138.21L137.41 42.9102H129.85L128.86 47.6501H135.9L135.09 51.4001H128.05L126.87 56.9601H134.43L133.63 60.7401H133.64Z" fill="#A3A3A3"/>
<path d="M155.36 47.3184C155.36 50.0784 154.88 52.4684 153.91 54.4984C152.95 56.5284 151.55 58.0784 149.73 59.1384C147.9 60.1984 145.75 60.7284 143.27 60.7284H136.61L141.17 39.1484H147.01C149.67 39.1484 151.72 39.8484 153.17 41.2584C154.62 42.6684 155.35 44.6784 155.35 47.3084L155.36 47.3184ZM143.48 56.9584C144.94 56.9584 146.21 56.5884 147.29 55.8384C148.37 55.0884 149.22 53.9884 149.83 52.5384C150.44 51.0884 150.75 49.4284 150.75 47.5584C150.75 46.0384 150.39 44.8884 149.68 44.0984C148.97 43.3084 147.94 42.9084 146.6 42.9084H144.9L141.92 56.9584H143.48Z" fill="#A3A3A3"/>
<path d="M155.19 60.7401L159.79 39.1602H164.29L159.69 60.7401H155.19Z" fill="#A3A3A3"/>
<path d="M192.49 55.6003H185.51L182.97 60.7403H178.25L189.56 39.0703H195.07L197.24 60.7403H192.86L192.51 55.6003H192.49ZM192.27 51.7603L191.89 46.5903C191.79 45.3003 191.74 44.0603 191.74 42.8603V42.3303C191.31 43.5103 190.77 44.7603 190.13 46.0803L187.36 51.7603H192.27Z" fill="#A3A3A3"/>
<path d="M179.04 39.1503C178.09 38.9303 176.99 38.8203 175.76 38.8203C173.54 38.8203 171.57 39.3803 169.86 40.5103C168.15 41.6403 166.78 43.2803 165.76 45.4503C164.74 47.6203 164.23 49.9903 164.23 52.5703C164.23 55.1503 164.92 57.3503 166.31 58.8203C167.7 60.2903 169.64 61.0303 172.14 61.0303C173.82 61.0303 175.5 60.7503 177.17 60.2003L178.05 56.0703V56.0503C176.16 56.8103 174.5 57.1903 173.06 57.1903C171.62 57.1903 170.51 56.7903 169.84 55.9903C169.17 55.1903 168.83 53.9703 168.83 52.3303C168.83 50.5503 169.14 48.8803 169.77 47.3303C170.4 45.7803 171.23 44.6103 172.27 43.8103C173.31 43.0103 174.48 42.6103 175.78 42.6103C176.45 42.6103 177.12 42.7003 177.8 42.8903C178.48 43.0803 179.34 43.4603 180.38 44.0403L182.12 40.3503C181.03 39.7603 180 39.3503 179.05 39.1303L179.04 39.1503Z" fill="#A3A3A3"/>
<path d="M27.6799 12C26.1599 12 24.7999 12.67 23.8499 13.71C23.2799 14.33 22.87 15.1 22.65 15.94L22.5699 16.3L14.34 55.23C14.24 55.54 14.1699 55.87 14.1299 56.2C14.1099 56.4 14.09 56.6 14.09 56.8C14.09 59.68 16.4199 62.02 19.2999 62.02H19.3099C21.7199 62.02 23.7499 60.38 24.3499 58.15L24.4699 57.59L28.7599 37.18L31.95 21.99L32.5499 19.15L32.9199 17.41L33.7 13.71C32.75 12.67 31.3899 12.01 29.8699 12H27.6799Z" fill="#A3A3A3"/>
<path d="M33.1799 58.0889V58.1089C33.2799 58.4789 33.42 58.8289 33.58 59.1589L38.7899 34.3589L34.9699 16.2789L34.9 15.9589C34.81 15.5789 34.6599 15.2189 34.4899 14.8789L29.2899 39.6489L33.08 57.6589C33.1 57.7989 33.1299 57.9489 33.1699 58.0889H33.1799Z" fill="#A3A3A3"/>
<path d="M40.4 62.0195C41.94 62.0195 43.32 61.3495 44.27 60.2895C44.34 60.2195 44.3999 60.1395 44.4699 60.0595C44.4899 60.0395 44.5 60.0195 44.52 59.9995C44.58 59.9295 44.6299 59.8495 44.6899 59.7795C44.6899 59.7795 44.69 59.7695 44.7 59.7595C44.76 59.6695 44.8199 59.5895 44.8699 59.4995C44.8699 59.4895 44.89 59.4695 44.9 59.4595C44.95 59.3695 44.9999 59.2895 45.0499 59.1995C45.0499 59.1995 45.0499 59.1995 45.0499 59.1895C45.0999 59.0895 45.1499 58.9895 45.1899 58.8895C45.2299 58.7895 45.2799 58.6795 45.3099 58.5695C45.3899 58.3495 45.4499 58.1295 45.4999 57.8995L49.8499 37.2095L53.0399 22.0195L53.6299 19.1995L53.9999 17.4195L54.77 13.7295C53.82 12.6895 52.4599 12.0295 50.9399 12.0195H48.7499C47.2299 12.0195 45.8599 12.6895 44.9199 13.7295C44.3199 14.3895 43.8899 15.2095 43.6899 16.1195L43.6699 16.2295L39.3099 36.8395L36.09 52.0595L35.4299 55.1695L35.1799 56.3295L34.34 60.3195C35.29 61.3795 36.67 62.0495 38.21 62.0495H40.39L40.4 62.0195Z" fill="#A3A3A3"/>
<path d="M59.2999 62.0295C57.7699 62.0295 56.3899 61.3695 55.4399 60.3095L56.2899 56.2695L56.52 55.1995L57.1899 52.0395L60.4 36.8495L64.7399 16.3195L64.8199 15.9595C65.0299 15.1195 65.45 14.3495 66.02 13.7295C66.97 12.6895 68.3299 12.0295 69.8499 12.0195H72.0399C73.5599 12.0195 74.9199 12.6895 75.8699 13.7295L75.09 17.4295L74.7199 19.1695L74.1199 22.0095L70.9299 37.1995L66.6099 57.7595L66.5499 58.0395C66.3399 58.8995 65.9199 59.6795 65.3499 60.3195C64.3999 61.3695 63.0199 62.0395 61.4899 62.0395H59.2899L59.2999 62.0295Z" fill="#A3A3A3"/>
<path d="M54.6699 59.1911L59.8799 34.3811L56.08 16.4011C56.05 16.2311 56.0199 16.0611 55.9699 15.9011C55.8799 15.5411 55.7399 15.2011 55.5699 14.8711L50.3699 39.6411L54.15 57.6411C54.18 57.8111 54.2099 57.9811 54.2599 58.1511C54.3599 58.5211 54.4999 58.8711 54.6699 59.2011V59.1911Z" fill="#A3A3A3"/>
<path d="M85.52 55.9685V55.9284C85.5 55.7884 85.4699 55.6485 85.4299 55.5085L77.15 16.2885L77.08 15.9684C76.99 15.5884 76.8499 15.2384 76.6799 14.8984L71.4699 39.6784L75.2599 57.7484L75.33 58.0685C75.89 60.3385 77.9299 62.0284 80.3799 62.0384C83.2499 62.0384 85.58 59.7085 85.58 56.8285C85.58 56.5385 85.5599 56.2584 85.5099 55.9784L85.52 55.9685Z" fill="#A3A3A3"/>
</svg>
