<svg width="1313" height="658" viewBox="0 0 1313 658" fill="none" xmlns="http://www.w3.org/2000/svg">
<path d="M489.771 161.363C425.706 161.363 373.739 213.287 373.739 277.395C373.739 341.502 425.663 393.426 489.771 393.426C553.879 393.426 605.802 341.502 605.802 277.395C605.802 213.287 553.879 161.363 489.771 161.363ZM489.771 348.822C450.333 348.822 418.343 316.832 418.343 277.395C418.343 237.957 450.333 205.967 489.771 205.967C529.209 205.967 561.198 237.957 561.198 277.395C561.198 316.832 529.209 348.822 489.771 348.822Z" fill="white"/>
<path d="M1064.16 161.363C1000.09 161.363 948.126 213.287 948.126 277.395C948.126 341.502 1000.05 393.426 1064.16 393.426C1128.26 393.426 1180.19 341.502 1180.19 277.395C1180.19 213.287 1128.26 161.363 1064.16 161.363ZM1064.16 348.822C1024.72 348.822 992.73 316.832 992.73 277.395C992.73 237.957 1024.72 205.967 1064.16 205.967C1103.59 205.967 1135.58 237.957 1135.58 277.395C1135.58 316.832 1103.59 348.822 1064.16 348.822Z" fill="white"/>
<path d="M202.555 161.363C138.491 161.363 86.5244 213.287 86.5244 277.395V393.426H131.085V277.395C131.085 237.957 163.075 205.967 202.513 205.967C241.951 205.967 273.94 237.957 273.94 277.395V393.426H318.501V277.395C318.501 213.33 266.578 161.363 202.47 161.363H202.555Z" fill="white"/>
<path d="M848.37 97.3398V186.075C828.651 170.618 803.895 161.362 776.943 161.362C712.878 161.362 660.912 213.285 660.912 277.393C660.912 341.501 712.835 393.424 776.943 393.424C841.051 393.424 892.975 341.501 892.975 277.393V97.3398H848.413H848.37ZM776.943 348.82C737.505 348.82 705.516 316.831 705.516 277.393C705.516 237.955 737.505 205.966 776.943 205.966C816.381 205.966 848.37 237.955 848.37 277.393C848.37 316.831 816.381 348.82 776.943 348.82Z" fill="white"/>
<path d="M127.081 493.818C127.081 506.089 119.288 514.226 107.62 514.226C101.377 514.226 96.6841 511.255 94.0147 507.122V530.974H86.5664V473.755L91.8189 473.497C92.4217 476.209 92.9383 481.203 92.8522 482.796H92.9384C95.1341 477.63 99.8702 473.238 108.094 473.238C119.331 473.238 127.124 481.462 127.124 493.818H127.081ZM119.46 493.818C119.46 485.251 114.552 479.524 106.673 479.524C98.1913 479.524 93.9716 487.059 93.9716 492.957V494.55C93.9716 500.578 97.9329 507.94 107.19 507.94C114.638 507.94 119.46 502.257 119.46 493.818Z" fill="white"/>
<path d="M190.028 513.623C190.028 513.623 188.091 514.14 185.981 514.14C181.848 514.14 178.791 512.203 178.791 507.553V507.466H178.619C177.499 509.49 174.055 514.226 164.755 514.226C155.972 514.226 151.236 509.662 151.236 503.161C151.236 494.464 159.546 490.977 177.112 490.977H178.317V488.437C178.317 483.012 175.002 479.567 168.415 479.567C162.732 479.567 159.287 481.849 159.287 485.982C159.287 486.93 159.46 487.403 159.718 488.006L152.7 489.168C152.7 489.168 152.183 487.662 152.183 485.681C152.183 478.405 158.427 473.238 168.587 473.238C179.437 473.238 185.766 479.094 185.766 488.307V504.453C185.766 506.648 186.368 507.51 188.22 507.51C188.736 507.51 189.339 507.423 189.64 507.337L190.071 513.58L190.028 513.623ZM178.275 499.932V496.143H177.069C163.464 496.143 158.814 498.597 158.814 502.989C158.814 506.132 161.182 507.983 166.262 507.983C174.055 507.983 178.275 503.678 178.275 499.932Z" fill="white"/>
<path d="M219.646 465.837C216.762 465.837 214.479 463.727 214.479 460.842C214.479 457.957 216.762 455.762 219.646 455.762C222.531 455.762 224.899 457.957 224.899 460.842C224.899 463.727 222.531 465.837 219.646 465.837ZM215.685 473.758L223.22 473.5V513.713H215.685V473.758Z" fill="white"/>
<path d="M290.254 453.949V513.709L284.744 513.967C284.313 511.168 283.882 506.26 283.968 504.667H283.71C281.428 510.006 276.434 514.225 268.727 514.225C257.49 514.225 249.697 506.002 249.697 493.645C249.697 481.289 257.49 473.237 269.158 473.237C275.659 473.237 280.136 476.122 282.763 479.997V453.949H290.211H290.254ZM282.806 494.506V492.913C282.806 486.886 278.845 479.523 269.588 479.523C262.14 479.523 257.318 485.206 257.318 493.645C257.318 502.084 262.226 507.939 270.105 507.939C278.587 507.939 282.806 500.405 282.806 494.506Z" fill="white"/>
<path d="M418.771 489.422V513.705H411.236V489.422C411.236 483.567 407.921 479.692 401.937 479.692C394.402 479.692 390.699 487.054 390.699 492.824V513.705H383.165V489.422C383.165 483.567 379.85 479.692 373.865 479.692C366.331 479.692 362.628 487.054 362.628 492.824V513.705H355.18V473.75L360.432 473.492C361.121 476.549 361.465 481.027 361.465 482.792C363.489 477.712 367.881 473.406 375.157 473.406C382.261 473.406 387.427 476.98 389.537 482.706C391.647 477.625 396.038 473.406 403.228 473.406C412.786 473.406 418.814 479.821 418.814 489.379L418.771 489.422Z" fill="white"/>
<path d="M452.486 495.748C453.261 503.11 458.256 507.932 466.178 507.932C472.248 507.932 475.736 505.048 477.501 502.68L482.064 506.813C478.362 511.721 472.42 514.175 465.575 514.175C452.788 514.175 444.779 505.952 444.779 493.768C444.779 481.842 452.486 473.188 464.585 473.188C476.683 473.188 482.797 481.411 482.797 491.873C482.797 494.241 482.452 495.662 482.452 495.662H452.486V495.748ZM452.659 490.409H475.176C475.09 483.822 470.957 479.474 464.585 479.474C458.213 479.474 453.735 483.951 452.659 490.409Z" fill="white"/>
<path d="M547.206 453.949V513.709L541.695 513.967C541.264 511.168 540.834 506.26 540.92 504.667H540.661C538.38 510.006 533.385 514.225 525.679 514.225C514.441 514.225 506.648 506.002 506.648 493.645C506.648 481.375 514.441 473.237 526.109 473.237C532.61 473.237 537.088 476.122 539.714 479.997V453.949H547.163H547.206ZM539.757 494.506V492.913C539.757 486.886 535.796 479.523 526.539 479.523C519.091 479.523 514.269 485.206 514.269 493.645C514.269 502.213 519.177 507.939 527.056 507.939C535.538 507.939 539.757 500.405 539.757 494.506Z" fill="white"/>
<path d="M580.011 465.837C577.126 465.837 574.845 463.727 574.845 460.842C574.845 457.957 577.126 455.762 580.011 455.762C582.896 455.762 585.264 457.957 585.264 460.842C585.264 463.727 582.896 465.837 580.011 465.837ZM576.05 473.758L583.584 473.5V513.713H576.05V473.758Z" fill="white"/>
<path d="M648.984 513.623C648.984 513.623 647.047 514.14 644.937 514.14C640.804 514.14 637.747 512.203 637.747 507.553V507.466H637.575C636.455 509.49 633.011 514.226 623.711 514.226C614.928 514.226 610.192 509.662 610.192 503.161C610.192 494.464 618.502 490.977 636.068 490.977H637.274V488.437C637.274 483.012 633.958 479.567 627.371 479.567C621.688 479.567 618.244 481.849 618.244 485.982C618.244 486.93 618.416 487.403 618.674 488.006L611.656 489.168C611.656 489.168 611.139 487.662 611.139 485.681C611.139 478.405 617.383 473.238 627.543 473.238C638.393 473.238 644.722 479.094 644.722 488.307V504.453C644.722 506.648 645.325 507.51 647.176 507.51C647.693 507.51 648.296 507.423 648.597 507.337L649.027 513.58L648.984 513.623ZM637.231 499.932V496.143H636.025C622.42 496.143 617.77 498.597 617.77 502.989C617.77 506.132 620.138 507.983 625.218 507.983C633.011 507.983 637.231 503.678 637.231 499.932Z" fill="white"/>
<path d="M733.458 486.111C733.458 481.978 729.798 479.524 724.589 479.524C719.379 479.524 716.71 481.806 716.71 485.121C716.71 494.507 740.734 487.748 740.993 502.903C741.079 510.093 734.233 514.226 724.503 514.226C714.773 514.226 709.52 510.093 707.238 508.198L711.802 503.118C713.481 504.711 718.475 507.94 724.589 507.94C730.53 507.94 733.372 505.83 733.372 502.773C733.372 494.55 709.089 499.803 709.089 484.992C709.089 478.405 715.332 473.238 724.761 473.238C734.19 473.238 740.433 478.146 740.433 484.734C740.433 486.327 740.089 487.532 740.089 487.532L733.243 488.049C733.415 487.446 733.501 486.714 733.501 486.111H733.458Z" fill="white"/>
<path d="M806.176 493.904C806.176 506.003 797.952 514.226 785.596 514.226C773.239 514.226 765.016 506.003 765.016 493.904C765.016 481.806 773.239 473.238 785.596 473.238C797.952 473.238 806.176 481.806 806.176 493.904ZM798.555 493.904C798.555 485.595 793.389 479.524 785.596 479.524C777.803 479.524 772.636 485.595 772.636 493.904C772.636 502.214 777.803 507.94 785.596 507.94C793.389 507.94 798.555 502.171 798.555 493.904Z" fill="white"/>
<path d="M832.569 453.949H840.018V513.709H832.569V453.949Z" fill="white"/>
<path d="M903.821 473.758V513.712L898.396 513.971C897.708 510.914 897.363 506.436 897.363 505.489H897.277C895.082 510.311 890.862 514.186 883.973 514.186C874.415 514.186 868.388 507.771 868.388 498.213V473.758H875.922V498.213C875.922 504.068 879.238 507.943 885.222 507.943C892.584 507.943 896.287 500.409 896.287 494.639V473.758H903.736H903.821Z" fill="white"/>
<path d="M960.179 511.6C960.179 511.6 956.218 514.226 949.674 514.226C939.341 514.226 935.208 508.715 935.208 498.468V479.782H928.879V473.755H935.208V461.915L942.742 461.484V473.755H958.242V479.782H942.742V498.21C942.742 504.625 945.024 507.854 950.449 507.854C955.099 507.854 957.811 505.572 957.811 505.572L960.179 511.6Z" fill="white"/>
<path d="M987.779 465.837C984.894 465.837 982.612 463.727 982.612 460.842C982.612 457.957 984.894 455.762 987.779 455.762C990.663 455.762 993.032 457.957 993.032 460.842C993.032 463.727 990.663 465.837 987.779 465.837ZM983.818 473.758L991.352 473.5V513.713H983.818V473.758Z" fill="white"/>
<path d="M1058.86 493.904C1058.86 506.003 1050.64 514.226 1038.28 514.226C1025.93 514.226 1017.7 506.003 1017.7 493.904C1017.7 481.806 1025.93 473.238 1038.28 473.238C1050.64 473.238 1058.86 481.806 1058.86 493.904ZM1051.29 493.904C1051.29 485.595 1046.12 479.524 1038.33 479.524C1030.53 479.524 1025.37 485.595 1025.37 493.904C1025.37 502.214 1030.53 507.94 1038.33 507.94C1046.12 507.94 1051.29 502.171 1051.29 493.904Z" fill="white"/>
<path d="M1121.5 489.255V513.709H1113.97V489.255C1113.97 483.399 1110.66 479.524 1104.67 479.524C1096.36 479.524 1092.66 487.059 1092.66 492.828V513.709H1085.21V473.755L1090.46 473.497C1091.15 476.553 1091.5 481.031 1091.5 482.796H1091.75C1093.86 477.802 1098.34 473.238 1105.96 473.238C1115.52 473.238 1121.55 479.653 1121.55 489.212L1121.5 489.255Z" fill="white"/>
<path d="M1172.61 486.111C1172.61 481.978 1168.95 479.524 1163.74 479.524C1158.53 479.524 1155.86 481.806 1155.86 485.121C1155.86 494.507 1179.89 487.748 1180.15 502.903C1180.23 510.093 1173.39 514.226 1163.66 514.226C1153.84 514.226 1148.67 510.093 1146.39 508.198L1150.95 503.118C1152.63 504.711 1157.63 507.94 1163.74 507.94C1169.68 507.94 1172.52 505.83 1172.52 502.773C1172.52 494.55 1148.24 499.803 1148.24 484.992C1148.24 478.405 1154.48 473.238 1163.91 473.238C1173.34 473.238 1179.59 478.146 1179.59 484.734C1179.59 486.327 1179.24 487.532 1179.24 487.532L1172.4 488.049C1172.57 487.446 1172.65 486.714 1172.65 486.111H1172.61Z" fill="white"/>
<line x1="87" y1="623.742" x2="1175" y2="623.742" stroke="white" stroke-width="7"/>
</svg>
