<svg width="787" height="399" viewBox="0 0 787 399" fill="none" xmlns="http://www.w3.org/2000/svg">
<path d="M345.314 199.407C345.314 160.106 345.414 120.855 345.213 81.5537C345.213 76.8416 346.016 74.9869 351.279 75.1373C363.11 75.5885 374.94 75.3877 386.821 75.1872C390.28 75.1371 391.432 76.1397 391.282 79.5986C391.031 85.4135 391.382 91.2789 391.182 97.0939C391.032 101.355 392.235 101.405 395.493 99.3996C412.888 88.6219 431.937 83.5087 452.289 84.01C482.818 84.7619 508.333 96.6928 528.836 119.301C531.693 122.459 532.947 122.71 535.854 119.301C564.328 86.7672 610.296 75.388 650.951 90.527C691.806 105.766 718.926 144.115 719.126 187.577C719.327 231.39 719.126 275.152 719.277 318.965C719.277 322.875 718.224 324.078 714.264 324.028C702.784 323.777 691.304 323.727 679.875 324.028C674.862 324.178 673.208 322.975 673.208 317.561C673.458 276.405 673.108 235.249 673.459 194.093C673.609 173.992 668.045 156.597 652.204 143.613C633.255 128.124 611.85 125.417 589.893 135.242C567.937 145.067 555.856 163.064 555.505 187.176C554.853 230.788 555.254 274.35 555.404 317.962C555.404 322.474 554.502 324.128 549.64 323.978C538.16 323.577 526.681 323.627 515.251 323.978C510.539 324.128 509.236 322.724 509.286 318.012C509.386 274.801 509.436 231.59 509.186 188.328C509.035 155.795 483.269 130.63 451.387 129.828C420.106 129.026 391.382 154.441 391.282 188.429C391.132 231.289 391.132 274.15 391.382 316.96C391.382 322.825 389.828 324.178 384.214 323.978C373.135 323.527 362.057 323.627 350.928 323.978C346.467 324.078 345.213 322.775 345.213 318.263C345.414 278.611 345.314 238.959 345.314 199.307V199.407Z" fill="#A3A3A3"/>
<path d="M74.5161 128.318C74.5161 112.327 74.6165 96.3858 74.416 80.3947C74.416 76.635 75.1678 75.131 79.2784 75.2312C91.5099 75.532 103.691 75.4819 115.923 75.2312C119.482 75.1811 120.434 76.2338 120.284 79.6426C120.033 85.6581 120.184 91.6738 120.284 97.6893C120.284 98.9425 120.184 100.797 120.936 101.349C122.439 102.502 123.592 100.647 124.695 99.8448C140.737 88.1146 158.533 80.595 178.133 77.086C228.563 68.163 280.246 92.4257 306.614 137.442C332.28 181.254 327.919 238.251 295.886 277.452C276.787 300.862 252.424 315.55 222.798 321.716C218.136 322.668 216.983 321.566 217.133 316.954C217.434 304.923 217.334 292.892 217.133 280.861C217.133 277.352 217.986 275.647 221.695 274.544C257.938 263.767 280.396 229.729 276.887 191.03C273.679 155.538 243.651 125.41 207.659 121.601C170.363 117.64 135.473 140.098 124.344 175.69C122.69 180.903 120.485 182.207 115.422 182.006C103.591 181.605 91.7605 181.706 79.9301 182.006C75.8195 182.107 74.4161 181.054 74.4662 176.692C74.7168 160.551 74.5662 144.359 74.5662 128.218L74.5161 128.318Z" fill="#A3A3A3"/>
<path d="M37.5705 278.294C48.2981 278.294 58.9757 278.144 69.7034 278.395C73.7638 278.495 74.7664 277.091 74.7163 273.231C74.5659 251.826 74.7161 230.371 74.5657 208.966C74.5657 204.855 75.4179 203.452 79.8292 203.552C91.8602 203.853 103.891 203.853 115.922 203.552C119.782 203.452 120.584 204.805 120.584 208.364C120.434 229.619 120.685 250.824 120.434 272.078C120.384 276.891 121.487 278.545 126.6 278.445C147.654 278.144 168.708 278.445 189.762 278.194C194.274 278.144 195.477 279.497 195.377 283.909C195.076 295.188 195.026 306.467 195.377 317.746C195.527 322.759 194.374 324.513 188.96 324.413C168.307 324.062 147.604 324.463 126.951 324.163C121.587 324.062 120.384 325.817 120.434 330.88C120.685 351.733 120.434 372.587 120.634 393.441C120.634 397.501 119.682 399.005 115.321 398.855C103.691 398.554 92.0108 398.554 80.3809 398.855C75.9695 398.955 74.616 397.802 74.6661 393.24C74.9167 372.386 74.5658 351.533 74.9167 330.679C75.0169 325.315 73.2626 324.112 68.1995 324.163C47.3459 324.413 26.492 324.162 5.63829 324.363C1.52771 324.363 0.124009 323.41 0.224267 319.049C0.525041 307.018 0.474912 294.987 0.224267 282.956C0.124009 279.146 1.37735 278.144 5.03677 278.244C15.9148 278.445 26.843 278.294 37.721 278.294H37.5705Z" fill="#E2E2E2"/>
<path d="M786.849 162.154C786.849 213.837 786.749 265.52 786.999 317.203C786.999 323.218 785.245 324.321 779.781 324.121C768.501 323.72 757.222 323.87 745.943 324.07C742.234 324.121 741.181 322.968 741.181 319.258C741.282 214.589 741.282 109.919 741.181 5.24989C741.181 1.49021 742.234 0.537793 745.893 0.587922C757.724 0.788438 769.605 0.888696 781.435 0.587922C785.847 0.487664 786.949 1.64051 786.949 6.10199C786.799 58.1359 786.849 110.22 786.849 162.254V162.154Z" fill="#A3A3A3"/>
</svg>
