<svg width="864" height="740" viewBox="0 0 864 740" fill="none" xmlns="http://www.w3.org/2000/svg">
<path d="M378.69 615.582C378.69 576.595 378.822 537.542 378.558 498.554C378.558 492.465 380.08 490.611 386.302 490.677C415.361 491.008 444.419 490.678 473.411 490.81C514.913 490.942 549.002 523.707 551.253 565.144C553.172 600.755 542.053 629.681 509.486 647.818C493.467 656.754 475.927 657.217 458.253 656.952C442.632 656.754 442.632 656.952 442.632 672.64C442.632 692.564 442.367 712.554 442.764 732.478C442.896 738.501 440.844 739.891 435.284 739.759C419.464 739.428 403.578 739.229 387.758 739.825C380.543 740.09 378.359 738.17 378.425 730.757C378.822 692.365 378.624 653.908 378.624 615.516L378.69 615.582ZM442.698 573.484V588.377C442.698 600.248 448.611 605.852 460.437 605.19C480.56 604.065 494.46 583.545 488.238 564.416C482.744 547.735 461.893 537.145 445.478 542.506C442.168 543.565 442.764 545.882 442.764 548.066C442.764 556.539 442.764 565.011 442.764 573.484H442.698Z" fill="#A3A3A3"/>
<path d="M116.701 413.977C129.873 413.977 143.112 414.307 156.284 413.844C162.638 413.645 164.16 415.896 163.962 421.853C163.564 436.217 163.564 450.581 163.962 464.945C164.16 470.968 162.506 472.954 156.218 472.887C132.19 472.49 108.096 472.689 84.0679 472.822C80.0301 472.822 75.8603 473.152 71.8887 474.013C66.5933 475.204 63.3494 478.911 62.2241 484.273C61.0988 489.767 63.2174 494.003 67.5861 497.246C73.5434 501.681 80.4935 503.998 87.3775 506.513C99.7554 511.08 112.266 515.118 123.783 521.671C153.173 538.285 165.749 566.086 158.667 598.785C151.849 630.094 125.902 653.658 94.328 656.107C64.7401 658.424 35.0857 656.505 5.49774 657.1C1.19524 657.167 -0.0621205 655.578 0.00407171 651.474C0.202648 635.654 0.335033 619.768 0.00407171 603.948C-0.128313 598.057 2.98243 598.189 7.15254 598.189C31.1803 598.255 55.2744 598.322 79.3022 598.189C93.7321 598.189 99.424 594.946 101.013 586.606C102.601 578.265 98.6303 573.367 84.9947 567.873C72.8153 562.975 60.2384 558.805 48.2577 553.509C10.2633 536.829 -1.71731 507.307 4.57095 473.748C11.2564 437.938 40.6455 414.638 77.9779 413.977C90.8854 413.778 103.794 413.977 116.701 413.977Z" fill="#A3A3A3"/>
<path d="M350.823 548.53C350.823 564.085 350.889 579.641 350.823 595.196C350.492 634.911 320.639 664.631 281.056 664.565C267.884 664.565 254.513 665.558 241.473 663.969C205.795 659.733 181.304 631.8 180.907 595.593C180.51 563.026 180.907 530.46 180.708 497.893C180.708 491.936 182.628 490.546 188.254 490.678C205.001 491.009 221.681 491.009 238.428 490.678C243.922 490.546 245.312 492.201 245.312 497.562C245.047 527.746 245.179 557.996 245.179 588.179C245.179 604.198 252.461 613.2 265.567 613.399C278.938 613.597 286.417 604.397 286.417 587.782C286.417 558.128 286.616 528.54 286.285 498.886C286.219 492.267 288.006 490.413 294.625 490.612C310.776 491.141 326.927 491.075 343.012 490.612C349.035 490.479 351.087 491.936 350.954 498.29C350.491 514.971 350.823 531.717 350.823 548.464V548.53Z" fill="#A3A3A3"/>
<path d="M683.968 589.435C666.957 589.435 649.946 589.633 632.934 589.368C625.984 589.236 626.05 592.281 629.095 596.649C634.655 604.659 643.127 606.909 652.196 606.975C669.803 607.174 687.41 607.24 705.017 606.975C710.379 606.909 712.166 608.233 711.968 613.793C711.57 626.37 711.835 639.012 711.835 651.589C711.835 654.17 712.365 657.149 708.195 657.017C682.446 656.156 656.432 659.996 630.948 654.766C595.933 647.618 571.971 619.883 568.595 584.272C565.616 552.83 572.434 524.765 598.514 504.113C612.745 492.86 629.029 487.498 647.298 486.969C669.671 486.307 691.249 487.962 710.048 501.928C737.981 522.647 745.66 551.374 743.012 584.338C742.615 589.302 739.834 589.633 735.863 589.567C718.52 589.434 701.244 589.567 683.902 589.567L683.968 589.435ZM688.8 549.587C683.968 536.282 675.364 530.06 662.787 529.2C649.747 528.273 638.296 530.987 631.346 543.431C629.559 546.608 627.573 549.786 634.258 549.719C651.997 549.455 669.803 549.653 688.8 549.653V549.587Z" fill="#A3A3A3"/>
<path d="M375.579 392.263C399.077 392.263 422.575 393.058 446.007 392.065C484.995 390.476 514.317 371.611 532.255 337.456C549.995 303.698 549.267 269.146 529.012 236.248C517.031 216.788 498.1 205.27 477.647 196.533C458.782 188.523 439.586 181.507 420.523 173.829C410.991 169.99 401.857 165.356 393.715 159.002C378.028 146.69 372.335 128.686 378.16 110.483C383.985 92.3462 400.268 79.108 419.398 78.9094C468.115 78.4461 516.766 78.7767 565.484 78.5781C570.514 78.5781 571.044 80.6301 571.11 84.8002C571.441 100.885 571.574 100.885 555.886 100.885C512.795 100.885 469.638 100.885 426.546 100.885C423.634 100.885 420.656 100.753 417.743 101.216C408.145 102.739 401.79 108.497 398.878 117.565C396.098 126.17 398.746 133.782 405.431 139.806C415.162 148.676 427.341 153.177 439.322 157.877C460.305 166.085 481.684 173.366 501.476 184.287C534.241 202.358 556.283 228.239 563.366 266.035C577.796 343.215 520.473 413.974 442.168 414.57C394.973 414.901 347.711 414.504 300.45 414.835C293.566 414.835 292.11 412.783 292.308 406.362C292.639 392.263 292.309 392.263 306.077 392.263C329.244 392.263 352.411 392.263 375.579 392.263Z" fill="#A3A3A3"/>
<path d="M489.827 0.204727C514.186 0.204727 538.544 0.469301 562.902 0.00595593C569.654 -0.126429 571.309 1.92566 571.11 8.4125C570.647 22.0481 571.11 22.1143 556.945 22.1143C511.471 22.1143 465.931 21.7834 420.457 22.1806C346.851 22.7763 297.604 99.5592 327.523 166.48C338.313 190.64 358.236 205.07 381.139 216.124C400.93 225.655 422.112 232.01 442.3 240.549C452.56 244.917 462.555 249.816 471.226 257.03C485.59 268.945 490.687 286.883 484.862 304.623C479.104 322.164 463.085 335.468 445.081 335.601C396.099 335.998 347.05 335.733 298.067 335.866C293.368 335.866 292.308 334.277 292.176 329.842C291.779 314.353 291.647 314.353 307.069 314.353C349.631 314.353 392.193 314.353 434.754 314.353C439.123 314.353 443.558 313.956 447.794 312.963C456.531 310.977 462.092 305.02 464.607 296.613C467.122 288.207 464.276 281.058 457.988 275.167C449.449 267.092 438.858 262.789 428.268 258.553C407.086 250.014 385.375 242.799 365.054 232.142C313.556 205.268 293.765 164.163 298.73 112.003C303.76 58.454 339.967 17.3483 390.604 4.10984C403.776 0.667846 417.214 0.204791 430.717 0.270983C450.376 0.403368 470.035 0.270983 489.694 0.270983L489.827 0.204727Z" fill="#A3A3A3"/>
<path d="M374.121 374.71C349.498 374.71 324.809 374.511 300.185 374.842C294.228 374.908 291.315 373.585 292.374 367.164C292.573 366.039 292.573 364.781 292.374 363.656C290.918 355.448 293.764 352.933 302.502 352.999C348.571 353.528 394.641 353.396 440.711 353.198C484.795 352.999 514.516 311.298 500.615 269.663C496.511 257.418 488.303 248.482 478.176 241.134C465.732 232.132 451.699 226.241 437.203 221.277C418.934 214.988 400.731 208.634 383.455 199.83C342.084 178.715 331.295 141.978 339.304 105.109C347.843 65.7907 382.131 39.7113 423.104 39.6451C469.173 39.6451 515.243 39.9096 561.313 39.3801C569.786 39.3139 572.102 42.0277 570.977 49.6398C570.712 51.3608 570.712 53.2145 570.977 54.9355C571.705 60.0985 569.322 61.2238 564.556 61.1576C538.146 60.959 511.735 61.0251 485.324 61.0913C464.474 61.0913 443.624 60.6277 422.839 61.2234C378.822 62.4811 350.292 100.741 361.347 143.037C365.12 157.467 374.122 167.793 386.301 175.736C402.187 186.062 419.861 192.284 437.6 198.241C457.921 205.125 477.712 213.201 494.856 226.506C523.318 248.548 533.512 283.365 521.664 317.851C510.279 351.079 478.705 374.445 444.616 374.644C421.118 374.776 397.686 374.644 374.187 374.644L374.121 374.71Z" fill="#A3A3A3"/>
<path d="M761.943 602.694C763.201 586.212 759.494 566.222 764.459 546.563C773.328 511.679 804.902 487.056 841.043 487.188C848.258 487.188 857.79 483.945 862.026 488.644C865.6 492.616 863.217 501.949 863.283 508.966C863.349 518.365 862.886 527.764 863.416 537.097C863.747 543.385 862.357 546.364 855.407 545.371C851.7 544.842 847.728 544.974 844.021 545.57C832.57 547.49 824.892 557.815 824.826 571.385C824.694 596.869 824.428 622.353 825.024 647.837C825.223 656.045 822.575 657.567 815.161 657.303C800.268 656.773 785.243 656.707 770.35 657.303C763.003 657.633 761.546 654.919 761.745 648.3C762.208 634.267 761.877 620.168 761.877 602.76L761.943 602.694Z" fill="#A3A3A3"/>
</svg>
