<svg width="820" height="217" viewBox="0 0 820 217" fill="none" xmlns="http://www.w3.org/2000/svg">
<path fill-rule="evenodd" clip-rule="evenodd" d="M693.214 67.9336C678.069 67.9336 661.268 70.1549 656.261 95.8001L642.691 161.751H741.273C756.418 161.751 769.907 155.854 774.43 133.803L788 67.9336H693.254H693.214ZM675.04 148.06C671.971 145.192 671.971 140.588 675.04 137.681L698.222 116.518L700.403 114.539C703.149 111.955 702.745 110.864 700.039 108.239L697.172 105.331L686.752 95.3964C683.723 92.4886 683.723 87.8441 686.752 85.0171C689.741 82.1497 694.628 82.1497 697.616 85.0171L719.99 106.341C722.978 109.249 722.978 113.853 719.99 116.72L685.944 148.06C682.956 150.927 678.069 150.927 675.081 148.06H675.04ZM754.722 116.72L720.596 148.06C717.607 150.927 712.761 150.927 709.732 148.06C706.703 145.192 706.703 140.588 709.732 137.681L732.954 116.518L735.094 114.539C737.841 111.955 737.477 110.864 734.771 108.239L731.863 105.331L721.444 95.3964C718.415 92.4886 718.415 87.8441 721.444 85.0171C724.473 82.1497 729.359 82.1497 732.348 85.0171L754.762 106.341C757.751 109.249 757.751 113.853 754.762 116.72H754.722Z" fill="#A3A3A3"/>
<path fill-rule="evenodd" clip-rule="evenodd" d="M127.081 53.8393H121.467L122.275 49.9219H137.945L137.177 53.8393H131.564L128.333 70.963H123.85L127.081 53.8393Z" fill="#A3A3A3"/>
<path fill-rule="evenodd" clip-rule="evenodd" d="M140.409 65.4706L137.865 70.963H133.1L143.317 49.9219H149.092L151.556 70.963H146.871L146.387 65.4706H140.409ZM146.265 62.0378L145.821 57.5146C145.74 56.3434 145.619 54.6471 145.498 53.3547C144.973 54.6471 144.367 56.2626 143.802 57.5146L141.702 62.0378H146.306H146.265Z" fill="#A3A3A3"/>
<path fill-rule="evenodd" clip-rule="evenodd" d="M157.533 50.2802C158.906 49.9167 161.047 49.7148 163.147 49.7148C165.247 49.7148 167.226 49.9975 168.68 50.9264C170.053 51.7341 171.022 53.0669 171.022 55.0458C171.022 58.196 168.922 60.0941 166.257 60.9826V61.1036C167.508 61.669 168.074 63.0422 168.276 64.9404C168.559 67.2424 168.72 70.029 169.124 70.9174H164.48C164.278 70.3117 164.076 68.5347 163.833 65.95C163.672 63.3653 162.783 62.5979 161.006 62.5979H159.633L158.058 70.9174H153.575L157.574 50.2399L157.533 50.2802ZM160.239 59.246H162.137C164.56 59.246 166.337 57.792 166.337 55.7323C166.337 54.0361 164.924 53.2688 163.106 53.2688C162.299 53.2688 161.774 53.3093 161.37 53.4304L160.239 59.246Z" fill="#A3A3A3"/>
<path fill-rule="evenodd" clip-rule="evenodd" d="M180.432 49.9219H184.914L182.249 63.8148C181.28 69.1458 178.937 71.3266 174.172 71.3266C172.839 71.3266 171.385 71.0843 170.739 70.842L171.547 66.9648C172.273 67.1668 173.041 67.3284 174.091 67.3284C176.07 67.3284 177.281 66.3591 177.887 63.2494L180.432 49.9219Z" fill="#A3A3A3"/>
<path fill-rule="evenodd" clip-rule="evenodd" d="M197.839 62.0378H190.327L189.357 67.0861H197.758L197.071 70.963H184.188L188.146 49.9219H200.625L199.858 53.7182H191.942L191.054 58.2415H198.525L197.839 62.0378Z" fill="#A3A3A3"/>
<path fill-rule="evenodd" clip-rule="evenodd" d="M208.418 53.8393H202.845L203.612 49.9219H219.282L218.515 53.8393H212.901L209.71 70.963H205.187L208.418 53.8393Z" fill="#A3A3A3"/>
<path fill-rule="evenodd" clip-rule="evenodd" d="M221.1 65.4706L218.556 70.963H213.831L224.048 49.9219H229.864L232.287 70.963H227.602L227.158 65.4706H221.1ZM226.956 62.0378L226.552 57.5146C226.471 56.3434 226.35 54.6471 226.269 53.3547C225.704 54.6471 225.098 56.2626 224.492 57.5146L222.392 62.0378H226.956Z" fill="#A3A3A3"/>
<path fill-rule="evenodd" clip-rule="evenodd" d="M14.0404 161.752L17.6751 143.538H56.2439C75.5081 143.538 78.9409 140.832 81.6468 127.989C84.9988 112.239 76.1543 114.299 59.8787 113.45C36.3335 111.956 19.5329 112.845 26.3177 80.7779C32.7795 50.448 49.5802 50.125 76.0331 50.125H108.544L104.95 67.9352H72.6406C51.5994 67.9352 47.7224 69.0256 45.2588 80.7779C42.3914 94.2669 45.0973 94.7517 66.2596 96.044C99.8609 98.1441 106.807 99.8806 100.83 127.989C94.2472 159.087 80.8794 161.712 52.488 161.712H14L14.0404 161.752Z" fill="#A3A3A3"/>
<path fill-rule="evenodd" clip-rule="evenodd" d="M118.641 82.668L106.767 140.097C103.294 157.019 112.502 161.744 127.97 161.744H152.726C171.183 161.744 175.504 142.803 176.11 139.855C176.716 136.906 184.106 100.559 184.106 100.559L187.903 82.668H169.002L162.056 116.996L158.421 133.797C158.421 133.797 157.007 143.53 148.607 143.53H136.734C129.666 143.53 125.466 141.43 127.081 133.797L137.622 82.668H118.681H118.641Z" fill="#A3A3A3"/>
<path fill-rule="evenodd" clip-rule="evenodd" d="M187.66 124.061C195.212 88.7637 203.976 82.625 236.487 82.625H262.94L259.386 100.435L235.195 100.516C213.871 100.516 211.124 103.182 206.52 124.869L206.036 127.898C204.339 141.67 208.418 143.527 226.956 143.527H250.582L246.704 161.742H222.796C187.983 162.428 183.137 154.068 186.852 128.383L187.62 124.102L187.66 124.061Z" fill="#A3A3A3"/>
<path fill-rule="evenodd" clip-rule="evenodd" d="M315.038 100.478H293.229C289.433 100.478 288.06 101.407 287.293 105.405L285.556 113.967L275.742 161.704H256.761L269.644 99.1858C271.542 89.0488 276.752 82.668 287.939 82.668H318.43L314.997 100.438L315.038 100.478Z" fill="#A3A3A3"/>
<path fill-rule="evenodd" clip-rule="evenodd" d="M491.566 161.744H472.625L488.861 82.668H507.842L491.566 161.744Z" fill="#A3A3A3"/>
<path fill-rule="evenodd" clip-rule="evenodd" d="M509.094 76.5675H490.113L492.576 64.7344H511.558L509.094 76.5675Z" fill="#A3A3A3"/>
<path fill-rule="evenodd" clip-rule="evenodd" d="M630.817 122.297C624.477 152.183 617.692 162.118 585.463 162.118C557.718 162.118 551.983 152.183 558.324 122.297C564.705 92.2902 570.076 82.7188 602.264 82.7188C634.452 82.7188 637.198 92.2498 630.777 122.297M577.184 122.418C573.025 142.127 579.931 143.823 589.502 143.823C602.183 143.823 607.191 144.752 611.553 124.155C615.995 103.235 612.441 99.8424 599.276 99.8424C584.01 99.8424 581.465 102.225 577.184 122.378V122.418Z" fill="#A3A3A3"/>
<path fill-rule="evenodd" clip-rule="evenodd" d="M463.658 57.1068L457.964 84.6906C453.643 83.7214 447.988 82.6713 441.123 82.6713C408.895 82.6713 402.756 92.2024 396.335 122.25C390.034 152.135 392.094 161.707 424.363 161.707C431.269 161.707 437.003 161.263 441.809 160.253C456.793 157.143 463.779 148.581 467.253 131.538L471.493 111.951L482.72 57.0664H463.658V57.1068ZM447.867 133.8C444.636 142.2 438.902 143.533 427.351 143.533C410.914 143.533 412.408 136.748 415.76 121.321C419.678 103.188 421.697 99.7546 438.175 99.7546C449.523 99.7546 453.764 101.087 452.835 109.73C452.431 113.446 447.867 133.76 447.867 133.76V133.8Z" fill="#A3A3A3"/>
<path fill-rule="evenodd" clip-rule="evenodd" d="M346.216 143.533C333.858 143.533 331.515 139.656 332.404 133.8L333.535 128.913H385.431C387.652 118.332 389.025 111.466 390.439 104.681C392.983 92.2828 383.291 84.3267 369.923 83.1555C365.925 82.8324 352.193 82.9133 349.043 83.2768C326.71 85.9422 320.733 98.2194 315.603 122.411C309.222 152.296 313.261 161.747 342.864 161.747H378.646L382.402 143.533H346.216ZM340.077 104.237C344.156 99.6733 351.466 99.5927 359.867 99.5927C364.713 99.5927 368.832 100.158 370.852 102.339C372.346 103.995 371.821 106.741 371.256 109.568C370.852 111.466 370.771 111.83 370.286 114.132H336.604C336.604 114.132 337.816 106.781 340.077 104.237Z" fill="#A3A3A3"/>
<path fill-rule="evenodd" clip-rule="evenodd" d="M361.522 76.8164L376.869 62.7621C379.575 60.5005 383.573 60.864 385.834 63.5699C388.096 66.3161 387.692 70.2739 385.027 72.5759L374.728 76.8164H361.522Z" fill="#A3A3A3"/>
<path fill-rule="evenodd" clip-rule="evenodd" d="M556.305 100.476H544.916L532.315 161.742H513.374L526.015 100.476H514.546L518.221 82.6658H529.65L533.406 64.7344H552.307L548.631 82.6658L560.02 82.7063L556.305 100.476Z" fill="#A3A3A3"/>
</svg>
