<svg width="159" height="159" viewBox="0 0 159 159" fill="none" xmlns="http://www.w3.org/2000/svg">
<path d="M108.311 130.127C136.284 114.204 146.052 78.6196 130.129 50.6469C114.206 22.6742 78.6217 12.906 50.649 28.829C22.6763 44.752 12.9081 80.3365 28.8311 108.309C44.7541 136.282 80.3386 146.05 108.311 130.127Z" fill="#1D1D1B"/>
<path fill-rule="evenodd" clip-rule="evenodd" d="M95.2748 43.9983V44.0583C95.2748 45.1983 95.6148 61.6683 112.895 62.6883C112.895 78.0083 112.895 62.6883 112.895 75.4083C111.595 75.4883 101.515 74.7583 95.2448 69.1683L95.2248 93.9383C95.3848 105.158 89.1348 116.158 77.4448 118.368C74.1648 118.988 71.2248 119.058 66.2748 117.978C37.7548 109.448 47.2348 67.1483 75.8648 71.6783C75.8648 85.3283 75.8648 71.6783 75.8648 85.3283C64.0348 83.5883 60.0748 93.4283 63.2248 100.478C66.0848 106.888 77.8648 108.288 81.9748 99.2383C82.4448 97.4683 82.6748 95.4483 82.6748 93.1783V43.9883H95.2648L95.2748 43.9983Z" fill="white"/>
</svg>
