<svg width="119" height="117" viewBox="0 0 119 117" fill="none" xmlns="http://www.w3.org/2000/svg">
<path d="M60.28 116.56C92.4672 116.56 118.56 90.4671 118.56 58.28C118.56 26.0928 92.4672 0 60.28 0C28.0928 0 2 26.0928 2 58.28C2 90.4671 28.0928 116.56 60.28 116.56Z" fill="#1D1D1B"/>
<path fill-rule="evenodd" clip-rule="evenodd" d="M77.2223 21.01V21.07C77.2223 22.21 77.5623 38.68 94.8423 39.7C94.8423 55.02 94.8423 39.7 94.8423 52.42C93.5423 52.5 83.4623 51.77 77.1923 46.18L77.1723 70.95C77.3323 82.17 71.0823 93.17 59.3923 95.38C56.1123 96 53.1723 96.07 48.2223 94.99C19.7023 86.46 29.1823 44.16 57.8123 48.69C57.8123 62.34 57.8123 48.69 57.8123 62.34C45.9823 60.6 42.0223 70.44 45.1723 77.49C48.0323 83.9 59.8123 85.3 63.9223 76.25C64.3923 74.48 64.6223 72.46 64.6223 70.19V21H77.2123L77.2223 21.01Z" fill="white"/>
</svg>
